# https://github.com/mikedh/trimesh

o geometry_0
v -0.00214546 -0.00381057 0.02635347
v -0.00535975 -0.00381057 0.02635347
v -0.00107403 -0.00392453 0.02635347
v -0.00214546 -0.00381057 0.02096993
v -0.00750261 -0.00381057 0.02204176
v -0.00857404 -0.00381976 0.02096993
v -0.00868171 -0.00392453 0.02214780
v -0.00614372 -0.00394843 0.02635347
v -0.00052316 -0.00405872 0.02635347
v -0.00107403 -0.00392453 0.02204176
v -0.00360574 -0.00384733 0.01171459
v -0.00428936 -0.00381057 0.01171459
v -0.00750261 -0.00381057 0.01171459
v -0.00857404 -0.00381976 0.01171459
v -0.00929948 -0.00395578 0.02096993
v -0.00923572 -0.00399990 0.02186264
v -0.00910923 -0.00408629 0.02257625
v -0.00666742 -0.00446128 0.02635347
v -0.00051061 -0.00406240 0.02635347
v -0.00051061 -0.00406240 0.02204176
v -0.00101549 -0.00396681 0.02100575
v -0.00322003 -0.00390615 0.01171459
v -0.00052002 -0.00406975 0.02138834
v -0.00929948 -0.00395578 0.01171459
v -0.00964129 -0.00424989 0.01171459
v -0.00983467 -0.00441716 0.02096993
v -0.01028729 -0.00502192 0.02172222
v -0.00937892 -0.00480134 0.02284564
v -0.00703118 -0.00500905 0.02635347
v -0.00668728 -0.00448518 0.02635347
v -0.00667996 -0.00447415 0.02635347
v -0.00050329 -0.00407526 0.02635347
v -0.00019702 -0.00462120 0.02204176
v -0.00271933 -0.00398887 0.01171459
v -0.00030469 -0.00454767 0.02100575
v -0.00208274 -0.00456973 0.01171459
v -0.00256880 -0.00404769 0.01171459
v -0.00983467 -0.00441716 0.01171459
v -0.01034060 -0.00495391 0.02096993
v -0.01054338 -0.00569285 0.02096993
v -0.01036255 -0.00569285 0.02185118
v -0.01004896 -0.00569285 0.02238710
v -0.00709495 -0.00567815 0.02635347
v -0.00019702 -0.00462120 0.02635347
v 0.00008834 -0.00569285 0.02204176
v 0.00001831 -0.00569285 0.02096993
v -0.00197403 -0.00490612 0.01171459
v -0.00172734 -0.00569285 0.01171459
v -0.01034060 -0.00495391 0.01171459
v -0.01054338 -0.00569285 0.01171459
v -0.01058938 -0.00676451 0.02096993
v -0.01038555 -0.00676451 0.02187268
v -0.01004896 -0.00676451 0.02240860
v -0.00709599 -0.00569285 0.02635347
v 0.00008834 -0.00569285 0.02635347
v 0.00008834 -0.02069418 0.02204176
v -0.00171793 -0.00673877 0.01171459
v 0.00001831 -0.02069418 0.02096993
v -0.01058938 -0.00676451 0.01171459
v -0.01058938 -0.01962253 0.02096993
v -0.01038555 -0.01962253 0.02187268
v -0.00709704 -0.00674061 0.02635347
v -0.01004896 -0.01962253 0.02240860
v 0.00008834 -0.02069418 0.02635347
v -0.00019180 -0.02176584 0.02204176
v -0.00171793 -0.00676451 0.01171459
v -0.00030260 -0.02184120 0.02099715
v -0.00037681 -0.02153423 0.02019757
v -0.00176601 -0.01646455 0.01171459
v -0.00176288 -0.01640756 0.01171459
v -0.00173152 -0.01532672 0.01171459
v -0.00172525 -0.01426425 0.01171459
v -0.01058938 -0.01962253 0.01171459
v -0.01054757 -0.02069418 0.02096993
v -0.01036464 -0.02069418 0.02185405
v -0.01004896 -0.02069418 0.02238853
v -0.00709704 -0.01962253 0.02635347
v -0.00709599 -0.02069418 0.02635347
v -0.00019180 -0.02176584 0.02635347
v -0.00050539 -0.02233016 0.02204176
v -0.00051688 -0.02232097 0.02137258
v -0.00061514 -0.02224928 0.02065755
v -0.00271515 -0.01901409 0.01171459
v -0.00240783 -0.01847919 0.01171459
v -0.00206602 -0.01781744 0.01171459
v -0.00198135 -0.01748290 0.01171459
v -0.01054757 -0.02069418 0.01171459
v -0.01041795 -0.02117027 0.01171459
v -0.01034373 -0.02144048 0.02096993
v -0.01028938 -0.02137063 0.02172508
v -0.00703118 -0.02138166 0.02635347
v -0.00703327 -0.02136512 0.02635347
v -0.00050539 -0.02233016 0.02635347
v -0.00107403 -0.02247353 0.02204176
v -0.00101340 -0.02242758 0.02099715
v -0.00559912 -0.02244596 0.01171459
v -0.00525731 -0.02222906 0.01171459
v -0.00506393 -0.02210590 0.01171459
v -0.00488623 -0.02191289 0.01171459
v -0.00457369 -0.02157099 0.01171459
v -0.00423187 -0.02110777 0.01171459
v -0.00364337 -0.02030817 0.01171459
v -0.00332142 -0.01987068 0.01171459
v -0.00286985 -0.01925306 0.01171459
v -0.01034373 -0.02144048 0.01171459
v -0.00984303 -0.02197539 0.02096993
v -0.00931621 -0.02176584 0.02278259
v -0.00702387 -0.02139453 0.02635347
v -0.00921272 -0.02237244 0.02204176
v -0.00911551 -0.02230442 0.02258341
v -0.00107403 -0.02247353 0.02635347
v -0.00214546 -0.02258934 0.02096993
v -0.00643118 -0.02258934 0.01171459
v -0.00984303 -0.02197539 0.01171459
v -0.00950122 -0.02226950 0.01171459
v -0.00930680 -0.02243677 0.02096993
v -0.00668937 -0.02191657 0.02635347
v -0.00857404 -0.02251581 0.02204176
v -0.00615313 -0.02244596 0.02635347
v -0.00214546 -0.02258934 0.02635347
v -0.00750261 -0.02258934 0.01171459
v -0.00930680 -0.02243677 0.01171459
v -0.00857404 -0.02258015 0.02096993
v -0.00535975 -0.02258934 0.02635347
v -0.00750261 -0.02258934 0.02204176
v -0.00818624 -0.02258382 0.01171459
v -0.00857404 -0.02258015 0.01171459
f 1 2 8
f 1 8 18
f 1 18 31
f 1 31 30
f 1 30 29
f 1 29 43
f 1 43 54
f 1 54 62
f 1 62 77
f 1 77 78
f 1 78 92
f 1 92 91
f 1 91 108
f 1 108 117
f 1 117 119
f 1 119 124
f 1 124 120
f 1 120 111
f 1 111 93
f 1 93 79
f 1 79 64
f 1 64 55
f 1 55 44
f 1 44 32
f 1 32 19
f 1 19 9
f 1 9 3
f 1 3 10
f 1 10 4
f 1 4 12
f 1 12 13
f 1 13 5
f 1 5 2
f 2 5 6
f 2 6 7
f 2 7 8
f 3 9 10
f 4 10 11
f 4 11 12
f 5 13 14
f 5 14 6
f 6 14 24
f 6 24 15
f 6 15 16
f 6 16 7
f 7 16 8
f 8 16 17
f 8 17 18
f 9 19 20
f 9 20 10
f 10 21 22
f 10 22 11
f 10 20 23
f 10 23 21
f 11 22 34
f 11 34 37
f 11 37 36
f 11 36 47
f 11 47 48
f 11 48 57
f 11 57 66
f 11 66 72
f 11 72 71
f 11 71 70
f 11 70 69
f 11 69 86
f 11 86 85
f 11 85 84
f 11 84 83
f 11 83 104
f 11 104 103
f 11 103 102
f 11 102 101
f 11 101 100
f 11 100 99
f 11 99 98
f 11 98 97
f 11 97 96
f 11 96 113
f 11 113 121
f 11 121 126
f 11 126 127
f 11 127 122
f 11 122 115
f 11 115 114
f 11 114 105
f 11 105 88
f 11 88 87
f 11 87 73
f 11 73 59
f 11 59 50
f 11 50 49
f 11 49 38
f 11 38 25
f 11 25 24
f 11 24 14
f 11 14 13
f 11 13 12
f 15 24 25
f 15 25 26
f 15 26 16
f 16 26 27
f 16 27 17
f 17 27 28
f 17 28 29
f 17 29 30
f 17 30 31
f 17 31 18
f 19 32 20
f 20 32 33
f 20 33 23
f 21 34 22
f 21 23 34
f 23 33 35
f 23 35 36
f 23 36 37
f 23 37 34
f 25 38 26
f 26 38 49
f 26 49 39
f 26 39 27
f 27 40 41
f 27 41 42
f 27 42 29
f 27 29 28
f 27 39 40
f 29 42 43
f 32 44 33
f 33 44 55
f 33 55 45
f 33 45 46
f 33 46 35
f 35 47 36
f 35 46 48
f 35 48 47
f 39 49 50
f 39 50 40
f 40 50 59
f 40 59 51
f 40 51 41
f 41 51 52
f 41 52 42
f 42 52 53
f 42 53 54
f 42 54 43
f 45 55 64
f 45 64 56
f 45 56 58
f 45 58 46
f 46 57 48
f 46 58 66
f 46 66 57
f 51 59 73
f 51 73 60
f 51 60 61
f 51 61 52
f 52 61 63
f 52 63 53
f 53 62 54
f 53 63 77
f 53 77 62
f 56 64 79
f 56 79 65
f 56 65 58
f 58 65 67
f 58 67 68
f 58 68 69
f 58 69 70
f 58 70 71
f 58 71 72
f 58 72 66
f 60 73 87
f 60 87 74
f 60 74 75
f 60 75 61
f 61 75 76
f 61 76 63
f 63 76 78
f 63 78 77
f 65 79 93
f 65 93 80
f 65 80 81
f 65 81 67
f 67 81 82
f 67 82 68
f 68 82 83
f 68 83 84
f 68 84 85
f 68 85 86
f 68 86 69
f 74 87 88
f 74 88 89
f 74 89 90
f 74 90 75
f 75 90 76
f 76 90 91
f 76 91 92
f 76 92 78
f 80 93 111
f 80 111 94
f 80 94 81
f 81 94 95
f 81 95 82
f 82 95 96
f 82 96 97
f 82 97 98
f 82 98 99
f 82 99 100
f 82 100 101
f 82 101 102
f 82 102 103
f 82 103 104
f 82 104 83
f 88 105 89
f 89 105 114
f 89 114 106
f 89 106 90
f 90 107 108
f 90 108 91
f 90 106 109
f 90 109 110
f 90 110 107
f 94 111 120
f 94 120 112
f 94 112 95
f 95 112 113
f 95 113 96
f 106 114 115
f 106 115 116
f 106 116 109
f 107 110 108
f 108 110 117
f 109 116 118
f 109 118 119
f 109 119 110
f 110 119 117
f 112 120 124
f 112 124 125
f 112 125 121
f 112 121 113
f 115 122 116
f 116 122 127
f 116 127 123
f 116 123 118
f 118 123 124
f 118 124 119
f 121 125 126
f 123 127 126
f 123 126 125
f 123 125 124

o geometry_1
v -0.00535956 -0.02258934 0.02635347
v -0.00615376 -0.02244596 0.02635347
v -0.00214548 -0.02258934 0.02635347
v -0.00535956 -0.02258934 0.08740897
v -0.00668909 -0.02191657 0.02635347
v -0.00615376 -0.02244596 0.08740897
v -0.00107412 -0.02247353 0.02635347
v -0.00214548 -0.02258934 0.08955295
v -0.00321754 -0.02258934 0.08955295
v -0.00433815 -0.02247353 0.08960415
v -0.00540951 -0.02247353 0.08852896
v -0.00606724 -0.02239817 0.08820257
v -0.00702393 -0.02139453 0.02635347
v -0.00668909 -0.02191657 0.08740897
v -0.00050573 -0.02233016 0.02635347
v -0.00050503 -0.02233016 0.03597899
v -0.00050433 -0.02233016 0.07240750
v -0.00107412 -0.02247353 0.08955295
v -0.00214548 -0.02258750 0.09062175
v -0.00326679 -0.02247353 0.09067295
v -0.00508592 -0.02239817 0.08927776
v -0.00579992 -0.02222906 0.08891936
v -0.00643584 -0.02178054 0.08847777
v -0.00700775 -0.02133203 0.08803616
v -0.00703167 -0.02138166 0.02635347
v -0.00702815 -0.02138166 0.08740897
v -0.00019903 -0.02177870 0.02635347
v -0.00019129 -0.02176584 0.04347973
v -0.00019059 -0.02176584 0.07883304
v -0.00050433 -0.02233016 0.08955295
v -0.00107412 -0.02247170 0.09062175
v -0.00107412 -0.02238714 0.09127454
v -0.00214548 -0.02244412 0.09134494
v -0.00294249 -0.02239633 0.09128094
v -0.00401385 -0.02239817 0.09034655
v -0.00472856 -0.02222906 0.08999456
v -0.00608904 -0.02151401 0.08920736
v -0.00672145 -0.02069418 0.08861856
v -0.00702815 -0.02069418 0.08808096
v -0.00708865 -0.02069418 0.08740897
v -0.00709639 -0.02069418 0.02635347
v -0.00019199 -0.02176584 0.02635347
v 0.00008939 -0.02069418 0.02635347
v -0.00019059 -0.02176584 0.08955295
v -0.00050714 -0.02232832 0.09062175
v -0.00051910 -0.02231913 0.09118494
v -0.00107412 -0.02176584 0.09150495
v -0.00214548 -0.02176584 0.09163294
v -0.00326679 -0.02180812 0.09139615
v -0.00365650 -0.02219229 0.09106334
v -0.00501768 -0.02151401 0.09027615
v -0.00618612 -0.02069418 0.08930336
v -0.00565009 -0.02069418 0.08984096
v -0.00672145 -0.00569285 0.08861856
v -0.00702815 -0.00569285 0.08808096
v -0.00708865 -0.00569285 0.08740897
v -0.00709709 -0.01962253 0.02635347
v 0.00008939 -0.00569285 0.02635347
v 0.00008939 -0.02069418 0.08955295
v -0.00026445 -0.02176584 0.09062175
v -0.00043820 -0.02176584 0.09126174
v -0.00005341 -0.02069418 0.09062175
v -0.00107412 -0.02069418 0.09162014
v -0.00214548 -0.02069418 0.09173534
v -0.00321754 -0.02069418 0.09156894
v -0.00389427 -0.02147724 0.09124254
v -0.00450135 -0.02069418 0.09090975
v -0.00511405 -0.02069418 0.09037215
v -0.00618612 -0.00569285 0.08930336
v -0.00565009 -0.00569285 0.08984096
v -0.00608904 -0.00487671 0.08920736
v -0.00700775 -0.00505868 0.08803616
v -0.00702815 -0.00500905 0.08740897
v -0.00709639 -0.00569285 0.02635347
v -0.00709709 -0.00674061 0.02635347
v -0.00018988 -0.00464693 0.02635347
v 0.00008939 -0.00569285 0.08955295
v -0.00036715 -0.02069418 0.09132574
v -0.00005341 -0.00569285 0.09062175
v -0.00107412 -0.00569285 0.09162014
v -0.00214548 -0.00569285 0.09173534
v -0.00321754 -0.00569285 0.09156894
v -0.00396532 -0.02069418 0.09128734
v -0.00450135 -0.00569285 0.09090975
v -0.00511405 -0.00569285 0.09037215
v -0.00501768 -0.00487671 0.09027615
v -0.00579148 -0.00416350 0.08891296
v -0.00643233 -0.00461017 0.08847137
v -0.00540458 -0.00452010 0.08959775
v -0.00667994 -0.00447415 0.08740897
v -0.00606090 -0.00399438 0.08819617
v -0.00703167 -0.00500905 0.02635347
v -0.00019692 -0.00462120 0.02635347
v -0.00019692 -0.00462120 0.08955295
v -0.00027008 -0.00462120 0.09062175
v -0.00036715 -0.00569285 0.09132574
v -0.00052262 -0.00407159 0.09117854
v -0.00044102 -0.00462120 0.09125534
v -0.00214548 -0.00462120 0.09162654
v -0.00107412 -0.00462120 0.09149855
v -0.00326186 -0.00458444 0.09138975
v -0.00389427 -0.00491531 0.09124254
v -0.00396532 -0.00569285 0.09128734
v -0.00364735 -0.00420210 0.09105694
v -0.00471942 -0.00416350 0.08998176
v -0.00400541 -0.00399438 0.09034015
v -0.00507677 -0.00399438 0.08927136
v -0.00614391 -0.00394843 0.08740897
v -0.00666728 -0.00446128 0.02635347
v -0.00667994 -0.00447415 0.02635347
v -0.00668768 -0.00448518 0.02635347
v -0.00535956 -0.00381057 0.08740897
v -0.00540458 -0.00392086 0.08852256
v -0.00050995 -0.00406240 0.02635347
v -0.00050995 -0.00406240 0.08955295
v -0.00051277 -0.00406423 0.09062175
v -0.00107412 -0.00400725 0.09126814
v -0.00107412 -0.00392637 0.09062175
v -0.00214548 -0.00394843 0.09133854
v -0.00293405 -0.00399438 0.09127454
v -0.00326186 -0.00392086 0.09066655
v -0.00433252 -0.00392086 0.08959775
v -0.00614391 -0.00394843 0.02635347
v -0.00535956 -0.00381057 0.02635347
v -0.00321754 -0.00381057 0.08955295
v -0.00052332 -0.00405872 0.02635347
v -0.00107412 -0.00392453 0.08955295
v -0.00214548 -0.00381240 0.09062175
v -0.00214548 -0.00381057 0.02635347
v -0.00214548 -0.00381057 0.08955295
v -0.00107412 -0.00392453 0.02635347
f 128 129 132
f 128 132 140
f 128 140 152
f 128 152 168
f 128 168 184
f 128 184 202
f 128 202 201
f 128 201 219
f 128 219 238
f 128 238 237
f 128 237 236
f 128 236 250
f 128 250 251
f 128 251 256
f 128 256 258
f 128 258 253
f 128 253 241
f 128 241 220
f 128 220 203
f 128 203 185
f 128 185 170
f 128 170 169
f 128 169 154
f 128 154 142
f 128 142 134
f 128 134 130
f 128 130 135
f 128 135 136
f 128 136 131
f 128 131 133
f 128 133 129
f 129 133 141
f 129 141 132
f 130 134 145
f 130 145 135
f 131 136 137
f 131 137 138
f 131 138 139
f 131 139 133
f 132 141 140
f 133 139 141
f 134 142 143
f 134 143 144
f 134 144 157
f 134 157 145
f 135 145 158
f 135 158 146
f 135 146 136
f 136 146 147
f 136 147 137
f 137 147 148
f 137 148 138
f 138 148 139
f 139 148 149
f 139 149 150
f 139 150 151
f 139 151 141
f 140 141 153
f 140 153 152
f 141 151 153
f 142 154 143
f 143 154 155
f 143 155 156
f 143 156 144
f 144 156 171
f 144 171 157
f 145 157 158
f 146 158 159
f 146 159 160
f 146 160 161
f 146 161 147
f 147 162 148
f 147 161 162
f 148 162 163
f 148 163 149
f 149 163 164
f 149 164 150
f 150 164 151
f 151 164 165
f 151 165 166
f 151 166 167
f 151 167 153
f 152 153 168
f 153 167 168
f 154 169 155
f 155 169 170
f 155 170 156
f 156 170 186
f 156 186 171
f 157 171 172
f 157 172 158
f 158 172 173
f 158 173 159
f 159 173 174
f 159 174 175
f 159 175 160
f 160 175 161
f 161 175 176
f 161 176 177
f 161 177 162
f 162 177 163
f 163 177 178
f 163 178 164
f 164 179 165
f 164 178 180
f 164 180 179
f 165 179 196
f 165 196 181
f 165 181 182
f 165 182 166
f 166 182 183
f 166 183 167
f 167 183 202
f 167 202 184
f 167 184 168
f 170 185 204
f 170 204 186
f 171 186 187
f 171 187 173
f 171 173 172
f 173 188 174
f 173 187 189
f 173 189 188
f 174 190 175
f 174 188 190
f 175 191 192
f 175 192 176
f 175 190 191
f 176 192 193
f 176 193 177
f 177 193 178
f 178 193 194
f 178 194 195
f 178 195 180
f 179 180 197
f 179 197 196
f 180 195 212
f 180 212 197
f 181 198 199
f 181 199 182
f 181 196 198
f 182 199 183
f 183 199 200
f 183 200 201
f 183 201 202
f 185 203 204
f 186 204 206
f 186 206 189
f 186 189 187
f 188 189 205
f 188 205 190
f 189 206 223
f 189 223 205
f 190 205 223
f 190 223 207
f 190 207 208
f 190 208 191
f 191 208 209
f 191 209 192
f 192 209 230
f 192 230 210
f 192 210 193
f 193 210 194
f 194 210 230
f 194 230 211
f 194 211 212
f 194 212 195
f 196 197 198
f 197 212 213
f 197 213 198
f 198 214 215
f 198 215 199
f 198 213 216
f 198 216 214
f 199 217 200
f 199 215 218
f 199 218 217
f 200 217 219
f 200 219 201
f 203 220 221
f 203 221 204
f 204 221 222
f 204 222 206
f 206 222 224
f 206 224 225
f 206 225 223
f 207 226 208
f 207 223 225
f 207 225 227
f 207 227 226
f 208 226 209
f 209 226 228
f 209 228 229
f 209 229 230
f 211 230 229
f 211 229 213
f 211 213 212
f 213 229 231
f 213 231 232
f 213 232 216
f 214 216 232
f 214 232 233
f 214 233 234
f 214 234 218
f 214 218 215
f 217 218 235
f 217 235 236
f 217 236 237
f 217 237 238
f 217 238 219
f 218 239 235
f 218 234 240
f 218 240 239
f 220 241 242
f 220 242 221
f 221 242 243
f 221 243 224
f 221 224 222
f 224 244 227
f 224 227 225
f 224 243 245
f 224 245 244
f 226 227 244
f 226 244 246
f 226 246 247
f 226 247 228
f 228 247 231
f 228 231 229
f 231 247 233
f 231 233 232
f 233 247 248
f 233 248 234
f 234 248 249
f 234 249 240
f 235 239 251
f 235 251 250
f 235 250 236
f 239 240 249
f 239 249 252
f 239 252 257
f 239 257 256
f 239 256 251
f 241 253 242
f 242 254 245
f 242 245 243
f 242 253 254
f 244 245 255
f 244 255 246
f 245 254 257
f 245 257 255
f 246 255 247
f 247 255 248
f 248 255 252
f 248 252 249
f 252 255 257
f 253 258 254
f 254 258 256
f 254 256 257

o geometry_2
v 0.02785913 0.00408427 -0.00448675
v 0.02785913 0.00358559 -0.00046186
v 0.02892955 0.00357413 -0.00046186
v 0.02892955 0.00404727 -0.00448675
v 0.01059967 0.00408427 -0.00448675
v 0.01059967 0.00359704 -0.00035529
v 0.02785913 0.00349924 0.00018580
v 0.01059967 0.00351951 0.00023408
v 0.02892955 0.00348779 0.00016754
v 0.02954526 0.00345607 0.00012398
v 0.02969538 0.00348955 -0.00046186
v 0.02983680 0.00379088 -0.00448675
v 0.01059967 -0.00488858 -0.00448675
v 0.02785913 0.00287985 0.00044309
v 0.01059967 0.00343845 0.00030061
v 0.01059967 0.00279086 0.00073807
v 0.01059967 0.00271597 0.00078282
v 0.01059967 0.00183401 0.00124324
v 0.02892955 0.00287985 0.00041660
v 0.02978675 0.00287985 0.00023231
v 0.03052865 0.00232917 0.00006392
v 0.03028715 0.00294505 -0.00036059
v 0.03034155 0.00330981 -0.00153285
v 0.02999127 0.00372832 -0.00448675
v 0.03107474 -0.00491590 -0.00448675
v 0.01059967 -0.00458109 -0.00046186
v 0.01059967 0.00100404 0.00148111
v 0.01059967 0.00073707 0.00152762
v 0.02892955 0.00180846 0.00058087
v 0.03010440 0.00190626 0.00033299
v 0.03066789 0.00161462 0.00017343
v 0.03166434 -0.00069732 0.00012515
v 0.03152728 0.00001547 -0.00005325
v 0.03169915 0.00043751 -0.00076744
v 0.03088981 0.00190626 -0.00036059
v 0.03068748 0.00263138 -0.00065027
v 0.03075927 0.00277412 -0.00153285
v 0.03040682 0.00330717 -0.00448675
v 0.03214516 -0.00482074 -0.00448675
v 0.03107474 -0.00457580 -0.00046186
v 0.03000215 -0.00458197 -0.00046186
v 0.02785913 -0.00458373 -0.00046186
v 0.02571611 -0.00458373 -0.00046186
v 0.01059967 -0.00432910 0.00032122
v 0.01059967 -0.00033519 0.00143460
v 0.03107474 -0.00354847 0.00054613
v 0.03000215 -0.00140570 0.00058911
v 0.03000215 -0.00033519 0.00057674
v 0.03000215 0.00073707 0.00052258
v 0.03083977 0.00073707 0.00026469
v 0.03113131 -0.00033872 0.00030120
v 0.03174702 -0.00140570 0.00019051
v 0.03240624 -0.00252202 -0.00053899
v 0.03213428 -0.00140570 -0.00046186
v 0.03182317 -0.00033872 -0.00043066
v 0.03270213 -0.00290881 -0.00094760
v 0.03238013 -0.00140570 -0.00153285
v 0.03205814 -0.00033519 -0.00153285
v 0.03174267 0.00055381 -0.00153285
v 0.03153815 0.00108950 -0.00153285
v 0.03122269 0.00180846 -0.00153285
v 0.03075492 0.00277235 -0.00367600
v 0.03121834 0.00180846 -0.00367600
v 0.03075275 0.00277147 -0.00448675
v 0.03217997 -0.00480576 -0.00448675
v 0.03275217 -0.00417580 -0.00086105
v 0.03214516 -0.00447800 -0.00153285
v 0.03215822 -0.00433351 -0.00048718
v 0.03181011 -0.00424011 0.00022642
v 0.03107474 -0.00432293 0.00031179
v 0.03000215 -0.00432910 0.00032063
v 0.01059967 -0.00354142 0.00060560
v 0.03000215 -0.00354847 0.00057792
v 0.03189714 -0.00354847 0.00029413
v 0.03107474 -0.00247708 0.00051492
v 0.03107474 -0.00140570 0.00044780
v 0.03184275 -0.00247708 0.00025763
v 0.03243235 -0.00354847 -0.00032173
v 0.03275217 -0.00354847 -0.00085752
v 0.03282179 -0.00354847 -0.00153285
v 0.03271301 -0.00286035 -0.00153285
v 0.03259987 -0.00232466 -0.00153285
v 0.03242582 -0.00163125 -0.00448675
v 0.03237143 -0.00140570 -0.00448675
v 0.03213428 -0.00059511 -0.00448675
v 0.03205814 -0.00033519 -0.00367600
v 0.03174267 0.00055293 -0.00448675
v 0.03153815 0.00108862 -0.00448675
v 0.03086588 0.00253711 -0.00448675
v 0.03121616 0.00180846 -0.00448675
v 0.03281526 -0.00448153 -0.00448675
v 0.03278916 -0.00422337 -0.00153285
v 0.03282397 -0.00354847 -0.00260443
v 0.03271301 -0.00286916 -0.00367600
v 0.03282614 -0.00354847 -0.00448675
v 0.03259335 -0.00233611 -0.00448675
v 0.03271301 -0.00287269 -0.00448675
v 0.03205596 -0.00033519 -0.00448675
f 259 260 261
f 259 261 262
f 259 262 270
f 259 270 282
f 259 282 296
f 259 296 322
f 259 322 347
f 259 347 348
f 259 348 346
f 259 346 345
f 259 345 356
f 259 356 343
f 259 343 342
f 259 342 341
f 259 341 354
f 259 354 355
f 259 355 353
f 259 353 349
f 259 349 323
f 259 323 297
f 259 297 283
f 259 283 271
f 259 271 263
f 259 263 264
f 259 264 260
f 260 265 261
f 260 264 266
f 260 266 265
f 261 267 268
f 261 268 262
f 261 265 267
f 262 268 269
f 262 269 270
f 263 271 284
f 263 284 302
f 263 302 330
f 263 330 303
f 263 303 286
f 263 286 285
f 263 285 276
f 263 276 275
f 263 275 274
f 263 274 273
f 263 273 266
f 263 266 264
f 265 272 267
f 265 266 273
f 265 273 274
f 265 274 275
f 265 275 276
f 265 276 272
f 267 272 277
f 267 277 268
f 268 278 279
f 268 279 280
f 268 280 281
f 268 281 269
f 268 277 278
f 269 282 270
f 269 281 282
f 271 283 284
f 272 276 277
f 276 285 277
f 277 285 286
f 277 286 287
f 277 287 288
f 277 288 278
f 278 288 279
f 279 289 290
f 279 290 291
f 279 291 292
f 279 292 293
f 279 293 294
f 279 294 280
f 279 288 289
f 280 294 281
f 281 294 295
f 281 295 296
f 281 296 282
f 283 297 298
f 283 298 299
f 283 299 300
f 283 300 301
f 283 301 284
f 284 301 302
f 286 303 304
f 286 304 305
f 286 305 306
f 286 306 287
f 287 306 307
f 287 307 288
f 288 307 308
f 288 308 289
f 289 308 290
f 290 308 309
f 290 309 310
f 290 310 311
f 290 311 312
f 290 312 313
f 290 313 291
f 291 313 292
f 292 313 314
f 292 314 315
f 292 315 316
f 292 316 317
f 292 317 318
f 292 318 319
f 292 319 294
f 292 294 293
f 294 319 295
f 295 320 296
f 295 319 321
f 295 321 320
f 296 320 322
f 297 323 324
f 297 324 325
f 297 325 298
f 298 325 326
f 298 326 327
f 298 327 328
f 298 328 329
f 298 329 299
f 299 329 300
f 300 329 302
f 300 302 301
f 302 329 330
f 303 330 331
f 303 331 304
f 304 331 328
f 304 328 327
f 304 327 332
f 304 332 333
f 304 333 306
f 304 306 305
f 306 333 307
f 307 333 334
f 307 334 308
f 308 334 309
f 309 334 310
f 310 334 335
f 310 335 336
f 310 336 311
f 311 336 337
f 311 337 314
f 311 314 312
f 312 314 313
f 314 337 338
f 314 338 339
f 314 339 340
f 314 340 315
f 315 340 341
f 315 341 342
f 315 342 343
f 315 343 344
f 315 344 316
f 316 344 317
f 317 344 345
f 317 345 346
f 317 346 318
f 318 346 319
f 319 346 321
f 320 321 347
f 320 347 322
f 321 348 347
f 321 346 348
f 323 349 350
f 323 350 324
f 324 350 338
f 324 338 337
f 324 337 336
f 324 336 327
f 324 327 326
f 324 326 325
f 327 336 332
f 328 331 329
f 329 331 330
f 332 336 335
f 332 335 333
f 333 335 334
f 338 349 351
f 338 351 339
f 338 350 349
f 339 352 340
f 339 351 353
f 339 353 352
f 340 354 341
f 340 352 355
f 340 355 354
f 343 356 344
f 344 356 345
f 349 353 351
f 352 353 355

o geometry_3
v 0.02571477 0.00798937 -0.00689211
v 0.02571477 0.00785140 -0.00582003
v 0.02648076 0.00777585 -0.00582003
v 0.02667006 0.00784483 -0.00689211
v 0.02571477 0.00798937 -0.01117686
v 0.01059967 0.00798937 -0.00689211
v 0.01059967 0.00797458 -0.00677720
v 0.02571477 0.00770852 -0.00527748
v 0.02627606 0.00770523 -0.00527985
v 0.01059967 0.00785140 -0.00582003
v 0.01059967 0.00783662 -0.00576199
v 0.02701563 0.00759847 -0.00582003
v 0.02667006 0.00784483 -0.01117686
v 0.02720713 0.00764118 -0.00689211
v 0.02653139 0.00779721 -0.01202741
v 0.02571477 0.00784483 -0.01218496
v 0.01059967 0.00786126 -0.01207716
v 0.01059967 0.00798937 -0.01117686
v 0.02571477 0.00716652 -0.00509149
v 0.01059967 0.00770852 -0.00527748
v 0.02669427 0.00721580 -0.00513295
v 0.02755051 0.00689060 -0.00516020
v 0.02769798 0.00706305 -0.00582003
v 0.02720713 0.00764118 -0.01117686
v 0.02773320 0.00710575 -0.00689211
v 0.02773540 0.00710575 -0.01117686
v 0.02571477 0.00764118 -0.01272160
v 0.02684835 0.00757877 -0.01233067
v 0.01059967 0.00766417 -0.01266355
v 0.01059967 0.00784483 -0.01218496
v 0.02785866 0.00408374 -0.00448734
v 0.02893061 0.00404597 -0.00448734
v 0.01059967 0.00716652 -0.00509149
v 0.02983747 0.00378975 -0.00448734
v 0.02999155 0.00372734 -0.00448734
v 0.02856522 0.00578198 -0.00516375
v 0.03040756 0.00330689 -0.00448734
v 0.02823285 0.00645701 -0.00582003
v 0.02768037 0.00704334 -0.01224893
v 0.02826807 0.00648493 -0.00689211
v 0.02827027 0.00648493 -0.00903508
v 0.02827027 0.00648657 -0.01117686
v 0.02821524 0.00643894 -0.01224893
v 0.02964597 0.00345963 -0.01605866
v 0.02893061 0.00348098 -0.01608709
v 0.01059967 0.00764118 -0.01272160
v 0.02752409 0.00686268 -0.01288626
v 0.01059967 0.00408374 -0.00448734
v 0.03075314 0.00277147 -0.00448734
v 0.03042297 0.00330689 -0.00474914
v 0.03006198 0.00395071 -0.00582003
v 0.02958434 0.00466679 -0.00582003
v 0.02921235 0.00520222 -0.00582003
v 0.02867748 0.00592159 -0.00582003
v 0.03030631 0.00329539 -0.01546398
v 0.02870609 0.00594786 -0.00689211
v 0.02870609 0.00594951 -0.00903508
v 0.02870609 0.00594951 -0.01117686
v 0.02866207 0.00590352 -0.01224893
v 0.03068050 0.00261380 -0.01615461
v 0.03000255 0.00293406 -0.01624582
v 0.02893061 0.00287986 -0.01638205
v 0.01059967 0.00294392 -0.01635125
v 0.01059967 0.00348098 -0.01608709
v 0.01059967 -0.00488868 -0.00448734
v 0.03075314 0.00277147 -0.00474914
v 0.03048240 0.00331017 -0.00689211
v 0.03048020 0.00330853 -0.00582003
v 0.03121757 0.00180738 -0.00448734
v 0.03121977 0.00180738 -0.01331982
v 0.03008180 0.00395071 -0.00689211
v 0.02959975 0.00468814 -0.00689211
v 0.02924097 0.00522357 -0.00689211
v 0.03075314 0.00275997 -0.01546398
v 0.02924097 0.00522357 -0.01117686
v 0.02919694 0.00518579 -0.01224893
v 0.03086759 0.00180738 -0.01626359
v 0.03000255 0.00180738 -0.01655856
v 0.03120877 0.00180738 -0.01546398
v 0.03169081 0.00043597 -0.01610723
v 0.02893061 0.00180738 -0.01658818
v 0.01059967 0.00192235 -0.01656685
v 0.01059967 0.00287986 -0.01638205
v 0.01059967 -0.00790084 -0.00509623
v 0.03105909 -0.00491496 -0.00448734
v 0.03075094 0.00277147 -0.01224893
v 0.03048240 0.00331017 -0.01117686
v 0.03121977 0.00180738 -0.01439190
v 0.03153674 0.00108801 -0.00448734
v 0.03153894 0.00108801 -0.00582003
v 0.03153894 0.00108965 -0.00689211
v 0.03154114 0.00108965 -0.01117686
v 0.03008180 0.00395071 -0.01117686
v 0.02959975 0.00468814 -0.01117686
v 0.03048020 0.00330853 -0.01224893
v 0.03075094 0.00276982 -0.01439190
v 0.03107450 -0.00033595 -0.01652065
v 0.03182288 -0.00033595 -0.01622568
v 0.03000255 0.00073653 -0.01658818
v 0.03107450 -0.00140515 -0.01658699
v 0.03153013 0.00108965 -0.01546398
v 0.03173263 0.00055259 -0.01546398
v 0.03203639 -0.00033595 -0.01546398
v 0.03269672 -0.00293751 -0.01602430
v 0.01059967 0.00180738 -0.01658818
v 0.01059967 -0.00845926 -0.00521114
v 0.03107450 -0.00845926 -0.00521114
v 0.03107450 -0.00783514 -0.00508320
v 0.03107450 -0.00491496 -0.00448734
v 0.03154114 0.00108965 -0.01439190
v 0.03174144 0.00055259 -0.00448734
v 0.03196815 -0.00140515 -0.01629202
v 0.03107450 -0.00247764 -0.01658818
v 0.03214645 -0.00354848 -0.01633822
v 0.03173484 0.00055259 -0.01439190
v 0.03204960 -0.00033595 -0.01010715
v 0.03204299 -0.00033595 -0.01331982
v 0.03236216 -0.00140515 -0.01439190
v 0.03234455 -0.00140515 -0.01546398
v 0.03270333 -0.00290466 -0.01546398
v 0.03280018 -0.00354848 -0.01546398
v 0.03273635 -0.00354848 -0.01607643
v 0.03257786 -0.00236924 -0.01546398
v 0.01059967 -0.00247764 -0.01658818
v 0.01059967 -0.00866784 -0.00582003
v 0.03107450 -0.00866784 -0.00582003
v 0.03214645 -0.00844940 -0.00522062
v 0.03214645 -0.00481970 -0.00448734
v 0.03174144 0.00055259 -0.00689211
v 0.03173924 0.00055423 -0.01010715
v 0.03173704 0.00055423 -0.01224893
v 0.03181848 0.00033579 -0.00448734
v 0.03107450 -0.00354848 -0.01652302
v 0.01059967 -0.00343352 -0.01653013
v 0.03273855 -0.00415781 -0.01607879
v 0.03214645 -0.00424650 -0.01617356
v 0.03205620 -0.00033595 -0.00582003
v 0.03205179 -0.00033595 -0.00903508
v 0.03236436 -0.00140515 -0.01331982
v 0.03259327 -0.00237417 -0.01439190
v 0.03271213 -0.00287346 -0.00474914
v 0.03281999 -0.00354848 -0.01117686
v 0.03281779 -0.00354848 -0.01224893
v 0.03281118 -0.00354848 -0.01439190
v 0.03296306 -0.00461933 -0.01117686
v 0.03304450 -0.00569181 -0.01117686
v 0.03308632 -0.00676266 -0.01117686
v 0.01059967 -0.00868098 -0.00593494
v 0.03107450 -0.00878938 -0.00689211
v 0.03214645 -0.00864320 -0.00582003
v 0.03272534 -0.00841655 -0.00524668
v 0.03218166 -0.00480492 -0.00448734
v 0.03205620 -0.00033595 -0.00448734
v 0.03107450 -0.00429742 -0.01622805
v 0.01059967 -0.00421858 -0.01626004
v 0.01059967 -0.00354848 -0.01652302
v 0.03306431 -0.00783514 -0.01117686
v 0.03293224 -0.00783514 -0.01224893
v 0.03270113 -0.00839192 -0.01280097
v 0.03213324 -0.00059381 -0.00448734
v 0.03237316 -0.00140515 -0.00474914
v 0.03236876 -0.00140515 -0.00903508
v 0.03259327 -0.00233639 -0.00474914
v 0.03268352 -0.00274207 -0.00448734
v 0.03271213 -0.00287182 -0.00448734
v 0.03282439 -0.00354848 -0.00689211
v 0.03296306 -0.00461933 -0.00689211
v 0.03304450 -0.00569181 -0.00689211
v 0.03308632 -0.00676266 -0.00689211
v 0.01059967 -0.00878938 -0.00689211
v 0.03107450 -0.00878938 -0.01117686
v 0.03214645 -0.00875981 -0.00689211
v 0.03280458 -0.00849539 -0.00582003
v 0.03296746 -0.00783514 -0.00582003
v 0.03277596 -0.00783514 -0.00520166
v 0.03281559 -0.00448137 -0.00448734
v 0.03214645 -0.00841163 -0.01281636
v 0.03107450 -0.00842148 -0.01282466
v 0.01059967 -0.00429742 -0.01622805
v 0.03306431 -0.00783514 -0.00689211
v 0.03285961 -0.00855123 -0.01117686
v 0.03278697 -0.00847568 -0.01224893
v 0.03214645 -0.00860707 -0.01224893
v 0.03237316 -0.00140515 -0.00448734
v 0.03259327 -0.00233639 -0.00448734
v 0.03282439 -0.00354848 -0.00448734
v 0.03294545 -0.00461933 -0.00582003
v 0.03300708 -0.00569181 -0.00582003
v 0.03302249 -0.00676266 -0.00582003
v 0.01059967 -0.00878938 -0.01117686
v 0.03107450 -0.00863006 -0.01224893
v 0.03214645 -0.00875981 -0.01117686
v 0.03285961 -0.00855123 -0.00689211
v 0.01059967 -0.00860871 -0.01231053
v 0.01059967 -0.00842148 -0.01282466
v 0.01059967 -0.00863006 -0.01224893
f 357 358 359
f 357 359 360
f 357 360 369
f 357 369 361
f 357 361 374
f 357 374 362
f 357 362 363
f 357 363 358
f 358 364 365
f 358 365 359
f 358 363 366
f 358 366 367
f 358 367 364
f 359 365 368
f 359 368 360
f 360 368 370
f 360 370 380
f 360 380 369
f 361 369 371
f 361 371 372
f 361 372 373
f 361 373 374
f 362 374 373
f 362 373 386
f 362 386 385
f 362 385 402
f 362 402 420
f 362 420 419
f 362 419 439
f 362 439 438
f 362 438 461
f 362 461 480
f 362 480 490
f 362 490 512
f 362 512 511
f 362 511 535
f 362 535 551
f 362 551 550
f 362 550 552
f 362 552 546
f 362 546 526
f 362 526 504
f 362 504 481
f 362 481 462
f 362 462 440
f 362 440 421
f 362 421 404
f 362 404 389
f 362 389 376
f 362 376 367
f 362 367 366
f 362 366 363
f 364 375 365
f 364 367 376
f 364 376 389
f 364 389 375
f 365 377 378
f 365 378 368
f 365 375 377
f 368 378 379
f 368 379 370
f 369 380 371
f 370 379 381
f 370 381 382
f 370 382 380
f 371 383 372
f 371 380 384
f 371 384 383
f 372 383 385
f 372 385 386
f 372 386 373
f 375 387 388
f 375 388 377
f 375 389 404
f 375 404 387
f 377 388 390
f 377 390 391
f 377 391 378
f 378 392 379
f 378 391 393
f 378 393 392
f 379 392 394
f 379 394 381
f 380 395 384
f 380 382 395
f 381 394 396
f 381 396 397
f 381 397 398
f 381 398 382
f 382 398 399
f 382 399 395
f 383 384 400
f 383 400 401
f 383 401 420
f 383 420 402
f 383 402 385
f 384 395 403
f 384 403 400
f 387 404 421
f 387 421 441
f 387 441 465
f 387 465 484
f 387 484 508
f 387 508 532
f 387 532 542
f 387 542 521
f 387 521 520
f 387 520 541
f 387 541 540
f 387 540 516
f 387 516 509
f 387 509 488
f 387 488 467
f 387 467 445
f 387 445 425
f 387 425 405
f 387 405 393
f 387 393 391
f 387 391 390
f 387 390 388
f 392 393 394
f 393 405 406
f 393 406 407
f 393 407 408
f 393 408 409
f 393 409 410
f 393 410 394
f 394 410 396
f 395 399 411
f 395 411 403
f 396 410 412
f 396 412 397
f 397 412 398
f 398 412 413
f 398 413 414
f 398 414 415
f 398 415 399
f 399 415 430
f 399 430 411
f 400 411 416
f 400 416 417
f 400 417 418
f 400 418 401
f 400 403 411
f 401 418 419
f 401 419 420
f 405 422 443
f 405 443 423
f 405 423 424
f 405 424 406
f 405 425 426
f 405 426 444
f 405 444 422
f 406 424 407
f 407 424 427
f 407 427 428
f 407 428 408
f 408 428 429
f 408 429 409
f 409 429 412
f 409 412 410
f 411 430 416
f 412 429 413
f 413 429 431
f 413 431 414
f 414 431 432
f 414 432 415
f 415 432 430
f 416 433 434
f 416 434 417
f 416 430 435
f 416 435 436
f 416 436 433
f 417 434 418
f 418 434 437
f 418 437 438
f 418 438 439
f 418 439 419
f 421 440 441
f 422 442 443
f 422 444 442
f 423 443 449
f 423 449 427
f 423 427 424
f 425 445 446
f 425 446 447
f 425 447 448
f 425 448 426
f 426 448 466
f 426 466 444
f 427 449 450
f 427 450 428
f 428 450 431
f 428 431 429
f 430 451 443
f 430 443 452
f 430 452 444
f 430 444 435
f 430 432 431
f 430 431 450
f 430 450 451
f 433 453 434
f 433 436 454
f 433 454 453
f 434 455 437
f 434 453 456
f 434 456 455
f 435 444 466
f 435 466 457
f 435 457 436
f 436 458 459
f 436 459 460
f 436 460 454
f 436 457 458
f 437 455 469
f 437 469 480
f 437 480 461
f 437 461 438
f 440 462 463
f 440 463 464
f 440 464 465
f 440 465 441
f 442 452 443
f 442 444 452
f 443 451 449
f 445 467 446
f 446 467 447
f 447 467 448
f 448 467 485
f 448 485 466
f 449 451 450
f 453 454 468
f 453 468 456
f 454 460 468
f 455 456 469
f 456 468 470
f 456 470 469
f 457 466 458
f 458 466 471
f 458 471 494
f 458 494 472
f 458 472 473
f 458 473 459
f 459 473 474
f 459 474 475
f 459 475 460
f 460 476 477
f 460 477 478
f 460 478 468
f 460 475 479
f 460 479 476
f 462 481 482
f 462 482 463
f 463 482 483
f 463 483 464
f 464 483 465
f 465 483 484
f 466 485 486
f 466 486 487
f 466 487 471
f 467 488 485
f 468 478 470
f 469 470 489
f 469 489 490
f 469 490 480
f 470 478 491
f 470 491 492
f 470 492 489
f 471 487 493
f 471 493 494
f 472 494 495
f 472 495 474
f 472 474 473
f 474 495 496
f 474 496 479
f 474 479 475
f 476 497 498
f 476 498 499
f 476 499 500
f 476 500 477
f 476 479 496
f 476 496 497
f 477 491 478
f 477 500 501
f 477 501 502
f 477 502 503
f 477 503 491
f 481 504 482
f 482 505 506
f 482 506 483
f 482 504 505
f 483 506 507
f 483 507 484
f 484 507 508
f 485 488 493
f 485 493 486
f 486 493 487
f 488 509 493
f 489 492 510
f 489 510 511
f 489 511 512
f 489 512 490
f 491 503 513
f 491 513 514
f 491 514 515
f 491 515 492
f 492 515 510
f 493 509 516
f 493 516 517
f 493 517 518
f 493 518 495
f 493 495 494
f 495 518 496
f 496 518 517
f 496 517 519
f 496 519 520
f 496 520 521
f 496 521 497
f 497 521 498
f 498 522 501
f 498 501 499
f 498 521 522
f 499 501 500
f 501 522 542
f 501 542 523
f 501 523 524
f 501 524 502
f 502 524 525
f 502 525 503
f 503 525 536
f 503 536 513
f 504 526 505
f 505 527 548
f 505 548 528
f 505 528 506
f 505 526 546
f 505 546 527
f 506 528 529
f 506 529 507
f 507 529 530
f 507 530 531
f 507 531 532
f 507 532 508
f 510 515 533
f 510 533 534
f 510 534 551
f 510 551 535
f 510 535 511
f 513 536 549
f 513 549 537
f 513 537 538
f 513 538 514
f 514 538 515
f 515 538 539
f 515 539 533
f 516 540 517
f 517 540 541
f 517 541 519
f 519 541 520
f 521 542 522
f 523 542 543
f 523 543 524
f 524 543 544
f 524 544 525
f 525 544 545
f 525 545 536
f 527 547 539
f 527 539 548
f 527 546 552
f 527 552 547
f 528 548 537
f 528 537 549
f 528 549 529
f 529 549 536
f 529 536 530
f 530 536 545
f 530 545 532
f 530 532 531
f 532 545 542
f 533 539 547
f 533 547 534
f 534 547 550
f 534 550 551
f 537 548 538
f 538 548 539
f 542 545 544
f 542 544 543
f 547 552 550

o geometry_4
v -0.00940092 -0.00222416 -0.00449524
v -0.00932418 -0.00140487 -0.00449524
v -0.00939884 -0.00247625 -0.00449524
v -0.01058938 -0.00318809 0.00061159
v -0.01058938 -0.00033349 0.00061159
v -0.01036745 0.00073788 -0.00018457
v -0.00928891 -0.00124060 -0.00449524
v -0.01027826 0.00180823 -0.00007033
v -0.00934284 -0.00323045 -0.00449524
v -0.01058938 -0.00318809 0.00489544
v -0.00930343 -0.00338026 -0.00449524
v -0.00855053 -0.00445577 -0.00449524
v -0.00848831 -0.00452085 -0.00449524
v -0.00855053 -0.00459421 -0.00082336
v -0.01058938 -0.00033349 0.00489544
v -0.01055412 0.00073788 0.00061159
v -0.00916447 -0.00070750 -0.00449524
v -0.01019530 0.00238059 0.00004507
v -0.01037575 0.00180823 0.00061159
v -0.01051056 -0.00318809 0.00596670
v -0.00840742 -0.00455082 -0.00449524
v -0.00750104 -0.00491448 -0.00082336
v -0.01030730 -0.00318809 0.00666261
v -0.01055412 0.00073788 0.00489544
v -0.01051056 -0.00033349 0.00596670
v -0.01047945 0.00073788 0.00596670
v -0.00902550 -0.00029940 -0.00449524
v -0.01020567 0.00239816 0.00061159
v -0.00991322 0.00293333 0.00061159
v -0.00938018 0.00373402 0.00061159
v -0.00928684 0.00362760 -0.00011579
v -0.00799260 0.00226385 -0.00449524
v -0.00825601 0.00172764 -0.00449524
v -0.00856920 0.00097034 -0.00449524
v -0.00866461 0.00073582 -0.00449524
v -0.00890728 0.00004154 -0.00449524
v -0.01037575 0.00180823 0.00489544
v -0.00750104 -0.00480600 -0.00449524
v -0.00857335 -0.00318809 0.00738882
v -0.00963529 -0.00318809 0.00714054
v -0.00746993 -0.00480910 -0.00449524
v -0.00642872 -0.00488866 -0.00449524
v -0.00643495 -0.00495994 -0.00082336
v -0.01030730 -0.00033349 0.00665445
v -0.01029693 0.00186608 0.00596553
v -0.01044004 0.00001778 0.00618701
v -0.01029071 0.00073788 0.00663813
v -0.01024508 0.00154891 0.00658334
v -0.01020567 0.00239816 0.00489544
v -0.00991322 0.00293333 0.00489544
v -0.00938018 0.00373402 0.00489544
v -0.00886165 0.00427022 0.00061159
v -0.00822905 0.00461943 -0.00009132
v -0.00744089 0.00292816 -0.00449524
v -0.01019530 0.00238059 0.00560767
v -0.00642872 0.00395098 0.00717084
v -0.00857335 0.00287857 0.00711489
v -0.00964566 0.00073788 0.00701231
v -0.00535849 -0.00496511 -0.00082336
v -0.00107131 -0.00318809 0.00741330
v -0.00214155 0.00395098 0.00724311
v -0.01030315 0.00001778 0.00664862
v -0.00535849 -0.00489382 -0.00449524
v -0.01015382 0.00226281 0.00632223
v -0.00973692 0.00186608 0.00684212
v -0.00944655 0.00287857 0.00676519
v -0.00991322 0.00279385 0.00596553
v -0.00933247 0.00368133 0.00596670
v -0.00886165 0.00427022 0.00489544
v -0.00832238 0.00468658 0.00061159
v -0.00750104 0.00511328 0.00061159
v -0.00642250 0.00383630 -0.00449524
v -0.00668591 0.00361211 -0.00449524
v -0.00642872 0.00489941 0.00684329
v -0.00750104 0.00395098 0.00709740
v -0.00535849 0.00496657 0.00686893
v -0.00853601 0.00392928 0.00676985
v -0.00214362 -0.00496511 -0.00082336
v 0.00106916 -0.00318809 0.00741330
v -0.00428617 0.00497587 0.00687010
v 0.00213940 0.00395098 0.00724311
v 0.01059967 -0.00489382 -0.00449524
v -0.00922669 0.00355838 0.00661482
v -0.00880565 0.00421753 0.00596670
v -0.00826638 0.00464526 0.00596670
v -0.00832238 0.00468658 0.00489544
v -0.00750104 0.00512154 0.00168168
v -0.00642872 0.00544802 0.00061159
v -0.00540619 0.00407289 -0.00449524
v -0.00642872 0.00538396 0.00596670
v -0.00750104 0.00472274 0.00672439
v -0.00428617 0.00551207 0.00613339
v -0.00544975 0.00551311 0.00592590
v -0.00815438 0.00456467 0.00658684
v 0.00535426 -0.00494961 -0.00082336
v 0.00214148 -0.00318809 0.00738416
v 0.00642658 0.00395098 0.00716152
v 0.00428195 0.00497587 0.00687010
v 0.00535426 0.00496450 0.00686777
v 0.01059967 0.00408839 -0.00449524
v 0.01059967 -0.00458284 -0.00082336
v 0.00642450 -0.00493928 -0.00082336
v -0.00750104 0.00504095 0.00596670
v -0.00750104 0.00512154 0.00489544
v -0.00642872 0.00545525 0.00168168
v -0.00585212 0.00555753 0.00061159
v -0.00515315 0.00556786 0.00005673
v -0.00535849 0.00408012 -0.00449524
v -0.00642872 0.00545525 0.00489544
v -0.00585212 0.00555753 0.00489544
v -0.00428617 0.00557303 0.00559718
v -0.00515315 0.00556786 0.00554240
v 0.00428195 0.00551207 0.00613339
v 0.00790749 -0.00318809 0.00696802
v 0.00856913 -0.00140591 0.00698667
v 0.00856913 0.00180823 0.00708575
v 0.00642658 0.00488598 0.00683513
v 0.00856913 0.00287857 0.00707526
v 0.00749681 0.00395098 0.00707059
v 0.00820201 0.00460910 0.00596670
v 0.01059967 0.00359661 -0.00035243
v -0.00434632 0.00408839 -0.00449524
v 0.00428195 0.00557303 0.00004740
v 0.00507011 0.00556786 0.00005673
v 0.00573383 0.00555030 0.00061159
v 0.00642658 0.00542529 0.00061159
v 0.00642658 0.00543252 0.00168168
v 0.00642658 0.00543252 0.00489544
v 0.00749681 0.00506472 0.00489544
v 0.01059967 -0.00318809 0.00063024
v 0.01016619 -0.00081081 0.00642831
v 0.00928262 -0.00222313 0.00666261
v 0.00906276 -0.00295460 0.00596670
v 0.00889269 -0.00318809 0.00596670
v 0.00875994 -0.00318809 0.00625346
v 0.00841772 -0.00318809 0.00675120
v -0.00531908 0.00557303 0.00061159
v -0.00428617 0.00558852 0.00061159
v -0.00428617 0.00557303 0.00004740
v -0.00531908 0.00557303 0.00489544
v -0.00428617 0.00558852 0.00489544
v 0.00428195 0.00557303 0.00559718
v 0.00539989 0.00550897 0.00592590
v 0.00507011 0.00556786 0.00554240
v 0.00864379 -0.00253927 0.00685261
v 0.00949833 -0.00140591 0.00680599
v 0.00964144 0.00073788 0.00694237
v 0.00642658 0.00535813 0.00596670
v 0.00749681 0.00469485 0.00669875
v 0.00850898 0.00390139 0.00673255
v 0.00970366 0.00177103 0.00680599
v 0.00937595 0.00287857 0.00672788
v 0.00811075 0.00454194 0.00656119
v 0.00749681 0.00498413 0.00596670
v 0.00873713 0.00414625 0.00596670
v 0.01059967 0.00351912 0.00023507
v 0.00428195 0.00558852 0.00061159
v 0.00519663 0.00557303 0.00061159
v 0.00573383 0.00555236 0.00168168
v 0.00573383 0.00555236 0.00489544
v 0.01059967 -0.00033349 0.00143689
v 0.01034249 0.00073788 0.00596670
v 0.01029686 0.00001778 0.00600633
v 0.01026989 -0.00040478 0.00602965
v 0.01021804 -0.00009690 0.00655537
v 0.00428195 0.00558852 0.00489544
v 0.00519663 0.00557303 0.00489544
v 0.00970574 0.00001778 0.00687126
v 0.00974307 -0.00040478 0.00682930
v 0.01022011 0.00001778 0.00655770
v 0.01022841 0.00073788 0.00656819
v 0.01020352 0.00138980 0.00653672
v 0.00918306 0.00351086 0.00658101
v 0.00926603 0.00361107 0.00596670
v 0.00972855 0.00287857 0.00596670
v 0.01010189 0.00209854 0.00596670
v 0.01024915 0.00156234 0.00596670
v 0.01059967 0.00343751 0.00030152
v 0.01059967 0.00073788 0.00152781
v 0.01040678 0.00073788 0.00489544
v 0.01059967 0.00183406 0.00124455
v 0.01059967 0.00271637 0.00078411
v 0.01059967 0.00278972 0.00073981
v 0.01059967 0.00100443 0.00148118
f 553 554 559
f 553 559 569
f 553 569 579
f 553 579 588
f 553 588 587
f 553 587 586
f 553 586 585
f 553 585 584
f 553 584 606
f 553 606 625
f 553 625 624
f 553 624 641
f 553 641 660
f 553 660 674
f 553 674 652
f 553 652 634
f 553 634 615
f 553 615 594
f 553 594 593
f 553 593 590
f 553 590 573
f 553 573 565
f 553 565 564
f 553 564 563
f 553 563 561
f 553 561 555
f 553 555 556
f 553 556 557
f 553 557 558
f 553 558 554
f 554 558 560
f 554 560 559
f 555 561 556
f 556 562 567
f 556 567 557
f 556 561 563
f 556 563 564
f 556 564 565
f 556 565 566
f 556 566 562
f 557 567 576
f 557 576 568
f 557 568 558
f 558 568 560
f 559 560 570
f 559 570 569
f 560 568 571
f 560 571 570
f 562 572 577
f 562 577 567
f 562 566 572
f 565 573 566
f 566 573 574
f 566 574 575
f 566 575 572
f 567 577 578
f 567 578 576
f 568 576 589
f 568 589 571
f 569 570 579
f 570 571 580
f 570 580 581
f 570 581 582
f 570 582 583
f 570 583 584
f 570 584 585
f 570 585 586
f 570 586 587
f 570 587 588
f 570 588 579
f 571 589 601
f 571 601 580
f 572 575 577
f 573 590 574
f 574 591 592
f 574 592 575
f 574 590 593
f 574 593 594
f 574 594 595
f 574 595 591
f 575 592 596
f 575 596 577
f 576 578 597
f 576 597 589
f 577 598 578
f 577 596 598
f 578 598 599
f 578 599 600
f 578 600 597
f 580 601 602
f 580 602 581
f 581 602 603
f 581 603 582
f 582 603 621
f 582 621 604
f 582 604 583
f 583 604 605
f 583 605 606
f 583 606 584
f 589 597 607
f 589 607 601
f 591 608 609
f 591 609 610
f 591 610 592
f 591 595 611
f 591 611 612
f 591 612 613
f 591 613 608
f 592 610 599
f 592 599 614
f 592 614 596
f 594 615 595
f 595 615 611
f 596 614 598
f 597 600 616
f 597 616 607
f 598 614 599
f 599 610 600
f 600 610 617
f 600 617 618
f 600 618 616
f 601 607 602
f 602 607 619
f 602 619 620
f 602 620 603
f 603 620 621
f 604 621 638
f 604 638 622
f 604 622 605
f 605 622 623
f 605 623 624
f 605 624 625
f 605 625 606
f 607 616 619
f 608 626 627
f 608 627 609
f 608 613 628
f 608 628 626
f 609 627 629
f 609 629 618
f 609 618 617
f 609 617 610
f 611 630 631
f 611 631 612
f 611 615 634
f 611 634 630
f 612 631 633
f 612 633 613
f 613 632 628
f 613 633 650
f 613 650 632
f 616 618 635
f 616 635 619
f 618 629 635
f 619 635 620
f 620 635 636
f 620 636 621
f 621 636 637
f 621 637 638
f 622 638 656
f 622 656 639
f 622 639 623
f 623 639 640
f 623 640 624
f 624 640 641
f 626 642 643
f 626 643 627
f 626 628 644
f 626 644 645
f 626 645 642
f 627 643 629
f 628 632 644
f 629 643 646
f 629 646 635
f 630 647 631
f 630 634 647
f 631 647 648
f 631 648 649
f 631 649 633
f 632 650 665
f 632 665 644
f 633 649 651
f 633 651 650
f 634 652 673
f 634 673 708
f 634 708 730
f 634 730 735
f 634 735 734
f 634 734 733
f 634 733 736
f 634 736 731
f 634 731 713
f 634 713 682
f 634 682 653
f 634 653 654
f 634 654 647
f 635 646 636
f 636 646 637
f 637 646 655
f 637 655 656
f 637 656 638
f 639 656 661
f 639 661 657
f 639 657 640
f 640 657 658
f 640 658 659
f 640 659 641
f 641 659 660
f 642 661 656
f 642 656 655
f 642 655 643
f 642 645 662
f 642 662 661
f 643 655 646
f 644 663 664
f 644 664 645
f 644 665 694
f 644 694 663
f 645 664 662
f 647 654 648
f 648 654 666
f 648 666 667
f 648 667 668
f 648 668 649
f 649 669 651
f 649 668 670
f 649 670 671
f 649 671 669
f 650 651 665
f 651 669 665
f 652 672 673
f 652 674 691
f 652 691 675
f 652 675 676
f 652 676 677
f 652 677 678
f 652 678 679
f 652 679 680
f 652 680 681
f 652 681 672
f 653 682 683
f 653 683 684
f 653 684 685
f 653 685 686
f 653 686 687
f 653 687 688
f 653 688 666
f 653 666 654
f 657 661 662
f 657 662 658
f 658 662 692
f 658 692 689
f 658 689 659
f 659 689 690
f 659 690 691
f 659 691 660
f 660 691 674
f 662 664 692
f 663 693 664
f 663 694 718
f 663 718 693
f 664 693 692
f 665 669 695
f 665 695 696
f 665 696 694
f 666 688 697
f 666 697 698
f 666 698 667
f 667 698 699
f 667 699 668
f 668 699 670
f 669 700 695
f 669 671 701
f 669 701 700
f 670 702 671
f 670 699 703
f 670 703 704
f 670 704 702
f 671 702 705
f 671 705 701
f 672 706 705
f 672 705 707
f 672 707 708
f 672 708 673
f 672 681 706
f 675 691 690
f 675 690 709
f 675 709 676
f 676 709 710
f 676 710 677
f 677 710 711
f 677 711 679
f 677 679 678
f 679 711 712
f 679 712 680
f 680 700 681
f 680 712 700
f 681 700 706
f 682 713 714
f 682 714 715
f 682 715 716
f 682 716 683
f 683 716 717
f 683 717 698
f 683 698 684
f 684 698 697
f 684 697 688
f 684 688 687
f 684 687 686
f 684 686 685
f 689 692 693
f 689 693 690
f 690 693 718
f 690 718 709
f 694 696 718
f 695 700 712
f 695 712 696
f 696 712 719
f 696 719 718
f 698 720 699
f 698 717 721
f 698 721 720
f 699 720 717
f 699 717 722
f 699 722 723
f 699 723 724
f 699 724 703
f 700 701 705
f 700 705 706
f 702 704 725
f 702 725 705
f 703 724 704
f 704 724 725
f 705 725 707
f 707 725 726
f 707 726 708
f 708 726 727
f 708 727 728
f 708 728 729
f 708 729 714
f 708 714 730
f 709 718 719
f 709 719 710
f 710 719 712
f 710 712 711
f 713 731 732
f 713 732 714
f 714 723 722
f 714 722 717
f 714 717 715
f 714 732 733
f 714 733 734
f 714 734 735
f 714 735 730
f 714 729 724
f 714 724 723
f 715 717 716
f 717 720 721
f 724 729 728
f 724 728 725
f 725 728 727
f 725 727 726
f 731 736 732
f 732 736 733

o geometry_5
v 0.01059967 -0.00318924 0.00062953
v 0.01059967 -0.00354245 0.00060621
v 0.01059967 -0.00318924 -0.00082238
v 0.00889269 -0.00318924 0.00596710
v 0.01059967 -0.00433054 0.00032270
v 0.01059967 -0.00458500 -0.00082238
v -0.00966225 -0.00318924 -0.00082238
v 0.00875994 -0.00318924 0.00625429
v 0.00595990 -0.00639094 0.00978649
v 0.01059967 -0.00458310 -0.00046032
v 0.00577738 -0.00710496 0.00942321
v 0.00590805 -0.00732335 0.00870891
v -0.00286749 -0.01925281 0.01171459
v 0.00642658 -0.00494201 -0.00082238
v -0.00457240 -0.02157148 0.01171459
v -0.00457240 -0.02157148 0.00061112
v -0.00506189 -0.02210700 0.00061112
v -0.00465537 -0.02145754 -0.00010808
v -0.00534812 -0.02179556 -0.00026273
v -0.00535849 -0.02069415 -0.00058796
v -0.00643080 -0.02069415 -0.00062724
v -0.00957929 -0.00349118 -0.00082238
v -0.00857335 -0.02069415 -0.00062724
v -0.00964566 -0.01962312 -0.00055114
v -0.01038404 -0.01962312 -0.00020013
v -0.01038404 -0.00318924 -0.00020013
v 0.00841772 -0.00318924 0.00675135
v 0.00596405 -0.00569401 0.00979017
v 0.00535426 -0.00569401 0.01005650
v 0.00539367 -0.00675555 0.00995831
v -0.00197977 -0.01748295 0.01171459
v -0.00206481 -0.01781717 0.01171459
v -0.00240704 -0.01847802 0.01171459
v -0.00271400 -0.01901544 0.01171459
v -0.00331964 -0.01986998 0.01171459
v -0.00364113 -0.02030865 0.01171459
v 0.00535426 -0.00495151 -0.00082238
v -0.00506189 -0.02210700 0.01171459
v -0.00559908 -0.02244502 0.00061112
v -0.00569656 -0.02239754 -0.00007127
v -0.00643080 -0.02176518 -0.00049469
v -0.00214362 -0.00496670 -0.00082238
v -0.00855053 -0.00459639 -0.00082238
v -0.00750311 -0.00491543 -0.00082238
v -0.00643080 -0.00496290 -0.00082238
v -0.00535849 -0.00496670 -0.00082238
v -0.00750311 -0.02176518 -0.00049469
v -0.00857335 -0.02176518 -0.00048855
v -0.00964566 -0.02069415 -0.00052537
v -0.01036330 -0.02069415 -0.00017436
v -0.01058938 -0.01962312 0.00061112
v -0.01058938 -0.00318924 0.00061112
v 0.00790749 -0.00318924 0.00696736
v 0.00428403 -0.00412924 0.00963062
v 0.00535426 -0.00488694 0.00987240
v 0.00591842 -0.00511482 0.00974599
v -0.00208140 -0.00456981 0.01171459
v -0.00197147 -0.00490593 0.01171459
v -0.00172673 -0.00569401 0.01171459
v -0.00171636 -0.00673846 0.01171459
v -0.00171636 -0.00676504 0.01171459
v -0.00172466 -0.01426416 0.01171459
v -0.00173088 -0.01533709 0.01171459
v -0.00176199 -0.01640812 0.01171459
v -0.00176406 -0.01646319 0.01171459
v -0.00559908 -0.02244502 0.01171459
v -0.00643080 -0.02258934 0.00061112
v -0.00643080 -0.02244502 -0.00014368
v -0.00750311 -0.02244502 -0.00014368
v -0.00857335 -0.02244122 -0.00013754
v -0.00924121 -0.02239184 -0.00006390
v -0.00961662 -0.02174239 -0.00023818
v -0.01028863 -0.02137019 -0.00007495
v -0.01054582 -0.02069415 0.00061112
v -0.01058938 -0.01962312 0.01171459
v -0.01056241 -0.02030675 0.01171459
v -0.01058938 -0.00318924 0.00489689
v 0.00214148 -0.00318924 0.00738587
v -0.00428825 -0.00381211 0.01171459
v -0.00360379 -0.00384629 0.01171459
v -0.00321801 -0.00390516 0.01171459
v -0.00271815 -0.00398872 0.01171459
v -0.00256674 -0.00404759 0.01171459
v -0.00643080 -0.02258934 0.01171459
v -0.00750311 -0.02258934 0.00061112
v -0.00857335 -0.02257985 0.00061112
v -0.00930551 -0.02243742 0.00061112
v -0.00984270 -0.02197596 0.00061112
v -0.01034256 -0.02144045 0.00061112
v -0.01041723 -0.02116889 0.01171459
v -0.01054582 -0.02069415 0.01171459
v -0.01058938 -0.00676504 0.01171459
v -0.01054375 -0.00569401 0.01171459
v -0.01051056 -0.00318924 0.00596710
v 0.00106916 -0.00318924 0.00741287
v -0.00750311 -0.00381211 0.01171459
v -0.00750311 -0.02258934 0.01171459
v -0.00818549 -0.02258364 0.01171459
v -0.00857335 -0.02257985 0.01171459
v -0.00930551 -0.02243742 0.01171459
v -0.00950047 -0.02227031 0.01171459
v -0.00984270 -0.02197596 0.01171459
v -0.01016211 -0.02163415 0.01171459
v -0.01034256 -0.02144045 0.01171459
v -0.01034049 -0.00495341 0.01171459
v -0.01030730 -0.00318924 0.00666421
v -0.00107339 -0.00318924 0.00741287
v -0.00857335 -0.00318924 0.00738955
v -0.00789097 -0.00381401 0.01171459
v -0.00983441 -0.00441789 0.01171459
v -0.00963529 -0.00318924 0.00714164
v -0.00929928 -0.00395644 0.01171459
v -0.00883676 -0.00386908 0.01171459
v -0.00857335 -0.00381971 0.01171459
f 737 738 741
f 737 741 746
f 737 746 742
f 737 742 739
f 737 739 743
f 737 743 762
f 737 762 788
f 737 788 813
f 737 813 830
f 737 830 842
f 737 842 847
f 737 847 844
f 737 844 843
f 737 843 831
f 737 831 814
f 737 814 789
f 737 789 763
f 737 763 744
f 737 744 740
f 737 740 738
f 738 740 741
f 739 742 750
f 739 750 773
f 739 773 778
f 739 778 782
f 739 782 781
f 739 781 780
f 739 780 779
f 739 779 758
f 739 758 743
f 740 744 745
f 740 745 741
f 741 745 747
f 741 747 748
f 741 748 749
f 741 749 746
f 742 746 751
f 742 751 752
f 742 752 753
f 742 753 754
f 742 754 755
f 742 755 756
f 742 756 757
f 742 757 750
f 743 758 759
f 743 759 760
f 743 760 761
f 743 761 762
f 744 763 745
f 745 763 764
f 745 764 765
f 745 765 766
f 745 766 767
f 745 767 768
f 745 768 769
f 745 769 770
f 745 770 747
f 746 749 771
f 746 771 772
f 746 772 751
f 747 770 748
f 748 770 749
f 749 770 769
f 749 769 768
f 749 768 767
f 749 767 801
f 749 801 800
f 749 800 799
f 749 799 798
f 749 798 797
f 749 797 796
f 749 796 795
f 749 795 794
f 749 794 793
f 749 793 819
f 749 819 818
f 749 818 817
f 749 817 816
f 749 816 815
f 749 815 832
f 749 832 845
f 749 845 850
f 749 850 849
f 749 849 848
f 749 848 846
f 749 846 841
f 749 841 829
f 749 829 828
f 749 828 811
f 749 811 812
f 749 812 827
f 749 827 826
f 749 826 840
f 749 840 839
f 749 839 838
f 749 838 837
f 749 837 836
f 749 836 835
f 749 835 834
f 749 834 833
f 749 833 820
f 749 820 802
f 749 802 774
f 749 774 751
f 749 751 772
f 749 772 771
f 750 757 773
f 751 774 753
f 751 753 752
f 753 774 802
f 753 802 775
f 753 775 776
f 753 776 754
f 754 776 755
f 755 776 777
f 755 777 756
f 756 777 757
f 757 777 783
f 757 783 759
f 757 759 782
f 757 782 778
f 757 778 773
f 758 779 759
f 759 779 780
f 759 780 781
f 759 781 782
f 759 783 784
f 759 784 785
f 759 785 760
f 760 785 761
f 761 785 786
f 761 786 787
f 761 787 788
f 761 788 762
f 763 789 790
f 763 790 791
f 763 791 792
f 763 792 764
f 764 792 765
f 765 792 791
f 765 791 793
f 765 793 794
f 765 794 795
f 765 795 796
f 765 796 797
f 765 797 798
f 765 798 799
f 765 799 800
f 765 800 801
f 765 801 767
f 765 767 766
f 775 802 820
f 775 820 803
f 775 803 776
f 776 803 804
f 776 804 777
f 777 804 805
f 777 805 783
f 783 805 784
f 784 806 807
f 784 807 808
f 784 808 785
f 784 805 806
f 785 809 786
f 785 808 809
f 786 809 810
f 786 810 787
f 787 811 828
f 787 828 813
f 787 813 788
f 787 810 812
f 787 812 811
f 789 814 815
f 789 815 816
f 789 816 817
f 789 817 818
f 789 818 790
f 790 818 819
f 790 819 791
f 791 819 793
f 803 820 833
f 803 833 821
f 803 821 805
f 803 805 804
f 805 821 806
f 806 821 822
f 806 822 807
f 807 822 823
f 807 823 824
f 807 824 809
f 807 809 808
f 809 824 825
f 809 825 810
f 810 825 826
f 810 826 827
f 810 827 812
f 813 829 830
f 813 828 829
f 814 831 815
f 815 831 843
f 815 843 832
f 821 834 822
f 821 833 834
f 822 835 836
f 822 836 823
f 822 834 835
f 823 836 837
f 823 837 824
f 824 838 839
f 824 839 825
f 824 837 838
f 825 839 840
f 825 840 826
f 829 841 830
f 830 841 842
f 832 844 845
f 832 843 844
f 841 846 842
f 842 846 848
f 842 848 849
f 842 849 850
f 842 850 847
f 844 847 850
f 844 850 845

o geometry_6
v 0.01059967 0.00405950 -0.01355579
v 0.01059967 -0.00490435 -0.01355579
v 0.01059967 0.00348127 -0.01608812
v -0.00535879 0.00405950 -0.01355579
v 0.01059967 -0.00455074 -0.01546394
v -0.00750268 -0.00490435 -0.01355579
v 0.01059967 0.00288023 -0.01638268
v -0.00642974 0.00348127 -0.01608812
v -0.00703601 0.00345934 -0.01605872
v -0.00643173 0.00393666 -0.01355579
v 0.01059967 -0.00429804 -0.01622887
v -0.00857362 -0.00455074 -0.01546394
v -0.00857362 -0.00488592 -0.01355579
v 0.01059967 0.00180801 -0.01658936
v -0.00642974 0.00288023 -0.01638268
v -0.00725937 0.00288023 -0.01619145
v -0.00818274 0.00157988 -0.01615760
v -0.00799129 0.00226340 -0.01546394
v -0.00757248 0.00288023 -0.01546394
v -0.00708387 0.00349180 -0.01546394
v -0.00711379 0.00357252 -0.01355579
v 0.01059967 -0.00421820 -0.01626035
v -0.00857362 -0.00429804 -0.01622887
v -0.00858360 -0.00488329 -0.01355579
v -0.00943317 -0.00431735 -0.01546394
v -0.00930952 -0.00422697 -0.01615256
v 0.01059967 -0.00247737 -0.01658936
v -0.00642974 0.00180801 -0.01658936
v -0.00758843 0.00188522 -0.01633013
v -0.00833630 0.00073666 -0.01626539
v -0.00923573 -0.00140603 -0.01615641
v -0.00914599 -0.00076375 -0.01605279
v -0.00825453 0.00172816 -0.01546394
v -0.00769413 0.00274335 -0.01355579
v -0.00760439 0.00288023 -0.01355579
v -0.00799527 0.00225550 -0.01439257
v -0.00722148 0.00343565 -0.01355579
v 0.01059967 -0.00354872 -0.01652344
v -0.00857362 -0.00354872 -0.01652344
v -0.00950297 -0.00455601 -0.01355579
v -0.00973830 -0.00354872 -0.01546394
v -0.00941323 -0.00354872 -0.01626154
v 0.01059967 -0.00343465 -0.01653056
v -0.00750268 -0.00247737 -0.01658936
v -0.00750268 -0.00033468 -0.01658936
v -0.00750268 0.00073666 -0.01656026
v -0.00857362 -0.00140603 -0.01645128
v -0.00936138 -0.00247737 -0.01626421
v -0.00961465 -0.00247737 -0.01546394
v -0.00936138 -0.00140603 -0.01546394
v -0.00916394 -0.00071022 -0.01546394
v -0.00864741 0.00073666 -0.01546394
v -0.00825653 0.00171851 -0.01355579
v -0.00866337 0.00073666 -0.01439257
v -0.00866337 0.00073666 -0.01355579
v -0.00799328 0.00225462 -0.01355579
v -0.00857362 -0.00247737 -0.01655878
v -0.00977420 -0.00354872 -0.01355579
v -0.00976024 -0.00354872 -0.01439257
v -0.00961266 -0.00247737 -0.01355579
v -0.00936138 -0.00140603 -0.01355579
v -0.00920781 -0.00086202 -0.01355579
v -0.00916394 -0.00071022 -0.01355579
v -0.00898246 -0.00017499 -0.01439257
v -0.00873516 0.00053661 -0.01355579
v -0.00898246 -0.00017499 -0.01355579
f 851 852 855
f 851 855 861
f 851 861 872
f 851 872 888
f 851 888 893
f 851 893 877
f 851 877 864
f 851 864 857
f 851 857 853
f 851 853 858
f 851 858 854
f 851 854 860
f 851 860 871
f 851 871 887
f 851 887 885
f 851 885 884
f 851 884 906
f 851 906 903
f 851 903 905
f 851 905 915
f 851 915 916
f 851 916 913
f 851 913 912
f 851 912 911
f 851 911 910
f 851 910 908
f 851 908 890
f 851 890 874
f 851 874 863
f 851 863 856
f 851 856 852
f 852 856 862
f 852 862 855
f 853 857 865
f 853 865 858
f 854 858 859
f 854 859 860
f 855 862 873
f 855 873 861
f 856 863 862
f 857 864 878
f 857 878 865
f 858 865 859
f 859 866 867
f 859 867 868
f 859 868 869
f 859 869 870
f 859 870 860
f 859 865 866
f 860 870 871
f 861 873 872
f 862 863 874
f 862 874 875
f 862 875 876
f 862 876 873
f 864 877 894
f 864 894 895
f 864 895 878
f 865 878 879
f 865 879 866
f 866 879 867
f 867 880 881
f 867 881 882
f 867 882 883
f 867 883 868
f 867 879 880
f 868 884 885
f 868 885 869
f 868 883 886
f 868 886 884
f 869 885 887
f 869 887 871
f 869 871 870
f 872 873 889
f 872 889 888
f 873 876 889
f 874 890 875
f 875 890 891
f 875 891 876
f 876 891 892
f 876 892 889
f 877 893 894
f 878 895 896
f 878 896 879
f 879 896 880
f 880 897 898
f 880 898 881
f 880 896 897
f 881 898 899
f 881 899 882
f 882 899 900
f 882 900 901
f 882 901 902
f 882 902 883
f 883 903 886
f 883 902 904
f 883 904 905
f 883 905 903
f 884 886 906
f 886 903 906
f 888 889 893
f 889 892 907
f 889 907 894
f 889 894 893
f 890 908 909
f 890 909 891
f 891 909 899
f 891 899 898
f 891 898 892
f 892 898 907
f 894 907 895
f 895 907 896
f 896 907 897
f 897 907 898
f 899 909 908
f 899 908 910
f 899 910 911
f 899 911 900
f 900 911 912
f 900 912 901
f 901 912 913
f 901 913 916
f 901 916 914
f 901 914 904
f 901 904 902
f 904 914 915
f 904 915 905
f 914 916 915

o geometry_7
v -0.00428849 0.00467745 -0.01325046
v -0.00321618 0.00609545 -0.01308923
v -0.00321618 0.00467745 -0.01325046
v -0.00541218 0.00467745 -0.01319977
v -0.00321618 0.00710660 -0.01293714
v -0.00214560 0.00609545 -0.01308923
v -0.00214560 0.00467745 -0.01324963
v -0.00614275 0.00467745 -0.01296789
v -0.00485804 0.00667089 -0.01281165
v -0.00428849 0.00689879 -0.01288063
v -0.00428849 0.00609545 -0.01303272
v -0.00321618 0.00764248 -0.01272023
v -0.00214560 0.00764248 -0.01272106
v -0.00214560 0.00710660 -0.01293714
v -0.00107415 0.00706608 -0.01292052
v -0.00107415 0.00609545 -0.01305848
v -0.00107415 0.00467745 -0.01322304
v -0.00175505 0.00467745 -0.01324215
v -0.00629348 0.00467745 -0.01271109
v -0.00586953 0.00553331 -0.01272189
v -0.00492570 0.00674999 -0.01224900
v -0.00388680 0.00779615 -0.01202710
v -0.00321618 0.00784445 -0.01218501
v -0.00214560 0.00784575 -0.01218584
v -0.00107415 0.00784575 -0.01215592
v 0.00214104 0.00784575 -0.01202294
v -0.00107415 0.00760196 -0.01269114
v -0.00000271 0.00697368 -0.01288478
v 0.00106959 0.00686475 -0.01284822
v 0.00214104 0.00674091 -0.01281248
v 0.00032018 0.00467745 -0.01313577
v 0.00214704 0.00673767 -0.01281248
v -0.00648962 0.00467745 -0.01228307
v -0.00594062 0.00561760 -0.01200798
v -0.00448976 0.00734553 -0.01117689
v -0.00497623 0.00680964 -0.01117689
v -0.00395361 0.00784283 -0.01117689
v -0.00321618 0.00798612 -0.01117689
v -0.00214560 0.00798904 -0.01117689
v 0.00214704 0.00798839 -0.01118188
v 0.00214704 0.00784251 -0.01202626
v -0.00000271 0.00750957 -0.01263712
v 0.00106959 0.00740064 -0.01259390
v 0.00214704 0.00727388 -0.01256066
v 0.00214704 0.00467745 -0.01298618
v -0.00655471 0.00467745 -0.01165809
v -0.00659667 0.00467745 -0.01117689
v -0.00637571 0.00502368 -0.01117689
v -0.00596374 0.00564774 -0.01117689
v -0.00551238 0.00618363 -0.01117689
v -0.00498480 0.00681742 -0.00689178
v -0.00449061 0.00735331 -0.00689178
v -0.00395446 0.00784283 -0.00796306
v -0.00321618 0.00798612 -0.00689178
v -0.00214560 0.00798904 -0.00689178
v 0.00214104 0.00798904 -0.01117689
v 0.00214704 0.00798904 -0.01011143
v 0.00214104 0.00727680 -0.01255900
v 0.00214704 0.00467745 -0.00501933
v -0.00660267 0.00467745 -0.00689178
v -0.00596460 0.00564872 -0.01010561
v -0.00551324 0.00618460 -0.01010561
v -0.00496938 0.00680089 -0.00581967
v -0.00551838 0.00618201 -0.00796306
v -0.00552095 0.00618006 -0.00689178
v -0.00439554 0.00733645 -0.00581967
v -0.00395446 0.00784283 -0.00689178
v -0.00385940 0.00777573 -0.00581967
v -0.00321618 0.00785061 -0.00581967
v -0.00214560 0.00785223 -0.00581967
v 0.00214704 0.00798904 -0.00689178
v 0.00184042 0.00467745 -0.00498359
v 0.00214704 0.00686670 -0.00522295
v 0.00214104 0.00686378 -0.00522128
v -0.00657526 0.00467745 -0.00633661
v -0.00594576 0.00562603 -0.00581967
v -0.00637485 0.00502368 -0.00689178
v -0.00596289 0.00564807 -0.00903433
v -0.00550553 0.00616191 -0.00581967
v -0.00592006 0.00559263 -0.00525869
v -0.00491028 0.00673248 -0.00521297
v -0.00595946 0.00564418 -0.00689178
v -0.00376004 0.00770667 -0.00527946
v -0.00321618 0.00770862 -0.00527780
v -0.00214560 0.00770862 -0.00527780
v -0.00153151 0.00770667 -0.00527946
v -0.00113410 0.00781982 -0.00573739
v 0.00214104 0.00784575 -0.00601165
v 0.00214704 0.00784672 -0.00601664
v 0.00108929 0.00467745 -0.00493124
v 0.00214704 0.00740226 -0.00547892
v 0.00214104 0.00739966 -0.00547560
v -0.00081721 0.00766388 -0.00532517
v 0.00106959 0.00697076 -0.00518638
v -0.00107415 0.00609545 -0.00494287
v -0.00107415 0.00467745 -0.00478746
v -0.00000271 0.00467745 -0.00485810
v -0.00654957 0.00467745 -0.00581967
v -0.00642196 0.00467745 -0.00547144
v -0.00620784 0.00467745 -0.00502681
v -0.00418571 0.00712054 -0.00516394
v -0.00571365 0.00467745 -0.00489300
v -0.00535993 0.00467745 -0.00480823
v -0.00321618 0.00716657 -0.00509080
v -0.00214560 0.00716657 -0.00509080
v -0.00113410 0.00725086 -0.00514566
v -0.00000271 0.00706478 -0.00514981
v 0.00106959 0.00750665 -0.00543238
v -0.00000271 0.00760066 -0.00537670
v -0.00214560 0.00609545 -0.00491129
v -0.00214560 0.00467745 -0.00476086
v -0.00428849 0.00609545 -0.00495035
v -0.00469274 0.00467745 -0.00476169
v -0.00321618 0.00609545 -0.00491129
v -0.00255242 0.00467745 -0.00476003
v -0.00428849 0.00467745 -0.00476003
f 917 918 922
f 917 922 919
f 917 919 923
f 917 923 934
f 917 934 933
f 917 933 947
f 917 947 961
f 917 961 975
f 917 975 988
f 917 988 1006
f 917 1006 1013
f 917 1013 1012
f 917 1012 1027
f 917 1027 1031
f 917 1031 1032
f 917 1032 1029
f 917 1029 1019
f 917 1019 1018
f 917 1018 1016
f 917 1016 1015
f 917 1015 1014
f 917 1014 991
f 917 991 976
f 917 976 963
f 917 963 962
f 917 962 949
f 917 949 935
f 917 935 924
f 917 924 920
f 917 920 918
f 918 921 930
f 918 930 922
f 918 920 921
f 919 922 923
f 920 924 925
f 920 925 926
f 920 926 927
f 920 927 921
f 921 927 926
f 921 926 928
f 921 928 929
f 921 929 930
f 922 930 931
f 922 931 932
f 922 932 933
f 922 933 934
f 922 934 923
f 924 935 936
f 924 936 925
f 925 937 938
f 925 938 928
f 925 928 926
f 925 936 937
f 928 939 940
f 928 940 929
f 928 938 939
f 929 940 941
f 929 941 942
f 929 942 943
f 929 943 931
f 929 931 930
f 931 943 944
f 931 944 932
f 932 944 945
f 932 945 946
f 932 946 933
f 933 946 948
f 933 948 947
f 935 949 936
f 936 949 950
f 936 950 937
f 937 951 938
f 937 950 952
f 937 952 951
f 938 951 953
f 938 953 954
f 938 954 939
f 939 954 955
f 939 955 940
f 940 955 956
f 940 956 941
f 941 956 942
f 942 956 957
f 942 957 943
f 943 957 958
f 943 958 959
f 943 959 960
f 943 960 946
f 943 946 945
f 943 945 944
f 946 960 948
f 947 948 961
f 948 960 957
f 948 957 956
f 948 956 973
f 948 973 987
f 948 987 1005
f 948 1005 1007
f 948 1007 989
f 948 989 975
f 948 975 961
f 949 962 950
f 950 962 963
f 950 963 964
f 950 964 965
f 950 965 966
f 950 966 952
f 951 952 967
f 951 967 968
f 951 968 953
f 952 966 967
f 953 968 969
f 953 969 954
f 954 970 971
f 954 971 955
f 954 969 983
f 954 983 970
f 955 971 987
f 955 987 973
f 955 973 972
f 955 972 956
f 956 972 973
f 957 960 974
f 957 974 959
f 957 959 958
f 959 974 960
f 963 976 964
f 964 976 977
f 964 977 965
f 965 977 978
f 965 978 966
f 966 978 967
f 967 979 968
f 967 978 977
f 967 977 980
f 967 980 981
f 967 981 979
f 968 982 983
f 968 983 969
f 968 979 982
f 970 983 984
f 970 984 985
f 970 985 971
f 971 986 987
f 971 985 986
f 975 989 990
f 975 990 988
f 976 991 992
f 976 992 993
f 976 993 977
f 977 993 994
f 977 994 981
f 977 981 980
f 979 981 995
f 979 995 996
f 979 996 997
f 979 997 982
f 981 994 998
f 981 998 992
f 981 992 995
f 982 997 999
f 982 999 984
f 982 984 983
f 984 999 985
f 985 999 1000
f 985 1000 986
f 986 1000 1001
f 986 1001 1002
f 986 1002 1003
f 986 1003 1004
f 986 1004 1005
f 986 1005 987
f 988 990 1006
f 989 1007 1008
f 989 1008 1009
f 989 1009 1002
f 989 1002 990
f 990 1010 1011
f 990 1011 1012
f 990 1012 1013
f 990 1013 1006
f 990 1002 1010
f 991 1014 992
f 992 996 995
f 992 998 993
f 992 1014 996
f 993 998 994
f 996 1014 1015
f 996 1015 1016
f 996 1016 997
f 997 1017 999
f 997 1016 1018
f 997 1018 1019
f 997 1019 1017
f 999 1020 1000
f 999 1017 1020
f 1000 1020 1021
f 1000 1021 1001
f 1001 1021 1002
f 1002 1021 1022
f 1002 1022 1023
f 1002 1023 1010
f 1002 1009 1004
f 1002 1004 1003
f 1004 1024 1007
f 1004 1007 1005
f 1004 1009 1025
f 1004 1025 1024
f 1007 1024 1009
f 1007 1009 1008
f 1009 1024 1025
f 1010 1023 1011
f 1011 1023 1021
f 1011 1021 1026
f 1011 1026 1012
f 1012 1026 1027
f 1017 1019 1028
f 1017 1028 1020
f 1019 1029 1028
f 1020 1028 1030
f 1020 1030 1026
f 1020 1026 1021
f 1021 1023 1022
f 1026 1030 1032
f 1026 1032 1031
f 1026 1031 1027
f 1028 1029 1030
f 1029 1032 1030

o geometry_8
v 0.00214704 0.00467745 -0.00738470
v 0.00214704 -0.00502407 -0.00738470
v 0.00214704 0.00467745 -0.01298616
v -0.00659854 0.00467745 -0.00738470
v 0.00214704 -0.00502407 -0.01323805
v -0.00999358 -0.00502407 -0.00738470
v 0.00214704 0.00367643 -0.01355518
v 0.00031994 0.00467745 -0.01313596
v -0.00659854 0.00467745 -0.00796339
v -0.00684461 0.00430325 -0.00738470
v 0.00214109 -0.00468692 -0.01355518
v 0.00214704 -0.00468692 -0.01355458
v -0.00000221 -0.00502407 -0.01339994
v -0.00997813 -0.00480658 -0.00738470
v -0.00999477 -0.00502407 -0.00836751
v 0.00214704 -0.00459479 -0.01355518
v 0.00009764 0.00394425 -0.01355518
v -0.00070476 0.00467745 -0.01320000
v -0.00659735 0.00467745 -0.01117760
v -0.00718815 0.00376760 -0.00738470
v 0.00196159 -0.00469831 -0.01355518
v -0.00107445 -0.00502407 -0.01347243
v -0.00996624 -0.00462044 -0.01117760
v -0.00999715 -0.00502407 -0.01117760
v -0.00996386 -0.00462044 -0.00738470
v -0.00000221 0.00395470 -0.01355518
v -0.00107445 0.00467745 -0.01322295
v -0.00655455 0.00467745 -0.01165783
v -0.00716081 0.00371537 -0.01224920
v -0.00684223 0.00429280 -0.01117760
v -0.00718102 0.00375715 -0.01117760
v -0.00769218 0.00287960 -0.00738470
v -0.00007353 -0.00481893 -0.01355518
v -0.00107445 -0.00487212 -0.01355518
v -0.00214551 -0.00502407 -0.01349598
v -0.00981765 -0.00354914 -0.00738470
v -0.00981765 -0.00354914 -0.01117760
v -0.00980576 -0.00354914 -0.01224920
v -0.00977367 -0.00354914 -0.01355518
v -0.00987946 -0.00502407 -0.01224920
v -0.00107445 0.00403258 -0.01355518
v -0.00175560 0.00467745 -0.01324168
v -0.00649036 0.00467745 -0.01228303
v -0.00722263 0.00343520 -0.01355518
v -0.00760540 0.00287960 -0.01355518
v -0.00769456 0.00274284 -0.01355518
v -0.00799412 0.00225468 -0.01355518
v -0.00767316 0.00287960 -0.01117760
v -0.00800601 0.00227652 -0.00738470
v -0.00214551 -0.00490346 -0.01355518
v -0.00303707 -0.00502407 -0.01349659
v -0.00960962 -0.00247689 -0.00738470
v -0.00961081 -0.00247689 -0.00903499
v -0.00961200 -0.00247689 -0.01224920
v -0.00961200 -0.00247689 -0.01355518
v -0.00950382 -0.00455585 -0.01355518
v -0.00948005 -0.00502407 -0.01317040
v -0.00214551 0.00405917 -0.01355518
v -0.00214551 0.00467745 -0.01325013
v -0.00629303 0.00467745 -0.01271071
v -0.00711445 0.00357291 -0.01355518
v -0.00819977 0.00183585 -0.01355518
v -0.00825683 0.00171808 -0.01332081
v -0.00825683 0.00174087 -0.00738470
v -0.00750317 -0.00490346 -0.01355518
v -0.00750317 -0.00502407 -0.01349659
v -0.00936117 -0.00140559 -0.00738470
v -0.00936117 -0.00140559 -0.01355518
v -0.00858374 -0.00488351 -0.01355518
v -0.00857423 -0.00502407 -0.01347967
v -0.00535987 0.00405917 -0.01355518
v -0.00428762 0.00467745 -0.01325013
v -0.00614325 0.00467745 -0.01296804
v -0.00643330 0.00393665 -0.01355518
v -0.00825564 0.00171903 -0.01355518
v -0.00834599 0.00150344 -0.01355518
v -0.00866457 0.00073701 -0.01355518
v -0.00866576 0.00073701 -0.01224920
v -0.00844584 0.00128025 -0.00738470
v -0.00857423 -0.00488636 -0.01355518
v -0.00839354 -0.00502407 -0.01348270
v -0.00925537 -0.00102950 -0.00738470
v -0.00916503 -0.00070849 -0.00903499
v -0.00916503 -0.00070944 -0.01117760
v -0.00920783 -0.00086234 -0.01355518
v -0.00541217 0.00467745 -0.01320000
v -0.00873471 0.00053661 -0.01355518
v -0.00898315 -0.00017379 -0.01355518
v -0.00866576 0.00073701 -0.00738470
v -0.00916503 -0.00070849 -0.00738470
v -0.00912461 -0.00059262 -0.01355518
v -0.00916384 -0.00070944 -0.01355518
v -0.00898315 -0.00017379 -0.00738470
f 1033 1034 1037
f 1033 1037 1044
f 1033 1044 1048
f 1033 1048 1039
f 1033 1039 1035
f 1033 1035 1040
f 1033 1040 1050
f 1033 1050 1059
f 1033 1059 1074
f 1033 1074 1091
f 1033 1091 1104
f 1033 1104 1118
f 1033 1118 1105
f 1033 1105 1092
f 1033 1092 1075
f 1033 1075 1060
f 1033 1060 1051
f 1033 1051 1041
f 1033 1041 1036
f 1033 1036 1042
f 1033 1042 1052
f 1033 1052 1064
f 1033 1064 1081
f 1033 1081 1096
f 1033 1096 1111
f 1033 1111 1121
f 1033 1121 1125
f 1033 1125 1122
f 1033 1122 1114
f 1033 1114 1099
f 1033 1099 1084
f 1033 1084 1068
f 1033 1068 1057
f 1033 1057 1046
f 1033 1046 1038
f 1033 1038 1034
f 1034 1038 1047
f 1034 1047 1056
f 1034 1056 1072
f 1034 1072 1089
f 1034 1089 1102
f 1034 1102 1113
f 1034 1113 1098
f 1034 1098 1083
f 1034 1083 1067
f 1034 1067 1054
f 1034 1054 1045
f 1034 1045 1037
f 1035 1039 1040
f 1036 1041 1042
f 1037 1043 1044
f 1037 1045 1043
f 1038 1046 1047
f 1039 1048 1043
f 1039 1043 1053
f 1039 1053 1065
f 1039 1065 1066
f 1039 1066 1082
f 1039 1082 1097
f 1039 1097 1112
f 1039 1112 1101
f 1039 1101 1088
f 1039 1088 1071
f 1039 1071 1087
f 1039 1087 1100
f 1039 1100 1117
f 1039 1117 1124
f 1039 1124 1123
f 1039 1123 1120
f 1039 1120 1119
f 1039 1119 1109
f 1039 1109 1108
f 1039 1108 1107
f 1039 1107 1094
f 1039 1094 1079
f 1039 1079 1078
f 1039 1078 1077
f 1039 1077 1076
f 1039 1076 1093
f 1039 1093 1106
f 1039 1106 1103
f 1039 1103 1090
f 1039 1090 1073
f 1039 1073 1058
f 1039 1058 1049
f 1039 1049 1040
f 1040 1049 1050
f 1041 1051 1042
f 1042 1051 1052
f 1043 1048 1044
f 1043 1045 1054
f 1043 1054 1053
f 1046 1055 1056
f 1046 1056 1047
f 1046 1057 1055
f 1049 1058 1059
f 1049 1059 1050
f 1051 1060 1061
f 1051 1061 1062
f 1051 1062 1052
f 1052 1062 1063
f 1052 1063 1064
f 1053 1054 1065
f 1054 1066 1065
f 1054 1067 1066
f 1055 1057 1068
f 1055 1068 1069
f 1055 1069 1070
f 1055 1070 1071
f 1055 1071 1056
f 1056 1071 1072
f 1058 1073 1059
f 1059 1073 1074
f 1060 1075 1076
f 1060 1076 1061
f 1061 1076 1077
f 1061 1077 1078
f 1061 1078 1079
f 1061 1079 1063
f 1061 1063 1062
f 1063 1079 1080
f 1063 1080 1064
f 1064 1080 1079
f 1064 1079 1081
f 1066 1067 1082
f 1067 1083 1082
f 1068 1084 1085
f 1068 1085 1086
f 1068 1086 1087
f 1068 1087 1069
f 1069 1087 1070
f 1070 1087 1071
f 1071 1088 1072
f 1072 1088 1089
f 1073 1090 1091
f 1073 1091 1074
f 1075 1092 1093
f 1075 1093 1076
f 1079 1094 1081
f 1081 1094 1095
f 1081 1095 1096
f 1082 1083 1098
f 1082 1098 1097
f 1084 1099 1085
f 1085 1099 1086
f 1086 1099 1100
f 1086 1100 1087
f 1088 1101 1102
f 1088 1102 1089
f 1090 1103 1104
f 1090 1104 1091
f 1092 1105 1093
f 1093 1105 1106
f 1094 1107 1095
f 1095 1108 1096
f 1095 1107 1108
f 1096 1108 1109
f 1096 1109 1110
f 1096 1110 1111
f 1097 1098 1112
f 1098 1113 1112
f 1099 1114 1100
f 1100 1114 1115
f 1100 1115 1116
f 1100 1116 1117
f 1101 1112 1102
f 1102 1112 1113
f 1103 1118 1104
f 1103 1106 1118
f 1105 1118 1106
f 1109 1119 1110
f 1110 1119 1120
f 1110 1120 1125
f 1110 1125 1121
f 1110 1121 1111
f 1114 1122 1115
f 1115 1122 1125
f 1115 1125 1120
f 1115 1120 1116
f 1116 1120 1123
f 1116 1123 1124
f 1116 1124 1117

o geometry_9
v 0.01059885 0.00408867 -0.00449612
v 0.01059885 0.00716652 -0.00509206
v 0.00857008 0.00408867 -0.00449612
v 0.01059885 -0.00489361 -0.00449612
v 0.00857008 0.00716652 -0.00509206
v 0.01059885 0.00770687 -0.00527829
v 0.00749861 0.00407553 -0.00449612
v 0.00857008 -0.00489361 -0.00449612
v 0.01059885 -0.00783514 -0.00508408
v 0.00857008 0.00770687 -0.00527829
v 0.00789989 0.00770523 -0.00528095
v 0.00752591 0.00726343 -0.00513995
v 0.00214786 0.00368957 -0.00449790
v 0.00642714 0.00401640 -0.00449612
v 0.01059885 0.00783662 -0.00576249
v 0.00749861 -0.00488375 -0.00449612
v 0.00749861 -0.00783514 -0.00508408
v 0.01059885 -0.00790084 -0.00509738
v 0.00857008 0.00785140 -0.00582102
v 0.00752591 0.00781856 -0.00572613
v 0.00214786 0.00784648 -0.00601701
v 0.00718585 0.00768224 -0.00530489
v 0.00214786 0.00686596 -0.00522331
v 0.00642714 0.00709754 -0.00513640
v 0.00214786 0.00367807 -0.00449612
v 0.01059885 0.00785140 -0.00582102
v 0.00642714 -0.00783514 -0.00508674
v 0.00214786 -0.00468831 -0.00449612
v 0.00642714 -0.00845926 -0.00521267
v 0.01059885 -0.00845926 -0.00521267
v 0.00214786 0.00798937 -0.00689229
v 0.00214786 0.00739974 -0.00547960
v 0.01059885 0.00798937 -0.00689229
v 0.00535649 -0.00845433 -0.00521710
v 0.00214786 -0.00842477 -0.00524282
v 0.00535649 -0.00866291 -0.00582102
v 0.00642714 -0.00866784 -0.00582102
v 0.01059885 -0.00866784 -0.00582102
v 0.00214786 0.00798937 -0.01011052
v 0.01059885 0.00798937 -0.01117647
v 0.00214786 -0.00863335 -0.00582102
v 0.00214786 -0.00878938 -0.00689229
v 0.01059885 -0.00868098 -0.00593542
v 0.00321354 0.00798937 -0.01117647
v 0.00214786 0.00798772 -0.01118090
v 0.01059885 0.00786126 -0.01207747
v 0.00214786 -0.00878938 -0.01117647
v 0.01059885 -0.00878938 -0.00689229
v 0.00857008 0.00784483 -0.01218478
v 0.00749861 0.00784483 -0.01216615
v 0.00214786 0.00784155 -0.01202515
v 0.01059885 0.00784483 -0.01218478
v 0.00642714 -0.00863006 -0.01224774
v 0.01059885 -0.00878938 -0.01117647
v 0.00214786 -0.00855287 -0.01234529
v 0.00535649 -0.00862514 -0.01224774
v 0.01059885 0.00766417 -0.01266365
v 0.00857008 0.00763953 -0.01272041
v 0.00749861 0.00761818 -0.01270179
v 0.00214786 0.00727328 -0.01255990
v 0.01059885 -0.00863006 -0.01224774
v 0.00642714 -0.00842148 -0.01282328
v 0.01059885 -0.00860871 -0.01230981
v 0.00214786 -0.00853973 -0.01238253
v 0.00535649 -0.00841491 -0.01281885
v 0.01059885 0.00763953 -0.01272041
v 0.01059885 0.00716324 -0.01291285
v 0.00857008 0.00710575 -0.01293590
v 0.00749861 0.00708276 -0.01292615
v 0.00214786 0.00673622 -0.01281175
v 0.00749861 -0.00487883 -0.01355579
v 0.00857008 -0.00490346 -0.01355579
v 0.01059885 -0.00842148 -0.01282328
v 0.00214786 -0.00851017 -0.01246146
v 0.00494362 -0.00840834 -0.01281264
v 0.00214786 -0.00468667 -0.01355312
v 0.00642714 -0.00483777 -0.01355579
v 0.01059885 0.00710575 -0.01293590
v 0.00857008 0.00405911 -0.01355579
v 0.00758548 0.00404597 -0.01355579
v 0.00749861 0.00404432 -0.01355579
v 0.00654793 0.00399505 -0.01355579
v 0.00214786 0.00367479 -0.01355579
v 0.01059885 -0.00490346 -0.01355579
v 0.00214786 -0.00800595 -0.01280554
v 0.00263271 -0.00827038 -0.01277894
v 0.00350396 -0.00837714 -0.01278781
v 0.00428502 -0.00839520 -0.01280200
v 0.00214786 -0.00459469 -0.01355579
v 0.00302324 -0.00467353 -0.01355579
v 0.01059885 0.00405911 -0.01355579
f 1126 1127 1130
f 1126 1130 1128
f 1126 1128 1132
f 1126 1132 1139
f 1126 1139 1150
f 1126 1150 1153
f 1126 1153 1141
f 1126 1141 1133
f 1126 1133 1129
f 1126 1129 1134
f 1126 1134 1143
f 1126 1143 1155
f 1126 1155 1163
f 1126 1163 1168
f 1126 1168 1173
f 1126 1173 1179
f 1126 1179 1186
f 1126 1186 1188
f 1126 1188 1198
f 1126 1198 1209
f 1126 1209 1216
f 1126 1216 1203
f 1126 1203 1192
f 1126 1192 1191
f 1126 1191 1182
f 1126 1182 1177
f 1126 1177 1171
f 1126 1171 1165
f 1126 1165 1158
f 1126 1158 1151
f 1126 1151 1140
f 1126 1140 1131
f 1126 1131 1127
f 1127 1131 1135
f 1127 1135 1130
f 1128 1130 1132
f 1129 1133 1142
f 1129 1142 1134
f 1130 1135 1136
f 1130 1136 1137
f 1130 1137 1138
f 1130 1138 1139
f 1130 1139 1132
f 1131 1140 1135
f 1133 1141 1142
f 1134 1142 1143
f 1135 1140 1144
f 1135 1144 1136
f 1136 1144 1145
f 1136 1145 1146
f 1136 1146 1147
f 1136 1147 1148
f 1136 1148 1137
f 1137 1148 1149
f 1137 1149 1138
f 1138 1150 1139
f 1138 1149 1148
f 1138 1148 1157
f 1138 1157 1146
f 1138 1146 1156
f 1138 1156 1164
f 1138 1164 1170
f 1138 1170 1176
f 1138 1176 1185
f 1138 1185 1195
f 1138 1195 1208
f 1138 1208 1214
f 1138 1214 1201
f 1138 1201 1210
f 1138 1210 1199
f 1138 1199 1189
f 1138 1189 1180
f 1138 1180 1172
f 1138 1172 1167
f 1138 1167 1166
f 1138 1166 1160
f 1138 1160 1153
f 1138 1153 1150
f 1140 1151 1144
f 1141 1152 1142
f 1141 1153 1152
f 1142 1152 1154
f 1142 1154 1143
f 1143 1154 1155
f 1144 1151 1158
f 1144 1158 1156
f 1144 1156 1146
f 1144 1146 1145
f 1146 1157 1147
f 1147 1157 1148
f 1152 1153 1159
f 1152 1159 1154
f 1153 1160 1159
f 1154 1159 1161
f 1154 1161 1162
f 1154 1162 1163
f 1154 1163 1155
f 1156 1158 1165
f 1156 1165 1169
f 1156 1169 1164
f 1159 1160 1166
f 1159 1166 1161
f 1161 1166 1167
f 1161 1167 1162
f 1162 1168 1163
f 1162 1167 1168
f 1164 1169 1170
f 1165 1171 1169
f 1167 1172 1179
f 1167 1179 1173
f 1167 1173 1168
f 1169 1171 1174
f 1169 1174 1170
f 1170 1174 1175
f 1170 1175 1176
f 1171 1177 1174
f 1172 1178 1186
f 1172 1186 1179
f 1172 1180 1181
f 1172 1181 1178
f 1174 1177 1182
f 1174 1182 1183
f 1174 1183 1175
f 1175 1183 1176
f 1176 1183 1184
f 1176 1184 1185
f 1178 1181 1187
f 1178 1187 1188
f 1178 1188 1186
f 1180 1189 1181
f 1181 1189 1190
f 1181 1190 1187
f 1182 1191 1183
f 1183 1191 1192
f 1183 1192 1193
f 1183 1193 1194
f 1183 1194 1184
f 1184 1194 1195
f 1184 1195 1185
f 1187 1190 1196
f 1187 1196 1197
f 1187 1197 1209
f 1187 1209 1198
f 1187 1198 1188
f 1189 1199 1190
f 1190 1199 1200
f 1190 1200 1201
f 1190 1201 1202
f 1190 1202 1196
f 1192 1203 1193
f 1193 1203 1216
f 1193 1216 1204
f 1193 1204 1205
f 1193 1205 1206
f 1193 1206 1207
f 1193 1207 1194
f 1194 1207 1208
f 1194 1208 1195
f 1196 1202 1215
f 1196 1215 1214
f 1196 1214 1208
f 1196 1208 1207
f 1196 1207 1206
f 1196 1206 1205
f 1196 1205 1204
f 1196 1204 1216
f 1196 1216 1209
f 1196 1209 1197
f 1199 1210 1211
f 1199 1211 1212
f 1199 1212 1213
f 1199 1213 1200
f 1200 1213 1201
f 1201 1214 1215
f 1201 1215 1202
f 1201 1213 1212
f 1201 1212 1211
f 1201 1211 1210

o geometry_10
v -0.00733760 -0.00502502 -0.01349663
v -0.00750164 -0.00502502 -0.01349575
v -0.00321733 -0.00502502 -0.01349663
v -0.00857332 -0.00842201 -0.01282345
v -0.00857452 -0.00502502 -0.01347912
v -0.00214566 -0.00502502 -0.01349575
v -0.00000350 -0.00842201 -0.01282345
v -0.00857332 -0.00863093 -0.01224832
v -0.00919118 -0.00840506 -0.01281120
v -0.00947975 -0.00502502 -0.01316923
v -0.00196485 -0.00502502 -0.01349225
v 0.00106937 -0.00841022 -0.01281382
v 0.00106937 -0.00861914 -0.01224832
v -0.00000350 -0.00863093 -0.01224832
v -0.00857332 -0.00878938 -0.01117685
v -0.00938157 -0.00850123 -0.01224832
v -0.00975396 -0.00783576 -0.01224832
v -0.00930014 -0.00783576 -0.01285059
v -0.00987969 -0.00676423 -0.01224832
v -0.00988328 -0.00569270 -0.01224832
v -0.00987969 -0.00502502 -0.01224832
v -0.00107398 -0.00502502 -0.01347124
v 0.00191713 -0.00838921 -0.01279807
v 0.00214704 -0.00851007 -0.01246192
v 0.00214704 -0.00854029 -0.01238226
v 0.00214704 -0.00855392 -0.01234549
v 0.00214704 -0.00878938 -0.01117685
v -0.00857332 -0.00878938 -0.00689183
v -0.00953005 -0.00858008 -0.01117685
v -0.01001978 -0.00783576 -0.01117685
v -0.01008205 -0.00676423 -0.01117685
v -0.01007007 -0.00637401 -0.01117685
v -0.01004613 -0.00569270 -0.01117685
v -0.00999583 -0.00502502 -0.01117685
v -0.00000230 -0.00502502 -0.01339946
v 0.00214704 -0.00502502 -0.01323751
v 0.00214704 -0.00800673 -0.01280507
v 0.00214704 -0.00878938 -0.00689183
v -0.00857332 -0.00866852 -0.00582123
v -0.00942348 -0.00852002 -0.00582123
v -0.00953005 -0.00858008 -0.00689183
v -0.01001978 -0.00783576 -0.00689183
v -0.01008564 -0.00676423 -0.00689183
v -0.01004373 -0.00569270 -0.00689183
v -0.00999344 -0.00502502 -0.00689183
v 0.00214704 -0.00502502 -0.00478915
v 0.00214704 -0.00863351 -0.00582123
v 0.00106937 -0.00865783 -0.00582123
v -0.00000350 -0.00866852 -0.00582123
v -0.00857332 -0.00845959 -0.00521197
v -0.00924626 -0.00843011 -0.00523560
v -0.00982940 -0.00783576 -0.00582123
v -0.00995033 -0.00676423 -0.00582123
v -0.00994794 -0.00637401 -0.00582123
v -0.00994195 -0.00569270 -0.00582123
v -0.00989286 -0.00502502 -0.00582123
v -0.00023819 -0.00502502 -0.00462546
v 0.00214704 -0.00842495 -0.00524260
v 0.00106937 -0.00844927 -0.00522159
v -0.00000350 -0.00845959 -0.00521197
v -0.00857332 -0.00783576 -0.00508328
v -0.00643116 -0.00783576 -0.00508241
v -0.00937438 -0.00783576 -0.00518395
v -0.00775789 -0.00502502 -0.00461408
v -0.00854698 -0.00502502 -0.00472875
v -0.00946179 -0.00676423 -0.00513231
v -0.00946778 -0.00637401 -0.00512180
v -0.00947496 -0.00569270 -0.00510254
v -0.00962703 -0.00502502 -0.00535290
v -0.00107398 -0.00502502 -0.00457731
v -0.00126796 -0.00502502 -0.00457206
v -0.00214566 -0.00502502 -0.00455455
v -0.00107398 -0.00783576 -0.00508241
v -0.00535829 -0.00502502 -0.00455367
v -0.00642997 -0.00502502 -0.00455630
v -0.00661077 -0.00502502 -0.00456155
v -0.00891578 -0.00502502 -0.00480666
v -0.00946658 -0.00637401 -0.00512092
v -0.00944982 -0.00502502 -0.00508328
v -0.00321733 -0.00502502 -0.00455367
f 1217 1218 1221
f 1217 1221 1226
f 1217 1226 1237
f 1217 1237 1250
f 1217 1250 1261
f 1217 1261 1272
f 1217 1272 1285
f 1217 1285 1295
f 1217 1295 1293
f 1217 1293 1281
f 1217 1281 1280
f 1217 1280 1292
f 1217 1292 1291
f 1217 1291 1290
f 1217 1290 1296
f 1217 1296 1288
f 1217 1288 1287
f 1217 1287 1286
f 1217 1286 1273
f 1217 1273 1262
f 1217 1262 1252
f 1217 1252 1251
f 1217 1251 1238
f 1217 1238 1227
f 1217 1227 1222
f 1217 1222 1219
f 1217 1219 1223
f 1217 1223 1220
f 1217 1220 1218
f 1218 1220 1221
f 1219 1222 1223
f 1220 1224 1225
f 1220 1225 1221
f 1220 1223 1230
f 1220 1230 1224
f 1221 1225 1226
f 1222 1227 1228
f 1222 1228 1223
f 1223 1228 1229
f 1223 1229 1230
f 1224 1231 1232
f 1224 1232 1225
f 1224 1230 1243
f 1224 1243 1231
f 1225 1232 1233
f 1225 1233 1234
f 1225 1234 1226
f 1226 1233 1235
f 1226 1235 1236
f 1226 1236 1237
f 1226 1234 1233
f 1227 1238 1239
f 1227 1239 1228
f 1228 1239 1240
f 1228 1240 1241
f 1228 1241 1242
f 1228 1242 1229
f 1229 1242 1243
f 1229 1243 1230
f 1231 1244 1257
f 1231 1257 1245
f 1231 1245 1232
f 1231 1243 1254
f 1231 1254 1244
f 1232 1245 1246
f 1232 1246 1233
f 1233 1246 1235
f 1235 1246 1247
f 1235 1247 1236
f 1236 1247 1237
f 1237 1247 1248
f 1237 1248 1249
f 1237 1249 1250
f 1238 1251 1239
f 1239 1252 1253
f 1239 1253 1240
f 1239 1251 1252
f 1240 1253 1252
f 1240 1252 1262
f 1240 1262 1274
f 1240 1274 1263
f 1240 1263 1254
f 1240 1254 1243
f 1240 1243 1242
f 1240 1242 1241
f 1244 1255 1256
f 1244 1256 1257
f 1244 1254 1265
f 1244 1265 1255
f 1245 1257 1258
f 1245 1258 1246
f 1246 1258 1259
f 1246 1259 1247
f 1247 1259 1248
f 1248 1259 1249
f 1249 1259 1260
f 1249 1260 1261
f 1249 1261 1250
f 1254 1263 1264
f 1254 1264 1265
f 1255 1266 1267
f 1255 1267 1256
f 1255 1265 1276
f 1255 1276 1266
f 1256 1267 1268
f 1256 1268 1258
f 1256 1258 1257
f 1258 1268 1269
f 1258 1269 1259
f 1259 1269 1270
f 1259 1270 1271
f 1259 1271 1260
f 1260 1271 1272
f 1260 1272 1261
f 1262 1273 1274
f 1263 1274 1275
f 1263 1275 1264
f 1264 1275 1276
f 1264 1276 1265
f 1266 1277 1267
f 1266 1276 1289
f 1266 1289 1278
f 1266 1278 1277
f 1267 1279 1268
f 1267 1277 1280
f 1267 1280 1281
f 1267 1281 1279
f 1268 1279 1282
f 1268 1282 1269
f 1269 1282 1283
f 1269 1283 1284
f 1269 1284 1270
f 1270 1284 1271
f 1271 1284 1285
f 1271 1285 1272
f 1273 1286 1274
f 1274 1286 1287
f 1274 1287 1275
f 1275 1287 1288
f 1275 1288 1289
f 1275 1289 1276
f 1277 1278 1290
f 1277 1290 1291
f 1277 1291 1292
f 1277 1292 1280
f 1278 1289 1296
f 1278 1296 1290
f 1279 1281 1293
f 1279 1293 1282
f 1282 1293 1294
f 1282 1294 1283
f 1283 1294 1284
f 1284 1294 1293
f 1284 1293 1295
f 1284 1295 1285
f 1288 1296 1289

o geometry_11
v 0.00214704 0.00467745 -0.00501877
v 0.00214109 0.00368877 -0.00449524
v 0.00214704 0.00368972 -0.00449665
v 0.00214704 0.00467745 -0.00738470
v 0.00184040 0.00467745 -0.00498370
v 0.00214704 0.00368023 -0.00449524
v 0.00115343 0.00383029 -0.00449524
v 0.00214704 -0.00502407 -0.00738470
v -0.00659934 0.00467745 -0.00738470
v 0.00108925 0.00467745 -0.00493109
v 0.00214704 -0.00468882 -0.00449524
v -0.00000301 0.00398604 -0.00449524
v 0.00214704 -0.00502407 -0.00478882
v -0.00999377 -0.00502407 -0.00738470
v -0.00684536 0.00430325 -0.00738470
v -0.00684655 0.00430515 -0.00689115
v -0.00660171 0.00467745 -0.00689115
v -0.00000301 0.00467745 -0.00485812
v -0.00000301 -0.00481418 -0.00449524
v -0.00107387 -0.00502407 -0.00457585
v -0.00023715 -0.00502407 -0.00462563
v -0.00107387 0.00467745 -0.00478684
v -0.00012186 0.00399649 -0.00449524
v -0.00999496 -0.00502407 -0.00689115
v -0.00996406 -0.00462044 -0.00738470
v -0.00718885 0.00376760 -0.00738470
v -0.00719003 0.00376950 -0.00689115
v -0.00717221 0.00374861 -0.00581976
v -0.00654942 0.00467745 -0.00581976
v -0.00105605 -0.00487117 -0.00449524
v -0.00107387 -0.00487212 -0.00449524
v -0.00126760 -0.00502407 -0.00457161
v -0.00214593 0.00467745 -0.00476026
v -0.00107387 0.00406202 -0.00449524
v -0.00989274 -0.00502407 -0.00581976
v -0.00996406 -0.00462044 -0.00689115
v -0.00981668 -0.00354914 -0.00738470
v -0.00769159 0.00287960 -0.00738470
v -0.00769397 0.00287960 -0.00689115
v -0.00767376 0.00287960 -0.00581976
v -0.00799467 0.00226418 -0.00449524
v -0.00642106 0.00467745 -0.00547074
v -0.00214593 -0.00489396 -0.00449524
v -0.00214593 -0.00502407 -0.00455407
v -0.00428765 0.00467745 -0.00476026
v -0.00214593 0.00408861 -0.00449524
v -0.00962651 -0.00502407 -0.00535280
v -0.00934365 -0.00323098 -0.00449524
v -0.00940070 -0.00247689 -0.00449524
v -0.00940307 -0.00222426 -0.00449524
v -0.00986184 -0.00462044 -0.00581976
v -0.00974774 -0.00354914 -0.00581976
v -0.00981668 -0.00354914 -0.00689115
v -0.00960988 -0.00247689 -0.00738470
v -0.00800536 0.00227652 -0.00738470
v -0.00800774 0.00227937 -0.00689115
v -0.00800417 0.00227462 -0.00581976
v -0.00744081 0.00292899 -0.00449524
v -0.00805766 0.00213786 -0.00449524
v -0.00620831 0.00467745 -0.00502669
v -0.00321798 -0.00489491 -0.00449524
v -0.00321798 -0.00502407 -0.00455379
v -0.00469294 0.00467745 -0.00476139
v -0.00428765 0.00408861 -0.00449524
v -0.00945061 -0.00502407 -0.00508241
v -0.00930680 -0.00338103 -0.00449524
v -0.00932582 -0.00140559 -0.00449524
v -0.00958016 -0.00247689 -0.00581976
v -0.00960869 -0.00247689 -0.00689115
v -0.00936147 -0.00140559 -0.00689115
v -0.00936147 -0.00140559 -0.00738470
v -0.00825733 0.00174087 -0.00738470
v -0.00825733 0.00174372 -0.00689115
v -0.00825733 0.00173802 -0.00581976
v -0.00825733 0.00172853 -0.00449524
v -0.00668729 0.00361280 -0.00449524
v -0.00571388 0.00467745 -0.00489291
v -0.00642462 0.00383693 -0.00449524
v -0.00535970 -0.00489491 -0.00449524
v -0.00535970 -0.00502407 -0.00455379
v -0.00535970 0.00467745 -0.00480777
v -0.00535970 0.00408101 -0.00449524
v -0.00891578 -0.00502407 -0.00480636
v -0.00855209 -0.00445613 -0.00449524
v -0.00929016 -0.00124129 -0.00449524
v -0.00935078 -0.00140559 -0.00581976
v -0.00925570 -0.00102950 -0.00738470
v -0.00916537 -0.00070849 -0.00449524
v -0.00844512 0.00128025 -0.00738470
v -0.00866619 0.00073701 -0.00449524
v -0.00866619 0.00073701 -0.00738470
v -0.00856991 0.00097064 -0.00449524
v -0.00540843 0.00407342 -0.00449524
v -0.00643057 -0.00488921 -0.00449524
v -0.00643057 -0.00502407 -0.00455577
v -0.00553442 -0.00502407 -0.00455407
v -0.00854733 -0.00502407 -0.00472886
v -0.00849028 -0.00452166 -0.00449524
v -0.00916537 -0.00070849 -0.00738470
v -0.00902631 -0.00029915 -0.00449524
v -0.00898352 -0.00017379 -0.00449524
v -0.00898352 -0.00017379 -0.00738470
v -0.00747172 -0.00481038 -0.00449524
v -0.00661122 -0.00502407 -0.00456001
v -0.00775815 -0.00502407 -0.00461290
v -0.00841065 -0.00455111 -0.00449524
v -0.00750262 -0.00480563 -0.00449524
f 1297 1298 1299
f 1297 1299 1302
f 1297 1302 1307
f 1297 1307 1309
f 1297 1309 1304
f 1297 1304 1300
f 1297 1300 1305
f 1297 1305 1313
f 1297 1313 1325
f 1297 1325 1338
f 1297 1338 1356
f 1297 1356 1373
f 1297 1373 1377
f 1297 1377 1359
f 1297 1359 1341
f 1297 1341 1329
f 1297 1329 1318
f 1297 1318 1314
f 1297 1314 1306
f 1297 1306 1301
f 1297 1301 1298
f 1298 1302 1299
f 1298 1301 1303
f 1298 1303 1308
f 1298 1308 1319
f 1298 1319 1330
f 1298 1330 1342
f 1298 1342 1360
f 1298 1360 1378
f 1298 1378 1389
f 1298 1389 1374
f 1298 1374 1372
f 1298 1372 1354
f 1298 1354 1337
f 1298 1337 1355
f 1298 1355 1371
f 1298 1371 1388
f 1298 1388 1386
f 1298 1386 1397
f 1298 1397 1396
f 1298 1396 1384
f 1298 1384 1381
f 1298 1381 1363
f 1298 1363 1346
f 1298 1346 1345
f 1298 1345 1344
f 1298 1344 1362
f 1298 1362 1380
f 1298 1380 1394
f 1298 1394 1402
f 1298 1402 1403
f 1298 1403 1399
f 1298 1399 1390
f 1298 1390 1375
f 1298 1375 1357
f 1298 1357 1339
f 1298 1339 1327
f 1298 1327 1326
f 1298 1326 1315
f 1298 1315 1307
f 1298 1307 1302
f 1300 1304 1310
f 1300 1310 1321
f 1300 1321 1333
f 1300 1333 1350
f 1300 1350 1367
f 1300 1367 1383
f 1300 1383 1395
f 1300 1395 1398
f 1300 1398 1387
f 1300 1387 1385
f 1300 1385 1368
f 1300 1368 1351
f 1300 1351 1334
f 1300 1334 1322
f 1300 1322 1311
f 1300 1311 1305
f 1301 1306 1303
f 1303 1306 1308
f 1304 1309 1317
f 1304 1317 1316
f 1304 1316 1328
f 1304 1328 1340
f 1304 1340 1358
f 1304 1358 1376
f 1304 1376 1392
f 1304 1392 1391
f 1304 1391 1400
f 1304 1400 1401
f 1304 1401 1393
f 1304 1393 1379
f 1304 1379 1361
f 1304 1361 1343
f 1304 1343 1331
f 1304 1331 1320
f 1304 1320 1310
f 1305 1311 1312
f 1305 1312 1313
f 1306 1314 1308
f 1307 1315 1316
f 1307 1316 1317
f 1307 1317 1309
f 1308 1314 1318
f 1308 1318 1319
f 1310 1320 1321
f 1311 1322 1323
f 1311 1323 1312
f 1312 1323 1324
f 1312 1324 1313
f 1313 1324 1325
f 1315 1326 1316
f 1316 1326 1327
f 1316 1327 1328
f 1318 1329 1330
f 1318 1330 1319
f 1320 1331 1347
f 1320 1347 1332
f 1320 1332 1321
f 1321 1332 1349
f 1321 1349 1333
f 1322 1334 1335
f 1322 1335 1323
f 1323 1335 1336
f 1323 1336 1337
f 1323 1337 1324
f 1324 1337 1325
f 1325 1337 1338
f 1327 1339 1340
f 1327 1340 1328
f 1329 1341 1360
f 1329 1360 1342
f 1329 1342 1330
f 1331 1343 1344
f 1331 1344 1345
f 1331 1345 1346
f 1331 1346 1347
f 1332 1347 1348
f 1332 1348 1349
f 1333 1349 1350
f 1334 1351 1352
f 1334 1352 1335
f 1335 1353 1337
f 1335 1337 1336
f 1335 1352 1353
f 1337 1354 1338
f 1337 1353 1355
f 1338 1354 1356
f 1339 1357 1340
f 1340 1357 1358
f 1341 1359 1360
f 1343 1361 1344
f 1344 1361 1362
f 1346 1363 1347
f 1347 1363 1348
f 1348 1364 1349
f 1348 1363 1364
f 1349 1364 1365
f 1349 1365 1350
f 1350 1365 1366
f 1350 1366 1367
f 1351 1368 1352
f 1352 1368 1369
f 1352 1369 1370
f 1352 1370 1371
f 1352 1371 1353
f 1353 1371 1355
f 1354 1372 1356
f 1356 1372 1374
f 1356 1374 1373
f 1357 1375 1376
f 1357 1376 1358
f 1359 1377 1378
f 1359 1378 1360
f 1361 1379 1362
f 1362 1379 1380
f 1363 1381 1365
f 1363 1365 1364
f 1365 1381 1382
f 1365 1382 1366
f 1366 1383 1367
f 1366 1382 1384
f 1366 1384 1383
f 1368 1385 1369
f 1369 1386 1370
f 1369 1385 1387
f 1369 1387 1386
f 1370 1386 1388
f 1370 1388 1371
f 1373 1374 1377
f 1374 1389 1377
f 1375 1390 1391
f 1375 1391 1392
f 1375 1392 1376
f 1377 1389 1378
f 1379 1393 1394
f 1379 1394 1380
f 1381 1384 1382
f 1383 1384 1395
f 1384 1396 1395
f 1386 1387 1398
f 1386 1398 1397
f 1390 1399 1400
f 1390 1400 1391
f 1393 1401 1402
f 1393 1402 1394
f 1395 1396 1398
f 1396 1397 1398
f 1399 1403 1401
f 1399 1401 1400
f 1401 1403 1402

