# Blender 5.0.1
# www.blender.org
mtllib materials.mtl
o thumb_metacarpals_base1
v 0.000779 0.001282 0.001069
v 0.001217 0.002742 0.001069
v 0.000463 0.001427 0.001069
v 0.000749 0.002905 0.001069
v 0.000121 0.001495 0.001069
v 0.000260 0.002989 0.001069
v -0.000227 0.001483 0.001069
v -0.000294 -0.001471 0.001069
v -0.000260 -0.002989 0.001069
v 0.000053 -0.001499 0.001069
v 0.000235 -0.002991 0.001069
v 0.000398 -0.001446 0.001069
v -0.000868 0.001223 0.001069
v -0.002022 0.002216 0.001069
v -0.001127 0.000990 0.001069
v -0.002360 0.001853 0.001069
v -0.001325 0.000703 0.001069
v -0.002632 0.001439 0.001069
v -0.001451 0.000379 0.001069
v -0.000235 0.002991 0.001069
v -0.000724 0.002911 0.001069
v -0.000563 0.001390 0.001069
v -0.001193 0.002752 0.001069
v -0.001630 0.002518 0.001069
v 0.001486 -0.000208 0.001069
v 0.003000 -0.000013 0.001069
v 0.001493 0.000140 0.001069
v 0.002961 0.000481 0.001069
v 0.001421 0.000481 0.001069
v 0.002842 0.000962 0.001069
v 0.001272 0.000796 0.001069
v 0.001234 -0.000852 0.001069
v 0.002632 -0.001439 0.001069
v 0.001398 -0.000545 0.001069
v 0.002833 -0.000986 0.001069
v 0.002957 -0.000506 0.001069
v 0.000724 -0.002911 0.001069
v 0.001193 -0.002752 0.001069
v 0.000720 -0.001316 0.001069
v 0.001630 -0.002518 0.001069
v 0.001004 -0.001114 0.001069
v 0.002022 -0.002216 0.001069
v 0.002360 -0.001853 0.001069
v -0.001171 -0.000938 0.001069
v -0.002041 -0.002199 0.001069
v -0.000923 -0.001183 0.001069
v -0.001651 -0.002505 0.001069
v -0.000625 -0.001364 0.001069
v -0.001217 -0.002742 0.001069
v -0.000749 -0.002905 0.001069
v 0.002644 0.001417 0.001069
v 0.002375 0.001833 0.001069
v 0.001054 0.001068 0.001069
v 0.002041 0.002199 0.001069
v 0.001651 0.002505 0.001069
v -0.002833 0.000986 0.001069
v -0.002957 0.000506 0.001069
v -0.001500 0.000034 0.001069
v -0.003000 0.000013 0.001069
v -0.001467 -0.000313 0.001069
v -0.002961 -0.000481 0.001069
v -0.001421 -0.000481 0.001069
v -0.002842 -0.000962 0.001069
v -0.001355 -0.000643 0.001069
v -0.002644 -0.001417 0.001069
v -0.002375 -0.001833 0.001069
v 0.002644 0.001417 -0.001431
v 0.002375 0.001833 -0.001431
v 0.002041 0.002199 -0.001431
v 0.001651 0.002505 -0.001431
v 0.001217 0.002742 -0.001431
v 0.000749 0.002905 -0.001431
v 0.000260 0.002989 -0.001431
v -0.000235 0.002991 -0.001431
v -0.000724 0.002911 -0.001431
v -0.001193 0.002752 -0.001431
v -0.001630 0.002518 -0.001431
v -0.002022 0.002216 -0.001431
v -0.002360 0.001853 -0.001431
v -0.002632 0.001439 -0.001431
v -0.002833 0.000986 -0.001431
v -0.002957 0.000506 -0.001431
v -0.003000 0.000013 -0.001431
v -0.002961 -0.000481 -0.001431
v -0.002842 -0.000962 -0.001431
v -0.002644 -0.001417 -0.001431
v -0.002375 -0.001833 -0.001431
v -0.002041 -0.002199 -0.001431
v -0.001651 -0.002505 -0.001431
v -0.001217 -0.002742 -0.001431
v -0.000749 -0.002905 -0.001431
v -0.000260 -0.002989 -0.001431
v 0.000235 -0.002991 -0.001431
v 0.000724 -0.002911 -0.001431
v 0.001193 -0.002752 -0.001431
v 0.001630 -0.002518 -0.001431
v 0.002022 -0.002216 -0.001431
v 0.002360 -0.001853 -0.001431
v 0.002632 -0.001439 -0.001431
v 0.002833 -0.000986 -0.001431
v 0.002957 -0.000506 -0.001431
v 0.003000 -0.000013 -0.001431
v 0.002961 0.000481 -0.001431
v 0.002842 0.000962 -0.001431
v 0.000053 -0.001499 -0.001431
v -0.000294 -0.001471 -0.001431
v -0.000625 -0.001364 -0.001431
v -0.000923 -0.001183 -0.001431
v -0.000563 0.001390 -0.001431
v -0.000227 0.001483 -0.001431
v 0.000121 0.001495 -0.001431
v 0.000463 0.001427 -0.001431
v 0.000720 -0.001316 -0.001431
v 0.000398 -0.001446 -0.001431
v 0.000779 0.001282 -0.001431
v 0.001054 0.001068 -0.001431
v -0.001127 0.000990 -0.001431
v -0.000868 0.001223 -0.001431
v 0.001398 -0.000545 -0.001431
v 0.001234 -0.000852 -0.001431
v 0.001004 -0.001114 -0.001431
v -0.001500 0.000034 -0.001431
v -0.001451 0.000379 -0.001431
v -0.001325 0.000703 -0.001431
v 0.001493 0.000140 -0.001431
v 0.001486 -0.000208 -0.001431
v 0.001272 0.000796 -0.001431
v 0.001421 0.000481 -0.001431
v -0.001171 -0.000938 -0.001431
v -0.001355 -0.000643 -0.001431
v -0.001421 -0.000481 -0.001431
v -0.001467 -0.000313 -0.001431
v -0.000655 -0.000756 0.009469
v -0.000592 -0.000806 0.009469
v 0.000000 0.000000 0.009469
v -0.000899 -0.000439 0.009469
v -0.000817 -0.000577 0.009469
v -0.000713 -0.000701 0.009469
v -0.001000 0.000029 0.009469
v -0.000991 -0.000132 0.009469
v -0.000957 -0.000289 0.009469
v -0.000872 0.000490 0.009469
v -0.000939 0.000344 0.009469
v -0.000982 0.000189 0.009469
v -0.000544 0.000839 0.009469
v -0.000671 0.000741 0.009469
v -0.000782 0.000624 0.009469
v -0.000092 0.000996 0.009469
v -0.000250 0.000968 0.009469
v -0.000402 0.000916 0.009469
v 0.000382 0.000924 0.009469
v 0.000228 0.000974 0.009469
v 0.000069 0.000998 0.009469
v 0.000768 0.000641 0.009469
v 0.000655 0.000756 0.009469
v 0.000525 0.000851 0.009469
v 0.000978 0.000211 0.009469
v 0.000931 0.000365 0.009469
v 0.000860 0.000510 0.009469
v 0.000964 -0.000267 0.009469
v 0.000994 -0.000109 0.009469
v 0.000999 0.000051 0.009469
v 0.000729 -0.000685 0.009469
v 0.000829 -0.000559 0.009469
v 0.000908 -0.000419 0.009469
v 0.000327 -0.000945 0.009469
v 0.000475 -0.000880 0.009469
v 0.000610 -0.000793 0.009469
v -0.000149 -0.000989 0.009469
v 0.000011 -0.001000 0.009469
v 0.000171 -0.000985 0.009469
v -0.000455 -0.000891 0.009469
v -0.000306 -0.000952 0.009469
v -0.000982 -0.001134 0.008969
v -0.001070 -0.001051 0.008969
v -0.001225 -0.000866 0.008969
v -0.001348 -0.000658 0.008969
v -0.001436 -0.000433 0.008969
v -0.001487 -0.000197 0.008969
v -0.001499 0.000044 0.008969
v -0.001473 0.000284 0.008969
v -0.001408 0.000516 0.008969
v -0.001307 0.000735 0.008969
v -0.001172 0.000936 0.008969
v -0.001007 0.001112 0.008969
v -0.000816 0.001259 0.008969
v -0.000603 0.001373 0.008969
v -0.000375 0.001452 0.008969
v -0.000137 0.001494 0.008969
v 0.000104 0.001496 0.008969
v 0.000343 0.001460 0.008969
v 0.000573 0.001386 0.008969
v 0.000788 0.001277 0.008969
v 0.000982 0.001134 0.008969
v 0.001151 0.000962 0.008969
v 0.001291 0.000764 0.008969
v 0.001397 0.000548 0.008969
v 0.001466 0.000316 0.008969
v 0.001498 0.000077 0.008969
v 0.001491 -0.000164 0.008969
v 0.001445 -0.000401 0.008969
v 0.001362 -0.000628 0.008969
v 0.001244 -0.000838 0.008969
v 0.001093 -0.001027 0.008969
v 0.000914 -0.001189 0.008969
v 0.000712 -0.001320 0.008969
v 0.000491 -0.001417 0.008969
v 0.000257 -0.001478 0.008969
v 0.000017 -0.001500 0.008969
v -0.000224 -0.001483 0.008969
v -0.000459 -0.001428 0.008969
v -0.000682 -0.001336 0.008969
v -0.000888 -0.001209 0.008969
v 0.006436 -0.005012 0.008083
v 0.006377 -0.004602 0.008083
v 0.006113 -0.004479 0.007579
v 0.005161 -0.004035 0.006821
v 0.006155 -0.006766 0.008331
v 0.006157 -0.006757 0.008328
v 0.006341 -0.006066 0.008124
v 0.005682 -0.004278 0.007129
v 0.006243 -0.006463 0.008219
v 0.006225 -0.006528 0.008240
v 0.006416 -0.005665 0.008084
v 0.006427 -0.005587 0.008083
v 0.006445 -0.005391 0.008083
v -0.000773 -0.010537 0.010069
v -0.000770 -0.010544 0.010169
v -0.000707 -0.010718 0.010169
v -0.000332 -0.009387 0.008479
v -0.000444 -0.009699 0.008687
v 0.000558 -0.012389 0.010169
v -0.000235 -0.009091 0.008331
v -0.000238 -0.009100 0.008335
v 0.000974 -0.012413 0.010169
v 0.000776 -0.012441 0.010169
v -0.000566 -0.010008 0.008967
v -0.000592 -0.010072 0.009038
v 0.000092 -0.012058 0.010169
v -0.000452 -0.009719 0.008703
v 0.000327 -0.012260 0.010169
v -0.000678 -0.010274 0.009313
v -0.000690 -0.010303 0.009362
v -0.000137 -0.011792 0.010169
v -0.000352 -0.011471 0.010169
v -0.000769 -0.010502 0.009854
v -0.000736 -0.010411 0.009577
v -0.000545 -0.011108 0.010169
v 0.001308 -0.009383 0.001863
v 0.004691 -0.008152 0.001863
v 0.001308 -0.009383 0.008748
v 0.004691 -0.008152 0.008748
v 0.006751 -0.013814 0.003259
v 0.011121 -0.012223 0.003259
v 0.008750 -0.005709 0.001653
v 0.003369 -0.015045 0.003259
v -0.000531 -0.016464 0.003259
v -0.003618 -0.007983 0.001169
v 0.006067 -0.004458 0.001169
v -0.007120 0.001920 0.001169
v -0.007120 0.001920 0.002819
v -0.007343 0.002238 0.001169
v -0.007343 0.002238 0.002819
v -0.007695 0.002402 0.001169
v -0.007695 0.002402 0.002819
v -0.008082 0.002368 0.001169
v -0.008082 0.002368 0.002819
v -0.008400 0.002145 0.001169
v -0.008400 0.002145 0.002819
v -0.008564 0.001794 0.001169
v -0.008564 0.001794 0.002819
v -0.008530 0.001407 0.001169
v -0.008530 0.001407 0.002819
v -0.008307 0.001089 0.001169
v -0.008307 0.001089 0.002819
v -0.007955 0.000925 0.001169
v -0.007955 0.000925 0.002819
v -0.007569 0.000959 0.001169
v -0.007569 0.000959 0.002819
v -0.007251 0.001181 0.001169
v -0.007251 0.001181 0.002819
v -0.007087 0.001533 0.001169
v -0.007087 0.001533 0.002819
v -0.007120 0.001920 0.005019
v -0.007120 0.001920 0.006669
v -0.007343 0.002238 0.005019
v -0.007343 0.002238 0.006669
v -0.007695 0.002402 0.005019
v -0.007695 0.002402 0.006669
v -0.008082 0.002368 0.005019
v -0.008082 0.002368 0.006669
v -0.008400 0.002145 0.005019
v -0.008400 0.002145 0.006669
v -0.008564 0.001794 0.005019
v -0.008564 0.001794 0.006669
v -0.008530 0.001407 0.005019
v -0.008530 0.001407 0.006669
v -0.008307 0.001089 0.005019
v -0.008307 0.001089 0.006669
v -0.007955 0.000925 0.005019
v -0.007955 0.000925 0.006669
v -0.007569 0.000959 0.005019
v -0.007569 0.000959 0.006669
v -0.007251 0.001181 0.005019
v -0.007251 0.001181 0.006669
v -0.007087 0.001533 0.005019
v -0.007087 0.001533 0.006669
v 0.002819 0.001026 0.006669
v 0.002819 0.001026 0.005019
v 0.002432 0.001757 0.005019
v 0.002432 0.001757 0.006669
v 0.001860 0.002354 0.005019
v 0.001860 0.002354 0.006669
v 0.001146 0.002772 0.005019
v 0.001146 0.002772 0.006669
v 0.000346 0.002980 0.005019
v 0.000346 0.002980 0.006669
v -0.007566 0.003898 0.006669
v -0.007566 0.003898 0.005019
v -0.008497 -0.000484 0.005019
v -0.008497 -0.000484 0.006669
v -0.009227 -0.000097 0.006669
v -0.009227 -0.000097 0.005019
v -0.009768 0.000528 0.006669
v -0.009768 0.000528 0.005019
v -0.010047 0.001305 0.006669
v -0.010047 0.001305 0.005019
v -0.010026 0.002131 0.006669
v -0.010026 0.002131 0.005019
v -0.009709 0.002894 0.006669
v -0.009709 0.002894 0.005019
v -0.009138 0.003491 0.006669
v -0.009138 0.003491 0.005019
v -0.008390 0.003841 0.006669
v -0.008390 0.003841 0.005019
v -0.006071 -0.001243 0.006669
v -0.006071 -0.001243 0.005019
v -0.006630 0.000292 0.005019
v 0.003002 0.000524 0.005019
v 0.003002 0.000524 0.002819
v -0.006630 0.000292 0.002819
v -0.006431 -0.000254 0.002966
v 0.003200 -0.000022 0.002966
v -0.006286 -0.000653 0.003369
v 0.003346 -0.000421 0.003369
v -0.006246 -0.000762 0.003634
v 0.003385 -0.000530 0.003634
v -0.006233 -0.000799 0.003919
v 0.003399 -0.000567 0.003919
v 0.003385 -0.000530 0.004203
v -0.006246 -0.000762 0.004203
v 0.003346 -0.000421 0.004469
v -0.006286 -0.000653 0.004469
v -0.006431 -0.000254 0.004871
v 0.003200 -0.000022 0.004871
v 0.002819 0.001026 0.002819
v 0.002819 0.001026 0.001169
v 0.002432 0.001757 0.001169
v 0.002432 0.001757 0.002819
v 0.001860 0.002354 0.001169
v 0.001860 0.002354 0.002819
v 0.001146 0.002772 0.001169
v 0.001146 0.002772 0.002819
v 0.000346 0.002980 0.001169
v 0.000346 0.002980 0.002819
v -0.008497 -0.000484 0.001169
v -0.008497 -0.000484 0.002819
v -0.009227 -0.000097 0.002819
v -0.009227 -0.000097 0.001169
v -0.009768 0.000528 0.002819
v -0.009768 0.000528 0.001169
v -0.010047 0.001305 0.002819
v -0.010047 0.001305 0.001169
v -0.010026 0.002131 0.002819
v -0.010026 0.002131 0.001169
v -0.009709 0.002894 0.002819
v -0.009709 0.002894 0.001169
v -0.009138 0.003491 0.002819
v -0.009138 0.003491 0.001169
v -0.008390 0.003841 0.002819
v -0.008390 0.003841 0.001169
v -0.007566 0.003898 0.002819
v -0.007566 0.003898 0.001169
v -0.006071 -0.001243 0.002819
v -0.006071 -0.001243 0.001169
v 0.004559 -0.003755 0.001169
v -0.001656 0.001121 0.001169
v -0.001959 0.000402 0.001169
v -0.001121 -0.001656 0.001169
v -0.001669 -0.001101 0.001169
v -0.001964 -0.000379 0.001169
v -0.001101 0.001669 0.001169
v -0.000379 0.001964 0.001169
v 0.000402 0.001959 0.001169
v 0.001121 0.001656 0.001169
v 0.001669 0.001101 0.001169
v 0.001964 0.000379 0.001169
v 0.001959 -0.000402 0.001169
v 0.001656 -0.001121 0.001169
v -0.000402 -0.001959 0.001169
v 0.000379 -0.001964 0.001169
v 0.001101 -0.001669 0.001169
v 0.004559 -0.003755 0.006669
v -0.001329 -0.006086 0.006669
v 0.004786 -0.003860 0.006669
v 0.001923 -0.000548 0.006669
v 0.001987 0.000229 0.006669
v 0.001748 0.000972 0.006669
v -0.001987 -0.000229 0.006669
v -0.001923 0.000548 0.006669
v 0.001567 -0.001243 0.006669
v 0.000972 -0.001748 0.006669
v 0.000229 -0.001987 0.006669
v -0.001449 -0.006112 0.006669
v -0.000548 -0.001923 0.006669
v -0.003966 -0.007028 0.006669
v -0.001243 -0.001567 0.006669
v -0.001748 -0.000972 0.006669
v -0.001567 0.001243 0.006669
v -0.000972 0.001748 0.006669
v -0.000229 0.001987 0.006669
v 0.000548 0.001923 0.006669
v 0.001243 0.001567 0.006669
v -0.002274 -0.006413 0.008083
v -0.002079 -0.006948 0.008083
v -0.002274 -0.006413 0.007787
v -0.002203 -0.006387 0.007356
v -0.001999 -0.006312 0.006990
v -0.001694 -0.006201 0.006746
v -0.003966 -0.007028 0.008083
v -0.000597 -0.016284 0.007769
v -0.000446 -0.016699 0.007366
v 0.000117 -0.018245 0.008914
v 0.000299 -0.018745 0.008048
v -0.000376 -0.016890 0.006803
v 0.000388 -0.018990 0.007066
v 0.000377 -0.018959 0.006050
v -0.000374 -0.016897 0.006671
v 0.000267 -0.018656 0.005087
v -0.000404 -0.016814 0.006210
v 0.000066 -0.018105 0.004256
v -0.000523 -0.016488 0.005723
v -0.000208 -0.017354 0.003629
v -0.000705 -0.015986 0.005453
v -0.000910 -0.015424 0.005462
v -0.001089 -0.014930 0.005748
v -0.001203 -0.014618 0.006245
v -0.001225 -0.014558 0.006840
v -0.003213 -0.009096 0.008083
v -0.002934 -0.009862 0.008240
v -0.000142 -0.017532 0.009591
v -0.000457 -0.016667 0.010021
v -0.000795 -0.015740 0.007921
v -0.000801 -0.015722 0.010169
v -0.000994 -0.015192 0.007786
v -0.002462 -0.011160 0.010169
v -0.001149 -0.014766 0.007396
v -0.002530 -0.010973 0.009362
v -0.002695 -0.010519 0.008688
v 0.003526 -0.015477 0.006671
v 0.003524 -0.015471 0.006803
v 0.003454 -0.015279 0.007366
v 0.003303 -0.014864 0.007769
v 0.003105 -0.014320 0.007921
v 0.002905 -0.013772 0.007786
v 0.002750 -0.013346 0.007396
v 0.002675 -0.013139 0.006840
v 0.002697 -0.013198 0.006245
v 0.002810 -0.013511 0.005748
v 0.002990 -0.014005 0.005462
v 0.003195 -0.014567 0.005453
v 0.003377 -0.015069 0.005723
v 0.003496 -0.015395 0.006210
v 0.003442 -0.015248 0.010021
v 0.003757 -0.016113 0.009591
v 0.002243 -0.011951 0.010169
v 0.003098 -0.014303 0.010169
v 0.003692 -0.015934 0.003629
v 0.004017 -0.016826 0.008914
v 0.004199 -0.017325 0.008048
v 0.004288 -0.017570 0.007066
v 0.004277 -0.017540 0.006050
v 0.004166 -0.017237 0.005087
v 0.003966 -0.016686 0.004256
v -0.000242 -0.009087 0.008328
v -0.000442 -0.008955 0.008240
v -0.000497 -0.008916 0.008219
v -0.001201 -0.008363 0.008083
v -0.000881 -0.008634 0.008113
v -0.000538 -0.008888 0.008204
v -0.001509 -0.008022 0.008083
v -0.001724 -0.007701 0.008083
v -0.001917 -0.007339 0.008083
v 0.005625 -0.010720 0.010169
v 0.007364 -0.010087 0.010169
v 0.007562 -0.007708 0.010169
v 0.007496 -0.007528 0.010069
v 0.007722 -0.008247 0.010169
v 0.007454 -0.007492 0.009781
v 0.007807 -0.008772 0.010169
v 0.007387 -0.007455 0.009577
v 0.007312 -0.007416 0.009415
v 0.007811 -0.009249 0.010169
v 0.007282 -0.007401 0.009361
v 0.007734 -0.009643 0.010169
v 0.007229 -0.007374 0.009272
v 0.006706 -0.007096 0.008687
v 0.006472 -0.006962 0.008514
v 0.006786 -0.007141 0.008756
v 0.007059 -0.007287 0.009038
v 0.006832 -0.007166 0.008798
v 0.007582 -0.009929 0.010169
v 0.007480 -0.010025 0.010169
v 0.006419 -0.006930 0.008479
v 0.006162 -0.006770 0.008335
v 0.010851 -0.011481 0.010169
v 0.006481 -0.013072 0.010169
v 0.007499 -0.007535 0.010169
v 0.009190 -0.006919 0.010169
v 0.011445 -0.013112 0.003629
v 0.007075 -0.014703 0.003629
v 0.011718 -0.013864 0.004256
v 0.007349 -0.015455 0.004256
v 0.011919 -0.014415 0.005087
v 0.007549 -0.016005 0.005087
v 0.012029 -0.014718 0.006050
v 0.007660 -0.016309 0.006050
v 0.012040 -0.014749 0.007066
v 0.007671 -0.016339 0.007066
v 0.011951 -0.014504 0.008048
v 0.007582 -0.016094 0.008048
v 0.011769 -0.014004 0.008914
v 0.007400 -0.015594 0.008914
v 0.011510 -0.013291 0.009591
v 0.007140 -0.014882 0.009591
v 0.011195 -0.012426 0.010021
v 0.006825 -0.014016 0.010021
v 0.006757 -0.013829 0.007934
v 0.006917 -0.014270 0.007459
v 0.006045 -0.011873 0.005878
v 0.006992 -0.014473 0.006827
v 0.005971 -0.011670 0.006510
v 0.005998 -0.011744 0.007173
v 0.006994 -0.014481 0.006669
v 0.006965 -0.014399 0.006164
v 0.006842 -0.014062 0.005601
v 0.006648 -0.013529 0.005250
v 0.006421 -0.012905 0.005179
v 0.006206 -0.012314 0.005403
v 0.006121 -0.012081 0.007736
v 0.006315 -0.012614 0.008087
v 0.006542 -0.013238 0.008158
v 0.010490 -0.010491 0.007736
v 0.010368 -0.010154 0.007173
v 0.010341 -0.010080 0.006510
v 0.010415 -0.010283 0.005878
v 0.010575 -0.010724 0.005403
v 0.010790 -0.011315 0.005179
v 0.011017 -0.011938 0.005250
v 0.011211 -0.012472 0.005601
v 0.011334 -0.012809 0.006164
v 0.010685 -0.011024 0.008087
v 0.010851 -0.011481 0.008169
v 0.010912 -0.011648 0.008158
v 0.011127 -0.012239 0.007934
v 0.011287 -0.012679 0.007459
v 0.011361 -0.012883 0.006827
v 0.008750 -0.005709 0.008083
v 0.008439 -0.004854 0.008083
v 0.008718 -0.005621 0.008240
v 0.008957 -0.006278 0.008688
v 0.009122 -0.006732 0.009362
v 0.007585 -0.005165 0.008083
v 0.000655 0.000756 -0.001631
v 0.000713 0.000701 -0.001631
v 0.000000 0.000000 -0.001631
v 0.000306 0.000952 -0.001631
v 0.000455 0.000891 -0.001631
v 0.000592 0.000806 -0.001631
v -0.000171 0.000985 -0.001631
v -0.000011 0.001000 -0.001631
v 0.000149 0.000989 -0.001631
v -0.000610 0.000793 -0.001631
v -0.000475 0.000880 -0.001631
v -0.000327 0.000945 -0.001631
v -0.000908 0.000419 -0.001631
v -0.000829 0.000559 -0.001631
v -0.000729 0.000685 -0.001631
v -0.000999 -0.000051 -0.001631
v -0.000994 0.000109 -0.001631
v -0.000964 0.000268 -0.001631
v -0.000860 -0.000510 -0.001631
v -0.000931 -0.000365 -0.001631
v -0.000978 -0.000211 -0.001631
v -0.000525 -0.000851 -0.001631
v -0.000655 -0.000756 -0.001631
v -0.000768 -0.000641 -0.001631
v -0.000069 -0.000998 -0.001631
v -0.000228 -0.000974 -0.001631
v -0.000382 -0.000924 -0.001631
v 0.000402 -0.000916 -0.001631
v 0.000250 -0.000968 -0.001631
v 0.000092 -0.000996 -0.001631
v 0.000782 -0.000624 -0.001631
v 0.000671 -0.000741 -0.001631
v 0.000544 -0.000839 -0.001631
v 0.000982 -0.000189 -0.001631
v 0.000939 -0.000344 -0.001631
v 0.000872 -0.000490 -0.001631
v 0.000957 0.000289 -0.001631
v 0.000991 0.000132 -0.001631
v 0.001000 -0.000029 -0.001631
v 0.000817 0.000577 -0.001631
v 0.000899 0.000439 -0.001631
v 0.000982 0.001134 -0.001131
v 0.000888 0.001209 -0.001131
v 0.000682 0.001336 -0.001131
v 0.000459 0.001428 -0.001131
v 0.000224 0.001483 -0.001131
v -0.000017 0.001500 -0.001131
v -0.000257 0.001478 -0.001131
v -0.000491 0.001417 -0.001131
v -0.000712 0.001320 -0.001131
v -0.000914 0.001189 -0.001131
v -0.001093 0.001027 -0.001131
v -0.001244 0.000838 -0.001131
v -0.001362 0.000628 -0.001131
v -0.001445 0.000401 -0.001131
v -0.001491 0.000164 -0.001131
v -0.001498 -0.000077 -0.001131
v -0.001466 -0.000316 -0.001131
v -0.001397 -0.000547 -0.001131
v -0.001291 -0.000764 -0.001131
v -0.001151 -0.000962 -0.001131
v -0.000982 -0.001134 -0.001131
v -0.000788 -0.001277 -0.001131
v -0.000573 -0.001386 -0.001131
v -0.000343 -0.001460 -0.001131
v -0.000104 -0.001496 -0.001131
v 0.000137 -0.001494 -0.001131
v 0.000375 -0.001452 -0.001131
v 0.000603 -0.001373 -0.001131
v 0.000816 -0.001259 -0.001131
v 0.001007 -0.001112 -0.001131
v 0.001172 -0.000936 -0.001131
v 0.001307 -0.000735 -0.001131
v 0.001408 -0.000516 -0.001131
v 0.001473 -0.000284 -0.001131
v 0.001499 -0.000044 -0.001131
v 0.001487 0.000197 -0.001131
v 0.001436 0.000433 -0.001131
v 0.001348 0.000658 -0.001131
v 0.001225 0.000866 -0.001131
v 0.001070 0.001051 -0.001131
v -0.000563 0.001390 0.006769
v -0.000724 0.002911 0.006769
v -0.000227 0.001483 0.006769
v -0.000235 0.002991 0.006769
v 0.000121 0.001495 0.006769
v 0.000260 0.002989 0.006769
v 0.000463 0.001427 0.006769
v 0.000053 -0.001499 0.006769
v -0.000260 -0.002989 0.006769
v -0.000294 -0.001471 0.006769
v -0.000749 -0.002905 0.006769
v -0.000625 -0.001364 0.006769
v -0.001217 -0.002742 0.006769
v -0.000923 -0.001183 0.006769
v 0.000720 -0.001316 0.006769
v 0.001193 -0.002752 0.006769
v 0.000398 -0.001446 0.006769
v 0.000724 -0.002911 0.006769
v 0.000235 -0.002991 0.006769
v 0.001398 -0.000545 0.006769
v 0.002632 -0.001439 0.006769
v 0.001234 -0.000852 0.006769
v 0.002360 -0.001853 0.006769
v 0.001004 -0.001114 0.006769
v 0.002022 -0.002216 0.006769
v 0.001630 -0.002518 0.006769
v 0.000749 0.002905 0.006769
v 0.001217 0.002742 0.006769
v 0.000779 0.001282 0.006769
v 0.001651 0.002505 0.006769
v 0.001054 0.001068 0.006769
v -0.001127 0.000990 0.006769
v -0.002022 0.002216 0.006769
v -0.000868 0.001223 0.006769
v -0.001630 0.002518 0.006769
v -0.001193 0.002752 0.006769
v -0.001500 0.000034 0.006769
v -0.002957 0.000506 0.006769
v -0.001451 0.000379 0.006769
v -0.002833 0.000986 0.006769
v -0.001325 0.000703 0.006769
v -0.002632 0.001439 0.006769
v -0.002360 0.001853 0.006769
v 0.001493 0.000140 0.006769
v 0.003000 -0.000013 0.006769
v 0.001486 -0.000208 0.006769
v 0.002957 -0.000506 0.006769
v 0.002833 -0.000986 0.006769
v 0.002041 0.002199 0.006769
v 0.002375 0.001833 0.006769
v 0.001272 0.000796 0.006769
v 0.002644 0.001417 0.006769
v 0.001421 0.000481 0.006769
v 0.002842 0.000962 0.006769
v 0.002961 0.000481 0.006769
v -0.001651 -0.002505 0.006769
v -0.002041 -0.002199 0.006769
v -0.001171 -0.000938 0.006769
v -0.002375 -0.001833 0.006769
v -0.001355 -0.000643 0.006769
v -0.002644 -0.001417 0.006769
v -0.001421 -0.000481 0.006769
v -0.002842 -0.000962 0.006769
v -0.001467 -0.000313 0.006769
v -0.002961 -0.000481 0.006769
v -0.003000 0.000013 0.006769
v 0.002961 0.000481 0.009269
v 0.003000 -0.000013 0.009269
v 0.002957 -0.000506 0.009269
v 0.002833 -0.000986 0.009269
v 0.002632 -0.001439 0.009269
v 0.002360 -0.001853 0.009269
v 0.002022 -0.002216 0.009269
v 0.001630 -0.002518 0.009269
v 0.001193 -0.002752 0.009269
v 0.000724 -0.002911 0.009269
v 0.000235 -0.002991 0.009269
v -0.000260 -0.002989 0.009269
v -0.000749 -0.002905 0.009269
v -0.001217 -0.002742 0.009269
v -0.001651 -0.002505 0.009269
v -0.002041 -0.002199 0.009269
v -0.002375 -0.001833 0.009269
v -0.002644 -0.001417 0.009269
v -0.002842 -0.000962 0.009269
v -0.002961 -0.000481 0.009269
v -0.003000 0.000013 0.009269
v -0.002957 0.000506 0.009269
v -0.002833 0.000986 0.009269
v -0.002632 0.001439 0.009269
v -0.002360 0.001853 0.009269
v -0.002022 0.002216 0.009269
v -0.001630 0.002518 0.009269
v -0.001193 0.002752 0.009269
v -0.000724 0.002911 0.009269
v -0.000235 0.002991 0.009269
v 0.000260 0.002989 0.009269
v 0.000749 0.002905 0.009269
v 0.001217 0.002742 0.009269
v 0.001651 0.002505 0.009269
v 0.002041 0.002199 0.009269
v 0.002375 0.001833 0.009269
v 0.002644 0.001417 0.009269
v 0.002842 0.000962 0.009269
v 0.000779 0.001282 0.009269
v 0.000463 0.001427 0.009269
v 0.000121 0.001495 0.009269
v -0.000227 0.001483 0.009269
v -0.000294 -0.001471 0.009269
v 0.000053 -0.001499 0.009269
v 0.000398 -0.001446 0.009269
v -0.000868 0.001223 0.009269
v -0.001127 0.000990 0.009269
v -0.001325 0.000703 0.009269
v -0.001451 0.000379 0.009269
v -0.000563 0.001390 0.009269
v 0.001486 -0.000208 0.009269
v 0.001493 0.000140 0.009269
v 0.001421 0.000481 0.009269
v 0.001272 0.000796 0.009269
v 0.001234 -0.000852 0.009269
v 0.001398 -0.000545 0.009269
v 0.000720 -0.001316 0.009269
v 0.001004 -0.001114 0.009269
v -0.001171 -0.000938 0.009269
v -0.000923 -0.001183 0.009269
v -0.000625 -0.001364 0.009269
v 0.001054 0.001068 0.009269
v -0.001500 0.000034 0.009269
v -0.001467 -0.000313 0.009269
v -0.001421 -0.000481 0.009269
v -0.001355 -0.000643 0.009269
vn -0.0000 -0.0000 1.0000
vn 0.9175 0.3978 -0.0000
vn 0.8395 0.5434 -0.0000
vn 0.7386 0.6742 -0.0000
vn 0.6176 0.7865 -0.0000
vn 0.6175 0.7865 -0.0000
vn 0.4797 0.8774 -0.0000
vn 0.3287 0.9444 -0.0000
vn 0.1688 0.9857 -0.0000
vn 0.0042 1.0000 -0.0000
vn 0.0043 1.0000 -0.0000
vn -0.1604 0.9870 -0.0000
vn -0.3207 0.9472 -0.0000
vn -0.4722 0.8815 -0.0000
vn -0.6109 0.7917 -0.0000
vn -0.7328 0.6804 -0.0000
vn -0.8348 0.5505 -0.0000
vn -0.9141 0.4056 -0.0000
vn -0.9684 0.2496 -0.0000
vn -0.9962 0.0868 -0.0000
vn -0.9969 -0.0784 -0.0000
vn -0.9704 -0.2414 -0.0000
vn -0.9175 -0.3978 -0.0000
vn -0.8395 -0.5434 -0.0000
vn -0.7386 -0.6742 -0.0000
vn -0.6176 -0.7865 -0.0000
vn -0.4797 -0.8774 -0.0000
vn -0.4796 -0.8775 -0.0000
vn -0.3287 -0.9444 -0.0000
vn -0.1688 -0.9857 -0.0000
vn -0.0042 -1.0000 -0.0000
vn 0.1604 -0.9870 -0.0000
vn 0.3207 -0.9472 -0.0000
vn 0.4722 -0.8815 -0.0000
vn 0.6109 -0.7917 -0.0000
vn 0.7328 -0.6804 -0.0000
vn 0.7329 -0.6804 -0.0000
vn 0.8348 -0.5505 -0.0000
vn 0.9141 -0.4056 -0.0000
vn 0.9684 -0.2496 -0.0000
vn 0.9962 -0.0868 -0.0000
vn 0.9969 0.0784 -0.0000
vn 0.9704 0.2414 -0.0000
vn -0.0000 -0.0000 -1.0000
vn -0.9035 -0.4285 -0.0000
vn -0.7804 -0.6253 -0.0000
vn -0.6151 -0.7884 -0.0000
vn -0.6152 -0.7884 -0.0000
vn -0.4168 -0.9090 -0.0000
vn -0.4167 -0.9090 -0.0000
vn -0.1959 -0.9806 -0.0000
vn 0.0356 -0.9994 -0.0000
vn 0.2651 -0.9642 -0.0000
vn 0.4803 -0.8771 -0.0000
vn 0.6696 -0.7427 -0.0000
vn 0.8229 -0.5682 -0.0000
vn 0.9317 -0.3632 -0.0000
vn 0.9904 -0.1385 -0.0000
vn 0.9956 0.0936 -0.0000
vn 0.9642 0.2651 -0.0000
vn 0.9269 0.3752 -0.0000
vn 0.8477 0.5305 -0.0000
vn 0.7025 0.7117 -0.0000
vn 0.5194 0.8545 -0.0000
vn 0.3084 0.9513 -0.0000
vn 0.0807 0.9967 -0.0000
vn -0.1513 0.9885 -0.0000
vn -0.3752 0.9269 -0.0000
vn -0.5789 0.8154 -0.0000
vn -0.7513 0.6599 -0.0000
vn -0.7513 0.6600 -0.0000
vn -0.8833 0.4689 -0.0000
vn -0.9676 0.2526 -0.0000
vn -0.9997 0.0226 -0.0000
vn -0.9780 -0.2086 -0.0000
vn -0.4413 -0.5529 0.7068
vn -0.4843 -0.5156 0.7068
vn -0.5436 -0.4540 0.7060
vn -0.6094 -0.3609 0.7060
vn -0.6594 -0.2585 0.7060
vn -0.6923 -0.1494 0.7060
vn -0.7073 -0.0364 0.7060
vn -0.7040 0.0775 0.7060
vn -0.6824 0.1895 0.7060
vn -0.6432 0.2965 0.7060
vn -0.5873 0.3958 0.7060
vn -0.5163 0.4849 0.7060
vn -0.5162 0.4849 0.7060
vn -0.4317 0.5614 0.7060
vn -0.3361 0.6234 0.7060
vn -0.2318 0.6693 0.7060
vn -0.2317 0.6693 0.7060
vn -0.1214 0.6978 0.7060
vn -0.0079 0.7082 0.7060
vn 0.1057 0.7003 0.7060
vn 0.1058 0.7003 0.7060
vn 0.2168 0.6743 0.7060
vn 0.3222 0.6307 0.7060
vn 0.3221 0.6308 0.7060
vn 0.4191 0.5709 0.7060
vn 0.5053 0.4963 0.7060
vn 0.5784 0.4088 0.7060
vn 0.6364 0.3107 0.7060
vn 0.6365 0.3107 0.7060
vn 0.6781 0.2046 0.7060
vn 0.7021 0.0932 0.7060
vn 0.7080 -0.0206 0.7060
vn 0.6955 -0.1339 0.7060
vn 0.6650 -0.2437 0.7060
vn 0.6650 -0.2438 0.7060
vn 0.6173 -0.3473 0.7060
vn 0.5536 -0.4418 0.7060
vn 0.4755 -0.5249 0.7060
vn 0.3852 -0.5944 0.7060
vn 0.3852 -0.5943 0.7060
vn 0.2849 -0.6484 0.7060
vn 0.2848 -0.6485 0.7060
vn 0.1771 -0.6858 0.7060
vn 0.1772 -0.6857 0.7060
vn 0.0649 -0.7053 0.7060
vn 0.0648 -0.7053 0.7060
vn -0.0491 -0.7066 0.7060
vn -0.1618 -0.6895 0.7060
vn -0.2703 -0.6546 0.7060
vn -0.3718 -0.6028 0.7060
vn -0.4412 -0.5529 0.7068
vn -0.8913 -0.1283 0.4349
vn -0.1592 0.4328 0.8873
vn -0.4355 0.3096 0.8453
vn -0.3555 0.3424 0.8697
vn -0.3054 0.3693 0.8777
vn -0.2290 0.4059 0.8848
vn -0.6245 0.1910 0.7573
vn -0.7034 0.1111 0.7020
vn -0.6859 0.1312 0.7158
vn -0.7721 0.0685 0.6318
vn -0.8518 -0.0204 0.5235
vn 0.9397 0.3420 -0.0000
vn 0.1328 0.5157 0.8464
vn -0.1548 0.4346 0.8872
vn -0.0643 0.4651 0.8829
vn -0.0649 0.4649 0.8830
vn 0.1217 0.5139 0.8492
vn 0.4875 0.5527 0.6759
vn 0.2433 0.5359 0.8085
vn 0.3573 0.5498 0.7551
vn 0.3015 0.5392 0.7863
vn 0.4754 0.5535 0.6838
vn 0.6034 0.5413 0.5856
vn 0.6854 0.5335 0.4956
vn 0.6254 0.5385 0.5646
vn 0.7551 0.5064 0.4165
vn 0.9221 0.3789 0.0784
vn 0.7582 0.5047 0.4127
vn 0.8567 0.4504 0.2515
vn 0.8519 0.4523 0.2638
vn 0.9201 0.3830 0.0816
vn 0.3420 -0.9397 -0.0000
vn 0.0772 -0.2120 -0.9742
vn -0.8192 -0.5736 -0.0000
vn -0.4226 -0.9063 -0.0000
vn 0.0872 -0.9962 -0.0000
vn 0.5736 -0.8192 -0.0000
vn 0.5736 -0.8191 -0.0000
vn 0.9063 -0.4226 -0.0000
vn 0.9962 0.0872 -0.0000
vn 0.8192 0.5736 -0.0000
vn 0.4226 0.9063 -0.0000
vn -0.0872 0.9962 -0.0000
vn -0.5736 0.8192 -0.0000
vn -0.9063 0.4226 -0.0000
vn -0.9962 -0.0872 -0.0000
vn 0.8836 0.4683 -0.0000
vn 0.7222 0.6917 -0.0000
vn 0.5059 0.8626 -0.0000
vn 0.2511 0.9680 -0.0000
vn 0.1153 0.9933 -0.0000
vn -0.4688 -0.8833 -0.0000
vn -0.7560 -0.6546 -0.0000
vn -0.9413 -0.3376 -0.0000
vn -0.9997 0.0248 -0.0000
vn -0.9234 0.3839 -0.0000
vn -0.7226 0.6913 -0.0000
vn -0.4244 0.9055 -0.0000
vn -0.0690 0.9976 -0.0000
vn -0.2987 -0.9543 -0.0000
vn -0.0062 0.2587 0.9659
vn -0.0170 0.7069 0.7071
vn -0.0222 0.9236 0.3827
vn -0.0239 0.9912 0.1306
vn -0.0239 0.9912 0.1305
vn -0.0239 0.9912 -0.1305
vn -0.0222 0.9236 -0.3827
vn -0.0170 0.7069 -0.7071
vn -0.0062 0.2587 -0.9659
vn -0.3420 0.9397 -0.0000
vn -0.9397 -0.3420 -0.0000
vn -0.3415 0.9384 -0.0530
vn -0.3415 0.9384 -0.0529
vn -0.3216 0.8835 -0.3407
vn -0.3216 0.8835 -0.3406
vn -0.2306 0.6335 -0.7386
vn -0.2306 0.6335 -0.7385
vn -0.0868 0.2384 -0.9673
vn 0.0769 -0.2113 -0.9744
vn 0.2230 -0.6126 -0.7583
vn 0.3180 -0.8736 -0.3685
vn 0.3179 -0.8736 -0.3685
vn 0.3401 -0.9344 0.1057
vn 0.3401 -0.9344 0.1058
vn 0.2843 -0.7812 0.5558
vn 0.2843 -0.7812 0.5557
vn 0.1634 -0.4490 0.8784
vn 0.0051 -0.0140 0.9999
vn -0.1544 0.4243 0.8923
vn -0.2786 0.7653 0.5803
vn -0.3360 0.9230 0.1876
vn 0.1247 -0.3427 -0.9311
vn 0.2110 -0.5796 -0.7871
vn 0.2794 -0.7677 -0.5767
vn 0.3243 -0.8910 -0.3177
vn 0.3418 -0.9392 -0.0319
vn 0.3306 -0.9082 0.2566
vn 0.2914 -0.8007 0.5234
vn 0.2277 -0.6256 0.7462
vn 0.1448 -0.3978 0.9060
vn 0.0497 -0.1364 0.9894
vn -0.1419 0.3898 0.9099
vn -0.1225 0.3366 0.9336
vn -0.0284 0.0779 0.9966
vn -0.0490 0.1830 0.9819
vn -0.0815 0.2359 0.9683
vn -0.1147 0.3165 0.9416
vn -0.2608 0.7647 0.5892
vn -0.2560 0.7057 0.6607
vn -0.2368 0.6506 0.7216
vn -0.1844 0.5067 0.8422
vn -0.1800 0.5893 0.7876
vn -0.1673 0.4838 0.8591
vn -0.0646 0.4652 0.8829
vn -0.1553 0.4346 0.8871
vn -0.2942 0.9440 0.1495
vn -0.3234 0.9154 0.2396
vn -0.3411 0.9371 0.0747
vn -0.3169 0.9117 0.2616
vn -0.3177 0.8728 0.3704
vn -0.2780 0.7639 0.5824
vn -0.2443 0.8578 0.4522
vn -0.2596 0.8147 0.5185
vn 0.3909 0.5466 0.7405
vn 0.8909 0.4200 0.1731
vn 0.9143 0.3806 0.1387
vn 0.8534 0.4531 0.2576
vn 0.6937 0.5252 0.4930
vn 0.7431 0.4984 0.4465
vn 0.6045 0.5448 0.5812
vn 0.0282 0.4865 0.8732
vn -0.1007 0.4562 0.8842
vn 0.1616 0.5179 0.8401
vn 0.0848 0.5098 0.8561
vn 0.3932 0.5470 0.7390
vn -0.0029 0.4797 0.8774
vn -0.0855 0.4582 0.8847
vn -0.1552 0.4343 0.8873
vn -0.1578 0.4334 0.8873
vn -0.1577 0.4334 0.8873
vn -0.9522 -0.2825 0.1158
vn -0.9530 -0.2842 0.1052
vn -0.9255 -0.1496 0.3479
vn -0.9439 -0.1753 0.2799
vn -0.9114 -0.1130 0.3956
vn -0.8417 -0.0075 0.5398
vn -0.8832 -0.0490 0.4664
vn -0.6670 0.1297 0.7337
vn -0.8565 0.0131 0.5159
vn -0.4381 0.3198 0.8401
vn -0.5304 0.2797 0.8003
vn -0.7964 0.0604 0.6017
vn -0.6805 0.1491 0.7174
vn -0.5054 0.2696 0.8197
vn -0.5851 0.2274 0.7784
vn -0.3302 0.3500 0.8766
vn -0.2079 0.3895 0.8972
vn -0.3472 0.3595 0.8661
vn -0.2497 0.3976 0.8829
vn -0.1599 0.4326 0.8873
vn 0.3419 -0.9392 -0.0319
vn 0.1801 -0.4950 -0.8500
vn 0.2885 -0.7925 -0.5373
vn 0.3396 -0.9331 -0.1182
vn 0.3235 -0.8889 0.3243
vn 0.3235 -0.8889 0.3244
vn 0.2434 -0.6686 0.7027
vn 0.1150 -0.3159 0.9418
vn -0.0362 0.0994 0.9944
vn -0.1801 0.4950 0.8500
vn -0.2885 0.7925 0.5373
vn 0.0562 -0.1545 -0.9864
vn 0.0421 -0.0972 -0.9944
vn -0.0202 0.0556 -0.9982
vn -0.1150 0.3159 -0.9418
vn -0.2434 0.6686 -0.7027
vn -0.3235 0.8889 -0.3244
vn -0.3235 0.8889 -0.3243
vn -0.3451 0.9311 0.1182
vn -0.3370 0.9259 0.1706
vn -0.3208 0.8767 0.3584
vn -0.3398 0.8985 0.2778
vn -0.3522 0.9047 0.2396
vn -0.3421 0.9253 0.1638
vn -0.2503 0.6837 0.6855
vn -0.2408 0.6616 0.7101
vn -0.2733 0.7311 0.6251
vn -0.3212 0.7870 0.5268
vn -0.2859 0.7610 0.5823
vn -0.3073 0.8441 0.4394
vn -0.3124 0.8584 0.4069
vn -0.2197 0.6036 0.7664
vn -0.1971 0.5020 0.8421
vn -0.2160 0.5294 0.8204
vn -0.0691 0.1106 0.9915
vn -0.0054 0.0149 0.9999
vn -0.0697 0.1652 0.9838
vn -0.0645 0.1773 0.9820
vn -0.1598 0.4329 0.8872
vn -0.2497 0.3978 0.8828
vn -0.2415 0.4080 0.8805
vn -0.1623 0.4460 0.8802
vn -0.1225 0.3367 0.9336
vn -0.0945 0.2536 0.9627
vn 0.4844 0.5156 -0.7068
vn 0.4412 0.5529 -0.7068
vn 0.4413 0.5529 -0.7068
vn 0.3718 0.6028 -0.7060
vn 0.2703 0.6547 -0.7060
vn 0.2703 0.6546 -0.7060
vn 0.1618 0.6895 -0.7060
vn 0.0491 0.7065 -0.7060
vn -0.0648 0.7053 -0.7060
vn -0.0649 0.7053 -0.7060
vn -0.1772 0.6857 -0.7060
vn -0.1771 0.6857 -0.7060
vn -0.2848 0.6484 -0.7060
vn -0.2849 0.6484 -0.7060
vn -0.3852 0.5943 -0.7060
vn -0.4755 0.5249 -0.7060
vn -0.5536 0.4418 -0.7060
vn -0.6173 0.3473 -0.7060
vn -0.6650 0.2438 -0.7060
vn -0.6955 0.1339 -0.7060
vn -0.7080 0.0206 -0.7060
vn -0.7021 -0.0932 -0.7060
vn -0.6781 -0.2046 -0.7060
vn -0.6364 -0.3107 -0.7060
vn -0.6365 -0.3107 -0.7060
vn -0.5784 -0.4088 -0.7060
vn -0.5783 -0.4088 -0.7060
vn -0.5053 -0.4963 -0.7060
vn -0.4192 -0.5709 -0.7060
vn -0.3221 -0.6308 -0.7060
vn -0.3221 -0.6307 -0.7060
vn -0.2168 -0.6743 -0.7060
vn -0.1058 -0.7003 -0.7060
vn 0.0079 -0.7082 -0.7060
vn 0.1214 -0.6978 -0.7060
vn 0.2318 -0.6693 -0.7060
vn 0.2317 -0.6693 -0.7060
vn 0.3361 -0.6234 -0.7060
vn 0.4318 -0.5614 -0.7060
vn 0.5162 -0.4849 -0.7060
vn 0.5873 -0.3958 -0.7060
vn 0.6432 -0.2965 -0.7060
vn 0.6824 -0.1895 -0.7060
vn 0.7040 -0.0775 -0.7060
vn 0.7073 0.0364 -0.7060
vn 0.6923 0.1494 -0.7060
vn 0.6594 0.2585 -0.7060
vn 0.6094 0.3609 -0.7060
vn 0.6094 0.3610 -0.7060
vn 0.5436 0.4540 -0.7060
vn 0.4843 0.5156 -0.7068
vn 0.1604 -0.9871 -0.0000
s 0
usemtl black_metal
f 1//1 2//1 3//1
f 3//1 2//1 4//1
f 3//1 4//1 5//1
f 5//1 4//1 6//1
f 5//1 6//1 7//1
f 8//1 9//1 10//1
f 10//1 9//1 11//1
f 10//1 11//1 12//1
f 13//1 14//1 15//1
f 15//1 14//1 16//1
f 15//1 16//1 17//1
f 17//1 16//1 18//1
f 17//1 18//1 19//1
f 6//1 20//1 7//1
f 7//1 20//1 21//1
f 7//1 21//1 22//1
f 22//1 21//1 23//1
f 22//1 23//1 13//1
f 13//1 23//1 24//1
f 13//1 24//1 14//1
f 25//1 26//1 27//1
f 27//1 26//1 28//1
f 27//1 28//1 29//1
f 29//1 28//1 30//1
f 29//1 30//1 31//1
f 32//1 33//1 34//1
f 34//1 33//1 35//1
f 34//1 35//1 25//1
f 25//1 35//1 36//1
f 25//1 36//1 26//1
f 11//1 37//1 12//1
f 12//1 37//1 38//1
f 12//1 38//1 39//1
f 39//1 38//1 40//1
f 39//1 40//1 41//1
f 41//1 40//1 42//1
f 41//1 42//1 32//1
f 32//1 42//1 43//1
f 32//1 43//1 33//1
f 44//1 45//1 46//1
f 46//1 45//1 47//1
f 46//1 47//1 48//1
f 48//1 47//1 49//1
f 48//1 49//1 8//1
f 8//1 49//1 50//1
f 8//1 50//1 9//1
f 30//1 51//1 31//1
f 31//1 51//1 52//1
f 31//1 52//1 53//1
f 53//1 52//1 54//1
f 53//1 54//1 1//1
f 1//1 54//1 55//1
f 1//1 55//1 2//1
f 18//1 56//1 19//1
f 19//1 56//1 57//1
f 19//1 57//1 58//1
f 58//1 57//1 59//1
f 58//1 59//1 60//1
f 60//1 59//1 61//1
f 60//1 61//1 62//1
f 62//1 61//1 63//1
f 62//1 63//1 64//1
f 64//1 63//1 65//1
f 64//1 65//1 44//1
f 44//1 65//1 66//1
f 44//1 66//1 45//1
f 30//2 67//2 51//2
f 51//3 67//3 68//3
f 51//3 68//3 52//3
f 52//4 68//4 69//4
f 52//4 69//4 54//4
f 54//5 69//5 70//5
f 54//6 70//6 55//6
f 55//7 70//7 71//7
f 55//7 71//7 2//7
f 2//8 71//8 72//8
f 2//8 72//8 4//8
f 4//9 72//9 73//9
f 4//9 73//9 6//9
f 6//10 73//10 74//10
f 6//11 74//11 20//11
f 20//12 74//12 75//12
f 20//12 75//12 21//12
f 21//13 75//13 76//13
f 21//13 76//13 23//13
f 23//14 76//14 77//14
f 23//14 77//14 24//14
f 24//15 77//15 78//15
f 24//15 78//15 14//15
f 14//16 78//16 79//16
f 14//16 79//16 16//16
f 16//17 79//17 80//17
f 16//17 80//17 18//17
f 18//18 80//18 81//18
f 18//18 81//18 56//18
f 56//19 81//19 82//19
f 56//19 82//19 57//19
f 57//20 82//20 83//20
f 57//20 83//20 59//20
f 59//21 83//21 84//21
f 59//21 84//21 61//21
f 61//22 84//22 85//22
f 61//22 85//22 63//22
f 63//23 85//23 86//23
f 63//23 86//23 65//23
f 65//24 86//24 87//24
f 65//24 87//24 66//24
f 66//25 87//25 88//25
f 66//25 88//25 45//25
f 45//26 88//26 89//26
f 45//26 89//26 47//26
f 47//27 89//27 90//27
f 47//28 90//28 49//28
f 49//29 90//29 91//29
f 49//29 91//29 50//29
f 50//30 91//30 92//30
f 50//30 92//30 9//30
f 9//31 92//31 93//31
f 9//31 93//31 11//31
f 11//32 93//32 94//32
f 11//32 94//32 37//32
f 37//33 94//33 95//33
f 37//33 95//33 38//33
f 38//34 95//34 96//34
f 38//34 96//34 40//34
f 40//35 96//35 97//35
f 40//35 97//35 42//35
f 42//36 97//36 98//36
f 42//37 98//37 43//37
f 43//38 98//38 99//38
f 43//38 99//38 33//38
f 33//39 99//39 100//39
f 33//39 100//39 35//39
f 35//40 100//40 101//40
f 35//40 101//40 36//40
f 36//41 101//41 102//41
f 36//41 102//41 26//41
f 26//42 102//42 103//42
f 26//42 103//42 28//42
f 28//43 103//43 104//43
f 28//43 104//43 30//43
f 30//2 104//2 67//2
f 105//44 92//44 106//44
f 106//44 92//44 91//44
f 106//44 91//44 107//44
f 107//44 91//44 90//44
f 107//44 90//44 108//44
f 109//44 75//44 110//44
f 110//44 75//44 74//44
f 110//44 74//44 111//44
f 111//44 74//44 73//44
f 111//44 73//44 112//44
f 113//44 95//44 114//44
f 114//44 95//44 94//44
f 114//44 94//44 105//44
f 105//44 94//44 93//44
f 105//44 93//44 92//44
f 73//44 72//44 112//44
f 112//44 72//44 71//44
f 112//44 71//44 115//44
f 115//44 71//44 70//44
f 115//44 70//44 116//44
f 117//44 78//44 118//44
f 118//44 78//44 77//44
f 118//44 77//44 109//44
f 109//44 77//44 76//44
f 109//44 76//44 75//44
f 119//44 99//44 120//44
f 120//44 99//44 98//44
f 120//44 98//44 121//44
f 121//44 98//44 97//44
f 121//44 97//44 113//44
f 113//44 97//44 96//44
f 113//44 96//44 95//44
f 122//44 82//44 123//44
f 123//44 82//44 81//44
f 123//44 81//44 124//44
f 124//44 81//44 80//44
f 124//44 80//44 117//44
f 117//44 80//44 79//44
f 117//44 79//44 78//44
f 125//44 102//44 126//44
f 126//44 102//44 101//44
f 126//44 101//44 119//44
f 119//44 101//44 100//44
f 119//44 100//44 99//44
f 70//44 69//44 116//44
f 116//44 69//44 68//44
f 116//44 68//44 127//44
f 127//44 68//44 67//44
f 127//44 67//44 128//44
f 128//44 67//44 104//44
f 128//44 104//44 125//44
f 125//44 104//44 103//44
f 125//44 103//44 102//44
f 90//44 89//44 108//44
f 108//44 89//44 88//44
f 108//44 88//44 129//44
f 129//44 88//44 87//44
f 129//44 87//44 130//44
f 130//44 87//44 86//44
f 130//44 86//44 131//44
f 131//44 86//44 85//44
f 131//44 85//44 132//44
f 132//44 85//44 84//44
f 132//44 84//44 122//44
f 122//44 84//44 83//44
f 122//44 83//44 82//44
f 128//45 29//45 127//45
f 127//45 29//45 31//45
f 127//46 31//46 116//46
f 116//46 31//46 53//46
f 116//47 53//47 115//47
f 115//48 53//48 1//48
f 115//49 1//49 112//49
f 112//50 1//50 3//50
f 112//51 3//51 111//51
f 111//51 3//51 5//51
f 111//52 5//52 110//52
f 110//52 5//52 7//52
f 110//53 7//53 109//53
f 109//53 7//53 22//53
f 109//54 22//54 118//54
f 118//54 22//54 13//54
f 118//55 13//55 117//55
f 117//55 13//55 15//55
f 117//56 15//56 124//56
f 124//56 15//56 17//56
f 124//57 17//57 123//57
f 123//57 17//57 19//57
f 123//58 19//58 122//58
f 122//58 19//58 58//58
f 122//59 58//59 132//59
f 132//59 58//59 60//59
f 132//60 60//60 131//60
f 131//60 60//60 62//60
f 131//61 62//61 130//61
f 130//61 62//61 64//61
f 130//62 64//62 129//62
f 129//62 64//62 44//62
f 129//63 44//63 108//63
f 108//63 44//63 46//63
f 108//64 46//64 107//64
f 107//64 46//64 48//64
f 107//65 48//65 106//65
f 106//65 48//65 8//65
f 106//66 8//66 105//66
f 105//66 8//66 10//66
f 105//67 10//67 114//67
f 114//67 10//67 12//67
f 114//68 12//68 113//68
f 113//68 12//68 39//68
f 113//69 39//69 121//69
f 121//69 39//69 41//69
f 121//70 41//70 120//70
f 120//71 41//71 32//71
f 120//72 32//72 119//72
f 119//72 32//72 34//72
f 119//73 34//73 126//73
f 126//73 34//73 25//73
f 126//74 25//74 125//74
f 125//74 25//74 27//74
f 125//75 27//75 128//75
f 128//75 27//75 29//75
f 133//1 134//1 135//1
f 136//1 137//1 135//1
f 135//1 137//1 138//1
f 135//1 138//1 133//1
f 139//1 140//1 135//1
f 135//1 140//1 141//1
f 135//1 141//1 136//1
f 142//1 143//1 135//1
f 135//1 143//1 144//1
f 135//1 144//1 139//1
f 145//1 146//1 135//1
f 135//1 146//1 147//1
f 135//1 147//1 142//1
f 148//1 149//1 135//1
f 135//1 149//1 150//1
f 135//1 150//1 145//1
f 151//1 152//1 135//1
f 135//1 152//1 153//1
f 135//1 153//1 148//1
f 154//1 155//1 135//1
f 135//1 155//1 156//1
f 135//1 156//1 151//1
f 157//1 158//1 135//1
f 135//1 158//1 159//1
f 135//1 159//1 154//1
f 160//1 161//1 135//1
f 135//1 161//1 162//1
f 135//1 162//1 157//1
f 163//1 164//1 135//1
f 135//1 164//1 165//1
f 135//1 165//1 160//1
f 166//1 167//1 135//1
f 135//1 167//1 168//1
f 135//1 168//1 163//1
f 169//1 170//1 135//1
f 135//1 170//1 171//1
f 135//1 171//1 166//1
f 134//1 172//1 135//1
f 135//1 172//1 173//1
f 135//1 173//1 169//1
f 134//76 133//76 174//76
f 174//77 133//77 175//77
f 133//77 138//77 175//77
f 175//78 138//78 137//78
f 175//78 137//78 176//78
f 176//79 137//79 136//79
f 176//79 136//79 177//79
f 177//80 136//80 141//80
f 177//80 141//80 178//80
f 178//81 141//81 140//81
f 178//81 140//81 179//81
f 179//82 140//82 139//82
f 179//82 139//82 180//82
f 180//83 139//83 144//83
f 180//83 144//83 181//83
f 181//84 144//84 143//84
f 181//84 143//84 182//84
f 182//85 143//85 142//85
f 182//85 142//85 183//85
f 183//86 142//86 147//86
f 183//86 147//86 184//86
f 184//87 147//87 146//87
f 184//88 146//88 185//88
f 185//89 146//89 145//89
f 185//89 145//89 186//89
f 186//90 145//90 150//90
f 186//90 150//90 187//90
f 187//91 150//91 149//91
f 187//92 149//92 188//92
f 188//93 149//93 148//93
f 188//93 148//93 189//93
f 189//94 148//94 153//94
f 189//94 153//94 190//94
f 190//95 153//95 152//95
f 190//96 152//96 191//96
f 191//97 152//97 151//97
f 191//97 151//97 192//97
f 192//98 151//98 156//98
f 192//99 156//99 193//99
f 193//100 156//100 155//100
f 193//100 155//100 194//100
f 194//101 155//101 154//101
f 194//101 154//101 195//101
f 195//102 154//102 159//102
f 195//102 159//102 196//102
f 196//103 159//103 158//103
f 196//104 158//104 197//104
f 197//105 158//105 157//105
f 197//105 157//105 198//105
f 198//106 157//106 162//106
f 198//106 162//106 199//106
f 199//107 162//107 161//107
f 199//107 161//107 200//107
f 200//108 161//108 160//108
f 200//108 160//108 201//108
f 201//109 160//109 165//109
f 201//110 165//110 202//110
f 202//111 165//111 164//111
f 202//111 164//111 203//111
f 203//112 164//112 163//112
f 203//112 163//112 204//112
f 204//113 163//113 168//113
f 204//113 168//113 205//113
f 205//114 168//114 167//114
f 205//115 167//115 206//115
f 206//116 167//116 166//116
f 206//117 166//117 207//117
f 207//118 166//118 171//118
f 207//119 171//119 208//119
f 208//120 171//120 170//120
f 208//121 170//121 209//121
f 209//122 170//122 169//122
f 209//122 169//122 210//122
f 210//123 169//123 173//123
f 210//123 173//123 211//123
f 211//124 173//124 172//124
f 211//124 172//124 212//124
f 212//125 172//125 134//125
f 212//125 134//125 213//125
f 213//126 134//126 174//126
f 214//127 215//127 216//127
f 217//128 218//128 219//128
f 220//129 221//129 222//129
f 222//130 221//130 217//130
f 222//131 217//131 223//131
f 223//132 217//132 219//132
f 220//133 224//133 221//133
f 221//134 224//134 225//134
f 221//135 225//135 216//135
f 216//136 225//136 226//136
f 216//137 226//137 214//137
f 227//138 228//138 229//138
f 230//139 231//139 232//139
f 233//140 234//140 235//140
f 235//141 234//141 230//141
f 235//142 230//142 236//142
f 236//143 230//143 232//143
f 237//144 238//144 239//144
f 231//145 240//145 232//145
f 232//146 240//146 237//146
f 232//147 237//147 241//147
f 241//148 237//148 239//148
f 238//149 242//149 239//149
f 239//150 242//150 243//150
f 239//151 243//151 244//151
f 244//152 243//152 245//152
f 246//153 227//153 229//153
f 243//154 247//154 245//154
f 245//155 247//155 246//155
f 245//156 246//156 248//156
f 248//157 246//157 229//157
f 249//158 250//158 251//158
f 251//158 250//158 252//158
f 253//159 250//159 254//159
f 254//159 250//159 255//159
f 256//159 257//159 249//159
f 249//159 257//159 258//159
f 249//159 258//159 250//159
f 250//159 258//159 259//159
f 250//159 259//159 255//159
f 260//160 261//160 262//160
f 262//160 261//160 263//160
f 262//161 263//161 264//161
f 264//161 263//161 265//161
f 264//162 265//162 266//162
f 266//162 265//162 267//162
f 266//163 267//163 268//163
f 268//164 267//164 269//164
f 268//165 269//165 270//165
f 270//165 269//165 271//165
f 270//166 271//166 272//166
f 272//166 271//166 273//166
f 272//167 273//167 274//167
f 274//167 273//167 275//167
f 274//168 275//168 276//168
f 276//168 275//168 277//168
f 276//169 277//169 278//169
f 278//169 277//169 279//169
f 278//170 279//170 280//170
f 280//170 279//170 281//170
f 280//171 281//171 282//171
f 282//171 281//171 283//171
f 282//172 283//172 260//172
f 260//172 283//172 261//172
f 284//160 285//160 286//160
f 286//160 285//160 287//160
f 286//161 287//161 288//161
f 288//161 287//161 289//161
f 288//162 289//162 290//162
f 290//162 289//162 291//162
f 290//163 291//163 292//163
f 292//163 291//163 293//163
f 292//165 293//165 294//165
f 294//165 293//165 295//165
f 294//166 295//166 296//166
f 296//166 295//166 297//166
f 296//167 297//167 298//167
f 298//167 297//167 299//167
f 298//168 299//168 300//168
f 300//168 299//168 301//168
f 300//169 301//169 302//169
f 302//169 301//169 303//169
f 302//170 303//170 304//170
f 304//170 303//170 305//170
f 304//171 305//171 306//171
f 306//171 305//171 307//171
f 306//172 307//172 284//172
f 284//172 307//172 285//172
f 308//173 309//173 310//173
f 308//173 310//173 311//173
f 311//174 310//174 312//174
f 311//174 312//174 313//174
f 313//175 312//175 314//175
f 313//175 314//175 315//175
f 315//176 314//176 316//176
f 315//176 316//176 317//176
f 318//177 317//177 319//177
f 319//177 317//177 316//177
f 320//178 321//178 322//178
f 320//178 322//178 323//178
f 323//179 322//179 324//179
f 323//179 324//179 325//179
f 325//180 324//180 326//180
f 325//180 326//180 327//180
f 327//181 326//181 328//181
f 327//181 328//181 329//181
f 329//182 328//182 330//182
f 329//182 330//182 331//182
f 331//183 330//183 332//183
f 331//183 332//183 333//183
f 333//184 332//184 334//184
f 333//184 334//184 335//184
f 335//185 334//185 318//185
f 335//185 318//185 319//185
f 336//186 321//186 337//186
f 337//186 321//186 320//186
f 338//44 337//44 320//44
f 296//44 298//44 323//44
f 323//44 298//44 320//44
f 323//44 325//44 296//44
f 296//44 325//44 327//44
f 296//44 327//44 294//44
f 294//44 327//44 329//44
f 294//44 329//44 292//44
f 306//44 339//44 304//44
f 304//44 339//44 338//44
f 304//44 338//44 302//44
f 302//44 338//44 320//44
f 302//44 320//44 300//44
f 300//44 320//44 298//44
f 329//44 331//44 292//44
f 292//44 331//44 333//44
f 292//44 333//44 290//44
f 290//44 333//44 335//44
f 290//44 335//44 288//44
f 288//44 335//44 319//44
f 288//44 319//44 286//44
f 286//44 319//44 316//44
f 286//44 316//44 284//44
f 312//44 310//44 306//44
f 306//44 310//44 309//44
f 306//44 309//44 339//44
f 284//44 316//44 306//44
f 306//44 316//44 314//44
f 306//44 314//44 312//44
f 340//187 341//187 342//187
f 340//187 342//187 343//187
f 343//188 342//188 344//188
f 343//188 344//188 345//188
f 345//189 344//189 346//189
f 345//189 346//189 347//189
f 347//190 346//190 348//190
f 347//191 348//191 349//191
f 349//192 348//192 350//192
f 350//192 348//192 351//192
f 350//193 351//193 352//193
f 351//193 353//193 352//193
f 352//194 353//194 354//194
f 352//194 354//194 355//194
f 355//195 354//195 338//195
f 355//195 338//195 339//195
f 356//173 357//173 358//173
f 356//173 358//173 359//173
f 359//174 358//174 360//174
f 359//174 360//174 361//174
f 361//175 360//175 362//175
f 361//175 362//175 363//175
f 363//176 362//176 364//176
f 363//176 364//176 365//176
f 366//178 367//178 368//178
f 366//178 368//178 369//178
f 369//179 368//179 370//179
f 369//179 370//179 371//179
f 371//180 370//180 372//180
f 371//180 372//180 373//180
f 373//181 372//181 374//181
f 373//181 374//181 375//181
f 375//182 374//182 376//182
f 375//182 376//182 377//182
f 377//183 376//183 378//183
f 377//183 378//183 379//183
f 379//184 378//184 380//184
f 379//184 380//184 381//184
f 381//185 380//185 382//185
f 381//185 382//185 383//185
f 382//177 365//177 383//177
f 383//177 365//177 364//177
f 384//1 341//1 367//1
f 367//1 341//1 277//1
f 367//1 277//1 368//1
f 368//1 277//1 275//1
f 368//1 275//1 370//1
f 370//1 275//1 273//1
f 370//1 273//1 372//1
f 372//1 273//1 271//1
f 372//1 271//1 374//1
f 374//1 271//1 376//1
f 376//1 271//1 269//1
f 376//1 269//1 378//1
f 378//1 269//1 267//1
f 378//1 267//1 380//1
f 283//1 281//1 341//1
f 341//1 281//1 279//1
f 341//1 279//1 277//1
f 380//1 267//1 382//1
f 382//1 267//1 265//1
f 382//1 265//1 365//1
f 341//1 340//1 283//1
f 283//1 340//1 356//1
f 283//1 356//1 359//1
f 265//1 263//1 365//1
f 365//1 263//1 261//1
f 365//1 261//1 363//1
f 363//1 261//1 283//1
f 363//1 283//1 361//1
f 361//1 283//1 359//1
f 384//186 367//186 385//186
f 385//186 367//186 366//186
f 386//44 259//44 258//44
f 268//44 270//44 375//44
f 375//44 270//44 373//44
f 373//44 270//44 272//44
f 373//44 272//44 371//44
f 371//44 272//44 369//44
f 369//44 272//44 274//44
f 369//44 274//44 366//44
f 366//44 274//44 276//44
f 366//44 276//44 385//44
f 387//44 388//44 385//44
f 389//44 258//44 390//44
f 390//44 258//44 385//44
f 390//44 385//44 391//44
f 391//44 385//44 388//44
f 276//44 278//44 385//44
f 385//44 278//44 280//44
f 385//44 280//44 364//44
f 364//44 280//44 282//44
f 375//44 377//44 268//44
f 268//44 377//44 379//44
f 268//44 379//44 266//44
f 266//44 379//44 381//44
f 266//44 381//44 264//44
f 264//44 381//44 383//44
f 264//44 383//44 262//44
f 262//44 383//44 364//44
f 262//44 364//44 260//44
f 260//44 364//44 282//44
f 387//44 385//44 392//44
f 392//44 385//44 364//44
f 392//44 364//44 393//44
f 393//44 364//44 394//44
f 394//44 364//44 362//44
f 394//44 362//44 395//44
f 395//44 362//44 360//44
f 395//44 360//44 396//44
f 396//44 360//44 358//44
f 396//44 358//44 397//44
f 397//44 358//44 357//44
f 397//44 357//44 398//44
f 398//44 357//44 386//44
f 398//44 386//44 399//44
f 389//44 400//44 258//44
f 258//44 400//44 401//44
f 258//44 401//44 386//44
f 386//44 401//44 402//44
f 386//44 402//44 399//44
f 352//138 355//138 403//138
f 357//138 356//138 340//138
f 403//138 355//138 308//138
f 308//138 355//138 339//138
f 308//138 339//138 309//138
f 357//138 340//138 386//138
f 386//138 340//138 343//138
f 386//138 343//138 345//138
f 345//138 347//138 386//138
f 386//138 347//138 349//138
f 386//138 349//138 403//138
f 403//138 349//138 350//138
f 403//138 350//138 352//138
f 404//1 405//1 403//1
f 295//1 326//1 297//1
f 297//1 326//1 324//1
f 297//1 324//1 299//1
f 299//1 324//1 322//1
f 299//1 322//1 301//1
f 301//1 322//1 321//1
f 301//1 321//1 303//1
f 303//1 321//1 336//1
f 406//1 403//1 407//1
f 407//1 403//1 408//1
f 336//1 409//1 410//1
f 291//1 332//1 293//1
f 293//1 332//1 330//1
f 293//1 330//1 295//1
f 295//1 330//1 328//1
f 295//1 328//1 326//1
f 406//1 411//1 403//1
f 403//1 411//1 412//1
f 403//1 412//1 404//1
f 404//1 412//1 413//1
f 404//1 413//1 414//1
f 414//1 413//1 415//1
f 414//1 415//1 416//1
f 416//1 415//1 417//1
f 416//1 417//1 336//1
f 336//1 417//1 418//1
f 336//1 418//1 409//1
f 410//1 419//1 336//1
f 336//1 419//1 420//1
f 336//1 420//1 317//1
f 317//1 420//1 421//1
f 317//1 421//1 315//1
f 315//1 421//1 422//1
f 315//1 422//1 313//1
f 313//1 422//1 423//1
f 313//1 423//1 311//1
f 311//1 423//1 408//1
f 311//1 408//1 308//1
f 308//1 408//1 403//1
f 287//1 317//1 289//1
f 289//1 317//1 318//1
f 289//1 318//1 291//1
f 291//1 318//1 334//1
f 291//1 334//1 332//1
f 287//1 285//1 317//1
f 317//1 285//1 307//1
f 317//1 307//1 336//1
f 336//1 307//1 305//1
f 336//1 305//1 303//1
f 424//138 425//138 426//138
f 427//196 428//196 416//196
f 416//196 428//196 429//196
f 416//196 429//196 414//196
f 427//196 416//196 426//196
f 426//196 416//196 430//196
f 426//196 430//196 424//196
f 342//197 341//197 384//197
f 384//197 416//197 337//197
f 337//197 416//197 336//197
f 342//197 384//197 344//197
f 384//197 385//197 416//197
f 416//197 385//197 258//197
f 416//197 258//197 257//197
f 338//197 354//197 337//197
f 337//197 354//197 353//197
f 431//197 432//197 433//197
f 433//197 432//197 434//197
f 434//197 432//197 435//197
f 434//197 435//197 436//197
f 436//197 435//197 437//197
f 437//197 435//197 438//197
f 437//197 438//197 439//197
f 439//197 438//197 440//197
f 439//197 440//197 441//197
f 441//197 440//197 442//197
f 441//197 442//197 443//197
f 443//197 442//197 444//197
f 443//197 444//197 257//197
f 257//197 444//197 445//197
f 257//197 445//197 416//197
f 353//197 351//197 337//197
f 337//197 351//197 348//197
f 337//197 348//197 384//197
f 384//197 348//197 346//197
f 384//197 346//197 344//197
f 445//197 446//197 416//197
f 416//197 446//197 447//197
f 416//197 447//197 430//197
f 430//197 447//197 448//197
f 430//197 448//197 449//197
f 449//197 448//197 450//197
f 433//197 451//197 431//197
f 431//197 451//197 452//197
f 431//197 452//197 453//197
f 453//197 452//197 454//197
f 453//197 454//197 455//197
f 455//197 454//197 456//197
f 455//197 456//197 457//197
f 457//197 456//197 458//197
f 457//197 458//197 448//197
f 448//197 458//197 459//197
f 448//197 459//197 450//197
f 460//198 438//198 461//198
f 461//199 438//199 435//199
f 461//200 435//200 462//200
f 462//201 435//201 432//201
f 462//202 432//202 463//202
f 463//203 432//203 431//203
f 463//204 431//204 464//204
f 464//204 431//204 453//204
f 464//205 453//205 465//205
f 465//205 453//205 455//205
f 465//206 455//206 466//206
f 466//206 455//206 457//206
f 466//207 457//207 467//207
f 467//208 457//208 448//208
f 467//209 448//209 468//209
f 468//210 448//210 447//210
f 468//211 447//211 469//211
f 469//212 447//212 446//212
f 469//213 446//213 470//213
f 470//213 446//213 445//213
f 470//214 445//214 471//214
f 471//214 445//214 444//214
f 471//215 444//215 472//215
f 472//215 444//215 442//215
f 472//216 442//216 473//216
f 473//216 442//216 440//216
f 473//217 440//217 460//217
f 460//217 440//217 438//217
f 464//138 474//138 463//138
f 463//138 474//138 475//138
f 463//138 475//138 462//138
f 468//138 249//138 467//138
f 467//138 249//138 251//138
f 467//138 251//138 466//138
f 466//138 251//138 465//138
f 465//138 251//138 476//138
f 465//138 476//138 464//138
f 464//138 476//138 477//138
f 464//138 477//138 474//138
f 468//138 469//138 249//138
f 249//138 469//138 470//138
f 249//138 470//138 256//138
f 256//138 470//138 471//138
f 256//138 471//138 478//138
f 478//138 471//138 472//138
f 475//138 479//138 462//138
f 462//138 479//138 480//138
f 462//138 480//138 461//138
f 461//138 480//138 481//138
f 461//138 481//138 460//138
f 460//138 481//138 482//138
f 460//138 482//138 473//138
f 473//138 482//138 483//138
f 473//138 483//138 472//138
f 472//138 483//138 484//138
f 472//138 484//138 478//138
f 257//218 256//218 478//218
f 257//218 478//218 443//218
f 443//219 478//219 484//219
f 443//219 484//219 441//219
f 441//220 484//220 483//220
f 441//220 483//220 439//220
f 439//221 483//221 482//221
f 439//221 482//221 437//221
f 437//222 482//222 481//222
f 437//222 481//222 436//222
f 436//223 481//223 480//223
f 436//223 480//223 434//223
f 434//224 480//224 479//224
f 434//224 479//224 433//224
f 433//225 479//225 475//225
f 433//225 475//225 451//225
f 451//226 475//226 474//226
f 451//226 474//226 452//226
f 452//227 474//227 477//227
f 452//227 477//227 454//227
f 477//1 476//1 235//1
f 477//1 235//1 454//1
f 235//1 236//1 454//1
f 454//1 236//1 232//1
f 454//1 232//1 241//1
f 241//1 239//1 454//1
f 454//1 239//1 244//1
f 454//1 244//1 456//1
f 456//1 244//1 245//1
f 245//1 248//1 456//1
f 456//1 248//1 229//1
f 456//1 229//1 228//1
f 485//228 486//228 450//228
f 450//229 486//229 487//229
f 488//230 449//230 489//230
f 489//231 449//231 450//231
f 489//232 450//232 490//232
f 490//233 450//233 487//233
f 459//234 238//234 237//234
f 237//235 240//235 459//235
f 459//236 240//236 231//236
f 459//237 231//237 450//237
f 450//238 231//238 230//238
f 450//239 230//239 485//239
f 485//240 230//240 234//240
f 485//241 234//241 233//241
f 246//242 458//242 227//242
f 227//243 458//243 456//243
f 227//244 456//244 228//244
f 246//245 247//245 458//245
f 458//246 247//246 243//246
f 458//247 243//247 459//247
f 459//248 243//248 242//248
f 459//249 242//249 238//249
f 449//1 488//1 491//1
f 491//1 492//1 449//1
f 449//1 492//1 493//1
f 449//1 493//1 430//1
f 430//1 493//1 425//1
f 430//1 425//1 424//1
f 428//250 488//250 489//250
f 427//251 426//251 425//251
f 425//252 493//252 427//252
f 427//253 493//253 492//253
f 427//254 492//254 428//254
f 428//255 492//255 491//255
f 428//256 491//256 488//256
f 487//257 404//257 490//257
f 490//258 404//258 414//258
f 490//259 414//259 489//259
f 489//260 414//260 429//260
f 489//261 429//261 428//261
f 487//262 486//262 404//262
f 404//263 486//263 485//263
f 404//264 485//264 233//264
f 494//265 495//265 252//265
f 252//266 495//266 218//266
f 405//266 404//266 233//266
f 218//266 217//266 252//266
f 252//266 217//266 405//266
f 252//266 405//266 251//266
f 251//266 405//266 233//266
f 251//265 233//265 476//265
f 476//266 233//266 235//266
f 496//267 497//267 498//267
f 498//268 497//268 499//268
f 498//269 499//269 500//269
f 499//270 501//270 500//270
f 500//271 501//271 502//271
f 500//272 502//272 503//272
f 503//273 502//273 504//273
f 503//274 504//274 505//274
f 505//275 504//275 506//275
f 507//276 508//276 495//276
f 507//277 495//277 509//277
f 506//278 510//278 505//278
f 505//279 510//279 511//279
f 505//280 511//280 512//280
f 512//281 511//281 509//281
f 512//282 509//282 513//282
f 513//283 509//283 495//283
f 508//284 514//284 495//284
f 495//285 514//285 515//285
f 495//286 515//286 218//286
f 503//1 505//1 516//1
f 505//1 512//1 516//1
f 516//1 512//1 513//1
f 516//1 513//1 517//1
f 517//1 513//1 495//1
f 517//1 495//1 494//1
f 518//1 496//1 519//1
f 519//1 496//1 498//1
f 519//1 498//1 516//1
f 516//1 498//1 500//1
f 516//1 500//1 503//1
f 253//218 254//218 520//218
f 253//218 520//218 521//218
f 521//219 520//219 522//219
f 521//219 522//219 523//219
f 523//220 522//220 524//220
f 523//220 524//220 525//220
f 525//221 524//221 526//221
f 525//221 526//221 527//221
f 527//287 526//287 528//287
f 527//287 528//287 529//287
f 529//223 528//223 530//223
f 529//223 530//223 531//223
f 531//224 530//224 532//224
f 531//224 532//224 533//224
f 533//225 532//225 534//225
f 533//225 534//225 535//225
f 535//226 534//226 536//226
f 535//226 536//226 537//226
f 537//227 536//227 516//227
f 537//227 516//227 517//227
f 538//197 539//197 533//197
f 252//197 250//197 540//197
f 533//197 539//197 531//197
f 531//197 539//197 541//197
f 531//197 541//197 529//197
f 540//197 542//197 252//197
f 252//197 542//197 543//197
f 252//197 543//197 494//197
f 529//197 541//197 527//197
f 527//197 541//197 544//197
f 527//197 544//197 525//197
f 525//197 544//197 545//197
f 525//197 545//197 523//197
f 523//197 545//197 546//197
f 523//197 546//197 521//197
f 521//197 546//197 547//197
f 521//197 547//197 253//197
f 253//197 547//197 548//197
f 253//197 548//197 250//197
f 250//197 548//197 549//197
f 250//197 549//197 540//197
f 543//197 550//197 494//197
f 494//197 550//197 551//197
f 494//197 551//197 517//197
f 517//197 551//197 552//197
f 517//197 552//197 537//197
f 537//197 552//197 538//197
f 537//197 538//197 535//197
f 535//197 538//197 533//197
f 551//288 550//288 553//288
f 553//289 550//289 554//289
f 554//289 550//289 543//289
f 554//290 543//290 555//290
f 555//290 543//290 542//290
f 555//291 542//291 556//291
f 556//292 542//292 540//292
f 556//293 540//293 557//293
f 557//293 540//293 549//293
f 557//294 549//294 558//294
f 558//294 549//294 548//294
f 558//295 548//295 559//295
f 559//295 548//295 547//295
f 559//296 547//296 560//296
f 560//296 547//296 546//296
f 560//297 546//297 561//297
f 553//288 562//288 551//288
f 551//298 562//298 563//298
f 551//299 563//299 552//299
f 552//300 563//300 564//300
f 552//301 564//301 538//301
f 538//301 564//301 565//301
f 538//302 565//302 539//302
f 539//302 565//302 566//302
f 539//303 566//303 541//303
f 541//304 566//304 567//304
f 541//199 567//199 544//199
f 544//305 567//305 561//305
f 544//306 561//306 545//306
f 545//297 561//297 546//297
f 568//138 569//138 570//138
f 566//138 532//138 530//138
f 566//138 530//138 567//138
f 555//138 556//138 255//138
f 255//138 556//138 557//138
f 255//138 557//138 254//138
f 530//138 528//138 567//138
f 567//138 528//138 526//138
f 567//138 526//138 561//138
f 561//138 526//138 524//138
f 561//138 524//138 560//138
f 553//138 519//138 562//138
f 562//138 519//138 516//138
f 255//138 568//138 555//138
f 555//138 568//138 570//138
f 555//138 570//138 554//138
f 554//138 570//138 571//138
f 554//138 571//138 553//138
f 553//138 571//138 572//138
f 553//138 572//138 519//138
f 524//138 522//138 560//138
f 560//138 522//138 520//138
f 560//138 520//138 559//138
f 559//138 520//138 254//138
f 559//138 254//138 558//138
f 558//138 254//138 557//138
f 532//138 566//138 534//138
f 534//138 566//138 565//138
f 534//138 565//138 536//138
f 536//138 565//138 564//138
f 536//138 564//138 516//138
f 516//138 564//138 563//138
f 516//138 563//138 562//138
f 502//307 501//307 572//307
f 572//308 501//308 499//308
f 572//309 499//309 519//309
f 519//310 499//310 497//310
f 519//244 497//244 518//244
f 511//311 571//311 509//311
f 509//312 571//312 507//312
f 511//313 510//313 571//313
f 571//314 510//314 506//314
f 571//315 506//315 572//315
f 572//316 506//316 504//316
f 572//317 504//317 502//317
f 507//318 571//318 508//318
f 508//319 571//319 570//319
f 508//320 570//320 514//320
f 224//321 220//321 570//321
f 225//322 224//322 573//322
f 573//323 224//323 570//323
f 573//324 570//324 569//324
f 218//325 515//325 219//325
f 219//326 515//326 514//326
f 219//327 514//327 223//327
f 223//328 514//328 570//328
f 223//329 570//329 222//329
f 222//330 570//330 220//330
f 573//44 569//44 568//44
f 221//168 216//168 255//168
f 216//168 215//168 255//168
f 255//168 215//168 573//168
f 255//168 573//168 568//168
f 386//168 403//168 259//168
f 259//168 403//168 405//168
f 259//168 405//168 255//168
f 255//168 405//168 217//168
f 255//168 217//168 221//168
f 215//1 214//1 573//1
f 573//1 214//1 226//1
f 573//1 226//1 225//1
f 574//44 575//44 576//44
f 577//44 578//44 576//44
f 576//44 578//44 579//44
f 576//44 579//44 574//44
f 580//44 581//44 576//44
f 576//44 581//44 582//44
f 576//44 582//44 577//44
f 583//44 584//44 576//44
f 576//44 584//44 585//44
f 576//44 585//44 580//44
f 586//44 587//44 576//44
f 576//44 587//44 588//44
f 576//44 588//44 583//44
f 589//44 590//44 576//44
f 576//44 590//44 591//44
f 576//44 591//44 586//44
f 592//44 593//44 576//44
f 576//44 593//44 594//44
f 576//44 594//44 589//44
f 595//44 596//44 576//44
f 576//44 596//44 597//44
f 576//44 597//44 592//44
f 598//44 599//44 576//44
f 576//44 599//44 600//44
f 576//44 600//44 595//44
f 601//44 602//44 576//44
f 576//44 602//44 603//44
f 576//44 603//44 598//44
f 604//44 605//44 576//44
f 576//44 605//44 606//44
f 576//44 606//44 601//44
f 607//44 608//44 576//44
f 576//44 608//44 609//44
f 576//44 609//44 604//44
f 610//44 611//44 576//44
f 576//44 611//44 612//44
f 576//44 612//44 607//44
f 575//44 613//44 576//44
f 576//44 613//44 614//44
f 576//44 614//44 610//44
f 575//331 574//331 615//331
f 615//332 574//332 616//332
f 574//333 579//333 616//333
f 616//334 579//334 578//334
f 616//334 578//334 617//334
f 617//335 578//335 577//335
f 617//336 577//336 618//336
f 618//337 577//337 582//337
f 618//337 582//337 619//337
f 619//338 582//338 581//338
f 619//338 581//338 620//338
f 620//339 581//339 580//339
f 620//340 580//340 621//340
f 621//341 580//341 585//341
f 621//342 585//342 622//342
f 622//343 585//343 584//343
f 622//344 584//344 623//344
f 623//345 584//345 583//345
f 623//345 583//345 624//345
f 624//346 583//346 588//346
f 624//346 588//346 625//346
f 625//347 588//347 587//347
f 625//347 587//347 626//347
f 626//348 587//348 586//348
f 626//348 586//348 627//348
f 627//349 586//349 591//349
f 627//349 591//349 628//349
f 628//350 591//350 590//350
f 628//350 590//350 629//350
f 629//351 590//351 589//351
f 629//351 589//351 630//351
f 630//352 589//352 594//352
f 630//352 594//352 631//352
f 631//353 594//353 593//353
f 631//353 593//353 632//353
f 632//354 593//354 592//354
f 632//355 592//355 633//355
f 633//356 592//356 597//356
f 633//357 597//357 634//357
f 634//358 597//358 596//358
f 634//358 596//358 635//358
f 635//359 596//359 595//359
f 635//359 595//359 636//359
f 636//360 595//360 600//360
f 636//361 600//361 637//361
f 637//362 600//362 599//362
f 637//362 599//362 638//362
f 638//363 599//363 598//363
f 638//363 598//363 639//363
f 639//364 598//364 603//364
f 639//364 603//364 640//364
f 640//365 603//365 602//365
f 640//365 602//365 641//365
f 641//366 602//366 601//366
f 641//367 601//367 642//367
f 642//368 601//368 606//368
f 642//368 606//368 643//368
f 643//369 606//369 605//369
f 643//369 605//369 644//369
f 644//370 605//370 604//370
f 644//370 604//370 645//370
f 645//371 604//371 609//371
f 645//371 609//371 646//371
f 646//372 609//372 608//372
f 646//372 608//372 647//372
f 647//373 608//373 607//373
f 647//373 607//373 648//373
f 648//374 607//374 612//374
f 648//374 612//374 649//374
f 649//375 612//375 611//375
f 649//375 611//375 650//375
f 650//376 611//376 610//376
f 650//376 610//376 651//376
f 651//377 610//377 614//377
f 651//377 614//377 652//377
f 652//378 614//378 613//378
f 652//379 613//379 653//379
f 653//380 613//380 575//380
f 653//380 575//380 654//380
f 654//381 575//381 615//381
f 655//44 656//44 657//44
f 657//44 656//44 658//44
f 657//44 658//44 659//44
f 659//44 658//44 660//44
f 659//44 660//44 661//44
f 662//44 663//44 664//44
f 664//44 663//44 665//44
f 664//44 665//44 666//44
f 666//44 665//44 667//44
f 666//44 667//44 668//44
f 669//44 670//44 671//44
f 671//44 670//44 672//44
f 671//44 672//44 662//44
f 662//44 672//44 673//44
f 662//44 673//44 663//44
f 674//44 675//44 676//44
f 676//44 675//44 677//44
f 676//44 677//44 678//44
f 678//44 677//44 679//44
f 678//44 679//44 669//44
f 669//44 679//44 680//44
f 669//44 680//44 670//44
f 660//44 681//44 661//44
f 661//44 681//44 682//44
f 661//44 682//44 683//44
f 683//44 682//44 684//44
f 683//44 684//44 685//44
f 686//44 687//44 688//44
f 688//44 687//44 689//44
f 688//44 689//44 655//44
f 655//44 689//44 690//44
f 655//44 690//44 656//44
f 691//44 692//44 693//44
f 693//44 692//44 694//44
f 693//44 694//44 695//44
f 695//44 694//44 696//44
f 695//44 696//44 686//44
f 686//44 696//44 697//44
f 686//44 697//44 687//44
f 698//44 699//44 700//44
f 700//44 699//44 701//44
f 700//44 701//44 674//44
f 674//44 701//44 702//44
f 674//44 702//44 675//44
f 684//44 703//44 685//44
f 685//44 703//44 704//44
f 685//44 704//44 705//44
f 705//44 704//44 706//44
f 705//44 706//44 707//44
f 707//44 706//44 708//44
f 707//44 708//44 698//44
f 698//44 708//44 709//44
f 698//44 709//44 699//44
f 667//44 710//44 668//44
f 668//44 710//44 711//44
f 668//44 711//44 712//44
f 712//44 711//44 713//44
f 712//44 713//44 714//44
f 714//44 713//44 715//44
f 714//44 715//44 716//44
f 716//44 715//44 717//44
f 716//44 717//44 718//44
f 718//44 717//44 719//44
f 718//44 719//44 691//44
f 691//44 719//44 720//44
f 691//44 720//44 692//44
f 708//43 721//43 709//43
f 709//42 721//42 722//42
f 709//42 722//42 699//42
f 699//41 722//41 723//41
f 699//41 723//41 701//41
f 701//40 723//40 724//40
f 701//40 724//40 702//40
f 702//39 724//39 725//39
f 702//39 725//39 675//39
f 675//38 725//38 726//38
f 675//38 726//38 677//38
f 677//37 726//37 727//37
f 677//36 727//36 679//36
f 679//35 727//35 728//35
f 679//35 728//35 680//35
f 680//34 728//34 729//34
f 680//34 729//34 670//34
f 670//33 729//33 730//33
f 670//33 730//33 672//33
f 672//32 730//32 731//32
f 672//382 731//382 673//382
f 673//31 731//31 732//31
f 673//31 732//31 663//31
f 663//30 732//30 733//30
f 663//30 733//30 665//30
f 665//29 733//29 734//29
f 665//29 734//29 667//29
f 667//27 734//27 735//27
f 667//27 735//27 710//27
f 710//26 735//26 736//26
f 710//26 736//26 711//26
f 711//25 736//25 737//25
f 711//25 737//25 713//25
f 713//24 737//24 738//24
f 713//24 738//24 715//24
f 715//23 738//23 739//23
f 715//23 739//23 717//23
f 717//22 739//22 740//22
f 717//22 740//22 719//22
f 719//21 740//21 741//21
f 719//21 741//21 720//21
f 720//20 741//20 742//20
f 720//20 742//20 692//20
f 692//19 742//19 743//19
f 692//19 743//19 694//19
f 694//18 743//18 744//18
f 694//18 744//18 696//18
f 696//17 744//17 745//17
f 696//17 745//17 697//17
f 697//16 745//16 746//16
f 697//16 746//16 687//16
f 687//15 746//15 747//15
f 687//15 747//15 689//15
f 689//14 747//14 748//14
f 689//14 748//14 690//14
f 690//13 748//13 749//13
f 690//13 749//13 656//13
f 656//12 749//12 750//12
f 656//12 750//12 658//12
f 658//11 750//11 751//11
f 658//10 751//10 660//10
f 660//9 751//9 752//9
f 660//9 752//9 681//9
f 681//8 752//8 753//8
f 681//8 753//8 682//8
f 682//7 753//7 754//7
f 682//7 754//7 684//7
f 684//6 754//6 755//6
f 684//5 755//5 703//5
f 703//4 755//4 756//4
f 703//4 756//4 704//4
f 704//3 756//3 757//3
f 704//3 757//3 706//3
f 706//2 757//2 758//2
f 706//2 758//2 708//2
f 708//43 758//43 721//43
f 759//1 753//1 760//1
f 760//1 753//1 752//1
f 760//1 752//1 761//1
f 761//1 752//1 751//1
f 761//1 751//1 762//1
f 763//1 732//1 764//1
f 764//1 732//1 731//1
f 764//1 731//1 765//1
f 766//1 746//1 767//1
f 767//1 746//1 745//1
f 767//1 745//1 768//1
f 768//1 745//1 744//1
f 768//1 744//1 769//1
f 751//1 750//1 762//1
f 762//1 750//1 749//1
f 762//1 749//1 770//1
f 770//1 749//1 748//1
f 770//1 748//1 766//1
f 766//1 748//1 747//1
f 766//1 747//1 746//1
f 771//1 722//1 772//1
f 772//1 722//1 721//1
f 772//1 721//1 773//1
f 773//1 721//1 758//1
f 773//1 758//1 774//1
f 775//1 725//1 776//1
f 776//1 725//1 724//1
f 776//1 724//1 771//1
f 771//1 724//1 723//1
f 771//1 723//1 722//1
f 731//1 730//1 765//1
f 765//1 730//1 729//1
f 765//1 729//1 777//1
f 777//1 729//1 728//1
f 777//1 728//1 778//1
f 778//1 728//1 727//1
f 778//1 727//1 775//1
f 775//1 727//1 726//1
f 775//1 726//1 725//1
f 779//1 736//1 780//1
f 780//1 736//1 735//1
f 780//1 735//1 781//1
f 781//1 735//1 734//1
f 781//1 734//1 763//1
f 763//1 734//1 733//1
f 763//1 733//1 732//1
f 758//1 757//1 774//1
f 774//1 757//1 756//1
f 774//1 756//1 782//1
f 782//1 756//1 755//1
f 782//1 755//1 759//1
f 759//1 755//1 754//1
f 759//1 754//1 753//1
f 744//1 743//1 769//1
f 769//1 743//1 742//1
f 769//1 742//1 783//1
f 783//1 742//1 741//1
f 783//1 741//1 784//1
f 784//1 741//1 740//1
f 784//1 740//1 785//1
f 785//1 740//1 739//1
f 785//1 739//1 786//1
f 786//1 739//1 738//1
f 786//1 738//1 779//1
f 779//1 738//1 737//1
f 779//1 737//1 736//1
f 773//75 707//75 772//75
f 772//75 707//75 698//75
f 772//74 698//74 771//74
f 771//74 698//74 700//74
f 771//73 700//73 776//73
f 776//73 700//73 674//73
f 776//72 674//72 775//72
f 775//72 674//72 676//72
f 775//70 676//70 778//70
f 778//70 676//70 678//70
f 778//69 678//69 777//69
f 777//69 678//69 669//69
f 777//68 669//68 765//68
f 765//68 669//68 671//68
f 765//67 671//67 764//67
f 764//67 671//67 662//67
f 764//66 662//66 763//66
f 763//66 662//66 664//66
f 763//65 664//65 781//65
f 781//65 664//65 666//65
f 781//64 666//64 780//64
f 780//64 666//64 668//64
f 780//63 668//63 779//63
f 779//63 668//63 712//63
f 779//62 712//62 786//62
f 786//62 712//62 714//62
f 786//61 714//61 785//61
f 785//61 714//61 716//61
f 785//60 716//60 784//60
f 784//60 716//60 718//60
f 784//59 718//59 783//59
f 783//59 718//59 691//59
f 783//58 691//58 769//58
f 769//58 691//58 693//58
f 769//57 693//57 768//57
f 768//57 693//57 695//57
f 768//56 695//56 767//56
f 767//56 695//56 686//56
f 767//55 686//55 766//55
f 766//55 686//55 688//55
f 766//54 688//54 770//54
f 770//54 688//54 655//54
f 770//53 655//53 762//53
f 762//53 655//53 657//53
f 762//52 657//52 761//52
f 761//52 657//52 659//52
f 761//51 659//51 760//51
f 760//51 659//51 661//51
f 760//50 661//50 759//50
f 759//49 661//49 683//49
f 759//48 683//48 782//48
f 782//47 683//47 685//47
f 782//46 685//46 774//46
f 774//46 685//46 705//46
f 774//45 705//45 773//45
f 773//45 705//45 707//45
