# https://github.com/mikedh/trimesh

o geometry_0
v 0.02981110 0.00293971 -0.00042305
v 0.03250000 -0.00820000 -0.00569685
v 0.03009972 0.00280000 -0.01600000
v -0.00709971 0.00280000 -0.01600000
v -0.00776120 -0.00379322 -0.00160337
v 0.03250000 -0.00820000 -0.01230315
v -0.00386693 0.00716875 -0.01243125
v 0.03205440 -0.00281726 -0.00065830
v 0.03231127 -0.00395934 -0.01584066
v -0.00950000 -0.00820000 -0.01230315
v 0.02691520 0.00716331 -0.00556331
v 0.02697619 0.00710000 -0.01250000
v -0.00757768 0.00185556 -0.00160337
v 0.03096072 0.00081786 -0.00065388
v 0.01145914 -0.00400000 0.00000000
v -0.00919927 -0.00336621 -0.01600000
v -0.00950000 -0.00820000 -0.00569685
v 0.02831760 0.00552908 -0.00550000
v -0.00535206 0.00548872 -0.00550000
v 0.02936858 0.00397504 -0.00550000
v 0.03148542 -0.00123960 -0.00038105
v 0.03154835 -0.00072850 -0.01600000
v 0.03212748 -0.00399995 -0.00041717
v -0.00855925 -0.00075362 -0.00160307
v 0.01145914 0.00300000 0.00000000
v -0.00931204 -0.00396494 -0.01583506
v 0.02831760 0.00552908 -0.01250000
v -0.00484362 0.00605681 -0.01235912
v -0.00639363 0.00393736 -0.00550000
v -0.00394109 0.00713643 -0.00553642
v 0.03034062 0.00186965 -0.00044816
v 0.03151816 -0.00074498 -0.00065388
v 0.03099815 0.00089897 -0.01600000
v 0.03208859 -0.00282890 -0.01600000
v 0.03199643 -0.00338191 -0.00039733
v -0.00857019 -0.00297970 -0.00160337
v -0.00800654 0.00087417 -0.01600000
v -0.00800673 0.00087371 -0.00160337
v -0.00918420 -0.00336546 -0.00550000
v 0.02936858 0.00397504 -0.01250000
v -0.00534248 0.00548054 -0.01029366
v -0.00668525 0.00274585 -0.00160337
v -0.00855674 -0.00075330 -0.01600000
f 9 8 2
f 9 2 6
f 10 9 6
f 10 6 2
f 12 3 4
f 12 4 7
f 12 7 11
f 16 4 3
f 17 10 2
f 17 15 5
f 17 2 15
f 18 11 1
f 18 12 11
f 20 14 3
f 20 1 14
f 20 18 1
f 22 16 3
f 23 15 2
f 23 2 8
f 25 1 11
f 25 21 1
f 25 15 21
f 26 16 9
f 26 9 10
f 26 10 17
f 27 3 12
f 27 12 18
f 27 18 20
f 28 7 4
f 29 4 13
f 29 13 19
f 30 11 7
f 30 28 19
f 30 7 28
f 30 25 11
f 30 19 13
f 31 21 14
f 31 14 1
f 31 1 21
f 32 21 8
f 32 14 21
f 32 8 22
f 33 22 3
f 33 3 14
f 33 32 22
f 33 14 32
f 34 9 16
f 34 16 22
f 34 22 8
f 34 8 9
f 35 21 15
f 35 15 23
f 35 23 8
f 35 8 21
f 36 5 15
f 36 25 24
f 36 15 25
f 36 24 17
f 36 17 5
f 37 13 4
f 37 4 16
f 38 25 13
f 38 24 25
f 38 37 24
f 38 13 37
f 39 24 16
f 39 16 26
f 39 26 17
f 39 17 24
f 40 27 20
f 40 20 3
f 40 3 27
f 41 28 4
f 41 19 28
f 41 29 19
f 41 4 29
f 42 30 13
f 42 13 25
f 42 25 30
f 43 37 16
f 43 16 24
f 43 24 37

o geometry_1
v -0.00319011 -0.00488305 0.01231248
v 0.00558661 -0.00678981 0.00850000
v 0.00113702 -0.00434375 0.00600000
v -0.01000000 -0.00706010 -0.00070000
v -0.00922837 -0.02177163 0.01252163
v 0.00542113 -0.00701438 -0.00070000
v -0.00961298 -0.00434375 0.00588702
v 0.00510979 -0.00482311 0.00866912
v -0.00331377 -0.01879356 0.01240296
v -0.00562108 -0.02200000 -0.00070000
v -0.00933606 -0.00473606 0.01252163
v 0.00554057 -0.00630307 0.00874406
v 0.00521120 -0.00469292 0.00708894
v -0.00977163 -0.02122837 -0.00070000
v -0.00562108 -0.02200000 0.01252163
v -0.00987933 -0.00527933 0.01252163
v 0.00547455 -0.00516589 0.00865865
v -0.00922837 -0.02177163 -0.00070000
v -0.00431490 -0.02022735 0.01252163
v -0.00988462 -0.00488702 0.00561538
v -0.00977163 -0.02122837 0.01252163
v 0.00561271 -0.00509608 0.00708894
v 0.00558661 -0.00678981 0.00708894
f 50 49 47
f 50 46 49
f 51 46 44
f 53 47 49
f 54 44 46
f 54 46 50
f 55 52 45
f 55 44 52
f 56 49 46
f 56 46 51
f 57 47 53
f 58 48 53
f 58 54 48
f 58 53 49
f 59 54 50
f 60 51 44
f 60 44 55
f 60 56 51
f 61 57 53
f 61 53 48
f 61 48 57
f 62 52 44
f 62 44 54
f 62 54 58
f 62 45 52
f 62 58 49
f 62 49 45
f 63 59 50
f 63 50 47
f 63 47 59
f 64 57 48
f 64 48 54
f 64 54 59
f 64 59 47
f 64 47 57
f 65 49 56
f 65 56 60
f 65 60 55
f 65 55 45
f 66 65 45
f 66 45 49
f 66 49 65

o geometry_2
v 0.00050000 -0.00623426 0.04021762
v 0.00150000 -0.01983989 0.03929797
v 0.00150000 -0.00663463 0.02065224
v -0.00987933 -0.00527933 0.01252163
v -0.00970757 -0.02100000 0.03623835
v -0.00562108 -0.02200000 0.01252163
v 0.00009183 -0.00490000 0.01954279
v 0.00150000 -0.00591947 0.03881497
v -0.00574906 -0.02041201 0.04009257
v -0.00970757 -0.00540000 0.03623835
v 0.00150000 -0.02071135 0.02153049
v -0.00977163 -0.02122837 0.01252163
v 0.00037702 -0.02160452 0.03892088
v -0.00348509 -0.00463989 0.01240733
v 0.00150000 -0.00633343 0.03914651
v 0.00150000 -0.00541865 0.02240623
v 0.00050000 -0.02034208 0.04013465
v -0.00973012 -0.02118685 0.03528140
v 0.00041183 -0.00482728 0.03899330
v -0.00723788 -0.00580859 0.03954766
v -0.00724827 -0.02174311 0.03869254
v 0.00150000 -0.02079797 0.03833989
v 0.00008692 -0.02175743 0.01994024
v -0.00933606 -0.00473606 0.01252163
v 0.00150000 -0.00598579 0.02108579
v -0.00360484 -0.01926371 0.01252163
v 0.00050000 -0.00542403 0.03969959
v 0.00150000 -0.00548673 0.03793600
v -0.00577620 -0.00617024 0.04014436
v -0.00765072 -0.00490823 0.03863940
v -0.00873432 -0.00540661 0.03817870
v -0.00873027 -0.02176354 0.03674159
v -0.00777405 -0.02079198 0.03916324
v 0.00015193 -0.02135583 0.01954719
v 0.00150000 -0.01976537 0.02065224
v -0.00717723 -0.02056807 0.03958972
v -0.00632998 -0.00530074 0.03961588
v -0.00918951 -0.00490727 0.03624671
v -0.00768550 -0.00541861 0.03905923
v -0.00918706 -0.02172937 0.03528066
v -0.00872806 -0.02099091 0.03818346
v -0.00721274 -0.02127864 0.03911662
v -0.00816874 -0.00493702 0.03815389
v -0.00922837 -0.02177163 0.01252163
v -0.00919038 -0.02112736 0.03724332
v -0.00823000 -0.02171250 0.03767250
v -0.00678236 -0.02084444 0.03958434
f 74 68 69
f 77 69 68
f 80 78 70
f 81 67 68
f 81 68 74
f 82 74 69
f 83 68 67
f 83 67 75
f 83 75 79
f 84 76 70
f 84 71 76
f 84 70 78
f 85 73 80
f 85 82 73
f 87 79 75
f 87 72 79
f 88 77 68
f 88 83 79
f 88 68 83
f 89 79 72
f 89 88 79
f 89 77 88
f 90 80 70
f 90 70 76
f 91 80 73
f 91 69 80
f 91 82 69
f 91 73 82
f 92 72 80
f 93 81 74
f 93 67 81
f 93 74 85
f 94 85 74
f 94 74 82
f 94 82 85
f 95 75 67
f 96 85 80
f 97 76 71
f 98 72 87
f 99 86 97
f 100 89 72
f 100 72 92
f 100 77 89
f 101 92 80
f 101 80 69
f 101 69 77
f 101 100 92
f 101 77 100
f 102 95 86
f 102 75 95
f 102 86 99
f 103 95 67
f 103 67 93
f 103 93 85
f 103 85 96
f 103 86 95
f 104 90 76
f 104 76 97
f 104 96 80
f 104 80 90
f 105 97 86
f 105 96 97
f 105 103 96
f 105 86 103
f 106 98 71
f 106 71 84
f 107 99 97
f 107 97 71
f 107 87 99
f 108 102 99
f 108 99 87
f 109 104 97
f 109 97 96
f 109 96 104
f 110 72 98
f 110 98 106
f 110 80 72
f 110 78 80
f 110 106 84
f 110 84 78
f 111 107 71
f 111 71 98
f 112 98 87
f 112 87 107
f 112 111 98
f 112 107 111
f 113 108 87
f 113 87 75
f 113 75 102
f 113 102 108

o geometry_3
v 0.00827335 0.00388137 0.00550000
v 0.01145914 -0.00400000 0.00000000
v 0.01145914 0.00300000 -0.00160337
v -0.00757768 0.00185556 -0.00160337
v -0.01000000 -0.00706010 0.00600240
v 0.01145914 -0.00400000 -0.00160337
v -0.00637782 0.00486097 -0.00070000
v 0.00978823 0.00099897 0.00550000
v -0.01000000 -0.00706010 -0.00070000
v 0.00647271 0.00482456 -0.00070000
v -0.00668525 0.00274585 -0.00160337
v -0.00780425 0.00431421 0.00550000
v 0.01145914 0.00300000 0.00000000
v 0.00132692 -0.00706010 0.00901705
v -0.00776120 -0.00379322 -0.00160337
v -0.00921440 0.00300014 -0.00070000
v -0.00637782 0.00486097 0.00550000
v 0.00980562 0.00009527 0.00550000
v 0.00934928 0.00247618 0.00550000
v 0.00647271 0.00482456 0.00550000
v 0.00561230 -0.00675494 -0.00070000
v -0.00976589 0.00191779 0.00550000
v -0.00855925 -0.00075362 -0.00160307
v -0.00780425 0.00431421 -0.00070000
v 0.00558661 -0.00678981 0.00708894
v 0.00881532 0.00333680 0.00550000
v -0.00921440 0.00300014 0.00550000
v -0.00976589 0.00191779 -0.00070000
v -0.00857019 -0.00297970 -0.00160337
v 0.00938352 -0.00139674 0.00550668
v -0.00800673 0.00087371 -0.00160337
f 119 116 115
f 123 116 120
f 124 120 116
f 124 116 119
f 126 115 116
f 126 116 123
f 127 118 122
f 128 119 122
f 128 124 119
f 129 124 117
f 130 123 120
f 130 120 125
f 130 125 127
f 131 126 121
f 131 115 126
f 131 121 127
f 132 121 126
f 132 127 121
f 133 126 123
f 133 114 126
f 133 123 130
f 133 130 127
f 133 127 114
f 134 127 122
f 134 122 119
f 135 118 127
f 135 122 118
f 137 120 124
f 137 124 129
f 137 129 125
f 137 125 120
f 138 131 127
f 138 127 134
f 138 134 119
f 138 119 115
f 139 132 126
f 139 126 114
f 139 114 127
f 139 127 132
f 140 135 127
f 140 127 125
f 140 125 129
f 140 129 135
f 141 135 129
f 141 122 135
f 141 136 122
f 141 129 117
f 142 128 122
f 142 122 136
f 142 124 128
f 143 138 115
f 143 115 131
f 143 131 138
f 144 141 117
f 144 136 141
f 144 142 136
f 144 117 124
f 144 124 142

